<svg width="53" height="53" viewBox="0 0 53 53" fill="none" xmlns="http://www.w3.org/2000/svg">
<circle cx="26.5" cy="26.5" r="26.5" fill="#FFA9A3"/>
<path d="M19.2222 37C18.6111 37 18.0881 36.7826 17.6533 36.3478C17.2185 35.913 17.0007 35.3896 17 34.7778V19.2222C17 18.6111 17.2178 18.0882 17.6533 17.6533C18.0889 17.2185 18.6119 17.0007 19.2222 17H27.5C27.8704 17 28.153 17.1622 28.3478 17.4867C28.5426 17.8111 28.5656 18.1582 28.4167 18.5278C28.3241 18.8241 28.25 19.1204 28.1944 19.4167C28.1389 19.713 28.1111 20.0185 28.1111 20.3333C28.1111 21.8704 28.653 23.1807 29.7367 24.2644C30.8204 25.3481 32.1304 25.8896 33.6667 25.8889C33.9815 25.8889 34.287 25.8611 34.5833 25.8056C34.8796 25.75 35.1759 25.6759 35.4722 25.5833C35.8426 25.4537 36.19 25.4815 36.5144 25.6667C36.8389 25.8519 37.0007 26.1296 37 26.5V34.7778C37 35.3889 36.7826 35.9122 36.3478 36.3478C35.913 36.7833 35.3896 37.0007 34.7778 37H19.2222ZM20.3333 32.5556H33.6667L29.5 27L26.1667 31.4444L23.6667 28.1111L20.3333 32.5556ZM33.6667 23.6667C33.3518 23.6667 33.0881 23.56 32.8756 23.3467C32.663 23.1333 32.5563 22.8696 32.5556 22.5556V21.4444H31.4444C31.1296 21.4444 30.8659 21.3378 30.6533 21.1244C30.4407 20.9111 30.3341 20.6474 30.3333 20.3333C30.3326 20.0193 30.4393 19.7556 30.6533 19.5422C30.8674 19.3289 31.1311 19.2222 31.4444 19.2222H32.5556V18.1111C32.5556 17.7963 32.6622 17.5326 32.8756 17.32C33.0889 17.1074 33.3526 17.0007 33.6667 17C33.9807 16.9993 34.2448 17.1059 34.4589 17.32C34.673 17.5341 34.7793 17.7978 34.7778 18.1111V19.2222H35.8889C36.2037 19.2222 36.4678 19.3289 36.6811 19.5422C36.8944 19.7556 37.0007 20.0193 37 20.3333C36.9993 20.6474 36.8926 20.9115 36.68 21.1256C36.4674 21.3396 36.2037 21.4459 35.8889 21.4444H34.7778V22.5556C34.7778 22.8704 34.6711 23.1344 34.4578 23.3478C34.2444 23.5611 33.9807 23.6674 33.6667 23.6667Z" fill="#FFFFF0"/>
</svg>
