<svg width="338" height="74" viewBox="0 0 338 74" fill="none" xmlns="http://www.w3.org/2000/svg">
<path d="M89.1966 8.456L82.5886 21.196V28H78.6686V21.196L72.0326 8.456H76.4566L80.6566 17.388L84.8286 8.456H89.1966ZM98.3454 28.252C96.8521 28.252 95.5081 27.9253 94.3134 27.272C93.1187 26.6 92.1761 25.6573 91.4854 24.444C90.8134 23.2307 90.4774 21.8307 90.4774 20.244C90.4774 18.6573 90.8227 17.2573 91.5134 16.044C92.2227 14.8307 93.1841 13.8973 94.3974 13.244C95.6107 12.572 96.9641 12.236 98.4574 12.236C99.9507 12.236 101.304 12.572 102.517 13.244C103.731 13.8973 104.683 14.8307 105.373 16.044C106.083 17.2573 106.437 18.6573 106.437 20.244C106.437 21.8307 106.073 23.2307 105.345 24.444C104.636 25.6573 103.665 26.6 102.433 27.272C101.22 27.9253 99.8574 28.252 98.3454 28.252ZM98.3454 24.836C99.0547 24.836 99.7174 24.668 100.333 24.332C100.968 23.9773 101.472 23.4547 101.845 22.764C102.219 22.0733 102.405 21.2333 102.405 20.244C102.405 18.7693 102.013 17.64 101.229 16.856C100.464 16.0533 99.5214 15.652 98.4014 15.652C97.2814 15.652 96.3387 16.0533 95.5734 16.856C94.8267 17.64 94.4534 18.7693 94.4534 20.244C94.4534 21.7187 94.8174 22.8573 95.5454 23.66C96.2921 24.444 97.2254 24.836 98.3454 24.836ZM123.957 12.488V28H120.009V26.04C119.505 26.712 118.842 27.244 118.021 27.636C117.218 28.0093 116.341 28.196 115.389 28.196C114.176 28.196 113.102 27.944 112.169 27.44C111.236 26.9173 110.498 26.1613 109.957 25.172C109.434 24.164 109.173 22.9693 109.173 21.588V12.488H113.093V21.028C113.093 22.26 113.401 23.212 114.017 23.884C114.633 24.5373 115.473 24.864 116.537 24.864C117.62 24.864 118.469 24.5373 119.085 23.884C119.701 23.212 120.009 22.26 120.009 21.028V12.488H123.957ZM128.609 8.456H132.725L129.701 15.512H127.013L128.609 8.456ZM139.456 14.896C139.96 14.0747 140.613 13.4307 141.416 12.964C142.237 12.4973 143.17 12.264 144.216 12.264V16.38H143.18C141.948 16.38 141.014 16.6693 140.38 17.248C139.764 17.8267 139.456 18.8347 139.456 20.272V28H135.536V12.488H139.456V14.896ZM161.276 19.908C161.276 20.468 161.238 20.972 161.164 21.42H149.824C149.917 22.54 150.309 23.4173 151 24.052C151.69 24.6867 152.54 25.004 153.548 25.004C155.004 25.004 156.04 24.3787 156.656 23.128H160.884C160.436 24.6213 159.577 25.8533 158.308 26.824C157.038 27.776 155.48 28.252 153.632 28.252C152.138 28.252 150.794 27.9253 149.6 27.272C148.424 26.6 147.5 25.6573 146.828 24.444C146.174 23.2307 145.848 21.8307 145.848 20.244C145.848 18.6387 146.174 17.2293 146.828 16.016C147.481 14.8027 148.396 13.8693 149.572 13.216C150.748 12.5627 152.101 12.236 153.632 12.236C155.106 12.236 156.422 12.5533 157.58 13.188C158.756 13.8227 159.661 14.728 160.296 15.904C160.949 17.0613 161.276 18.396 161.276 19.908ZM157.216 18.788C157.197 17.78 156.833 16.9773 156.124 16.38C155.414 15.764 154.546 15.456 153.52 15.456C152.549 15.456 151.728 15.7547 151.056 16.352C150.402 16.9307 150.001 17.7427 149.852 18.788H157.216ZM182.793 24.276H175.009L173.721 28H169.605L176.633 8.428H181.197L188.225 28H184.081L182.793 24.276ZM181.729 21.14L178.901 12.964L176.073 21.14H181.729ZM194.772 7.28V28H190.852V7.28H194.772ZM202.565 7.28V28H198.645V7.28H202.565ZM219.858 28.196C218.495 28.196 217.263 27.9627 216.162 27.496C215.079 27.0293 214.22 26.3573 213.586 25.48C212.951 24.6027 212.624 23.5667 212.606 22.372H216.806C216.862 23.1747 217.142 23.8093 217.646 24.276C218.168 24.7427 218.878 24.976 219.774 24.976C220.688 24.976 221.407 24.7613 221.93 24.332C222.452 23.884 222.714 23.3053 222.714 22.596C222.714 22.0173 222.536 21.5413 222.182 21.168C221.827 20.7947 221.379 20.5053 220.838 20.3C220.315 20.076 219.587 19.8333 218.654 19.572C217.384 19.1987 216.348 18.8347 215.546 18.48C214.762 18.1067 214.08 17.556 213.502 16.828C212.942 16.0813 212.662 15.092 212.662 13.86C212.662 12.7027 212.951 11.6947 213.53 10.836C214.108 9.97733 214.92 9.324 215.966 8.876C217.011 8.40933 218.206 8.176 219.55 8.176C221.566 8.176 223.199 8.67067 224.45 9.66C225.719 10.6307 226.419 11.9933 226.55 13.748H222.238C222.2 13.076 221.911 12.5253 221.37 12.096C220.847 11.648 220.147 11.424 219.27 11.424C218.504 11.424 217.888 11.62 217.422 12.012C216.974 12.404 216.75 12.9733 216.75 13.72C216.75 14.2427 216.918 14.6813 217.254 15.036C217.608 15.372 218.038 15.652 218.542 15.876C219.064 16.0813 219.792 16.324 220.726 16.604C221.995 16.9773 223.031 17.3507 223.834 17.724C224.636 18.0973 225.327 18.6573 225.906 19.404C226.484 20.1507 226.774 21.1307 226.774 22.344C226.774 23.3893 226.503 24.36 225.962 25.256C225.42 26.152 224.627 26.8707 223.582 27.412C222.536 27.9347 221.295 28.196 219.858 28.196ZM244.592 19.908C244.592 20.468 244.555 20.972 244.48 21.42H233.14C233.234 22.54 233.626 23.4173 234.316 24.052C235.007 24.6867 235.856 25.004 236.864 25.004C238.32 25.004 239.356 24.3787 239.972 23.128H244.2C243.752 24.6213 242.894 25.8533 241.624 26.824C240.355 27.776 238.796 28.252 236.948 28.252C235.455 28.252 234.111 27.9253 232.916 27.272C231.74 26.6 230.816 25.6573 230.144 24.444C229.491 23.2307 229.164 21.8307 229.164 20.244C229.164 18.6387 229.491 17.2293 230.144 16.016C230.798 14.8027 231.712 13.8693 232.888 13.216C234.064 12.5627 235.418 12.236 236.948 12.236C238.423 12.236 239.739 12.5533 240.896 13.188C242.072 13.8227 242.978 14.728 243.612 15.904C244.266 17.0613 244.592 18.396 244.592 19.908ZM240.532 18.788C240.514 17.78 240.15 16.9773 239.44 16.38C238.731 15.764 237.863 15.456 236.836 15.456C235.866 15.456 235.044 15.7547 234.372 16.352C233.719 16.9307 233.318 17.7427 233.168 18.788H240.532ZM252.017 15.708V23.212C252.017 23.7347 252.139 24.1173 252.381 24.36C252.643 24.584 253.072 24.696 253.669 24.696H255.489V28H253.025C249.721 28 248.069 26.3947 248.069 23.184V15.708H246.221V12.488H248.069V8.652H252.017V12.488H255.489V15.708H252.017ZM263.377 8.12L262.929 21.644H259.625L259.149 8.12H263.377ZM261.361 28.196C260.652 28.196 260.064 27.9813 259.597 27.552C259.149 27.104 258.925 26.5533 258.925 25.9C258.925 25.2467 259.149 24.7053 259.597 24.276C260.064 23.828 260.652 23.604 261.361 23.604C262.052 23.604 262.621 23.828 263.069 24.276C263.517 24.7053 263.741 25.2467 263.741 25.9C263.741 26.5533 263.517 27.104 263.069 27.552C262.621 27.9813 262.052 28.196 261.361 28.196Z" fill="#0F0F0F"/>
<path d="M75.6007 69.098C74.9567 69.098 74.3874 68.986 73.8927 68.762C73.4074 68.538 73.0247 68.2253 72.7447 67.824C72.4647 67.4227 72.3154 66.9747 72.2967 66.48H73.3327C73.3794 66.956 73.5894 67.376 73.9627 67.74C74.336 68.0947 74.882 68.272 75.6007 68.272C76.2634 68.272 76.786 68.104 77.1687 67.768C77.5607 67.4227 77.7567 66.9887 77.7567 66.466C77.7567 66.046 77.6494 65.71 77.4347 65.458C77.22 65.1967 76.954 65.0053 76.6367 64.884C76.3194 64.7533 75.8807 64.6133 75.3207 64.464C74.6674 64.2867 74.1494 64.114 73.7667 63.946C73.384 63.778 73.0574 63.5167 72.7867 63.162C72.516 62.8073 72.3807 62.3267 72.3807 61.72C72.3807 61.216 72.5114 60.768 72.7727 60.376C73.034 59.9747 73.4027 59.662 73.8787 59.438C74.3547 59.214 74.9007 59.102 75.5167 59.102C76.422 59.102 77.15 59.326 77.7007 59.774C78.2607 60.2127 78.5827 60.782 78.6667 61.482H77.6027C77.5374 61.0807 77.318 60.726 76.9447 60.418C76.5714 60.1007 76.0674 59.942 75.4327 59.942C74.8447 59.942 74.3547 60.1007 73.9627 60.418C73.5707 60.726 73.3747 61.1507 73.3747 61.692C73.3747 62.1027 73.482 62.434 73.6967 62.686C73.9114 62.938 74.1774 63.1293 74.4947 63.26C74.8214 63.3907 75.26 63.5307 75.8107 63.68C76.4454 63.8573 76.9587 64.0347 77.3507 64.212C77.7427 64.38 78.074 64.6413 78.3447 64.996C78.6154 65.3507 78.7507 65.8267 78.7507 66.424C78.7507 66.8813 78.6294 67.3153 78.3867 67.726C78.144 68.1367 77.7847 68.468 77.3087 68.72C76.8327 68.972 76.2634 69.098 75.6007 69.098ZM81.9184 62.182V66.928C81.9184 67.3947 82.0071 67.7167 82.1844 67.894C82.3617 68.0713 82.6744 68.16 83.1224 68.16H84.0184V69H82.9684C82.2777 69 81.7644 68.8413 81.4284 68.524C81.0924 68.1973 80.9244 67.6653 80.9244 66.928V62.182H79.8604V61.356H80.9244V59.438H81.9184V61.356H84.0184V62.182H81.9184ZM85.1866 65.164C85.1866 64.38 85.3406 63.694 85.6486 63.106C85.966 62.5087 86.4 62.0513 86.9506 61.734C87.5106 61.4073 88.1406 61.244 88.8406 61.244C89.5686 61.244 90.194 61.412 90.7166 61.748C91.2486 62.084 91.6313 62.5133 91.8646 63.036V61.356H92.8446V69H91.8646V67.306C91.622 67.8287 91.2346 68.2627 90.7026 68.608C90.18 68.944 89.5546 69.112 88.8266 69.112C88.136 69.112 87.5106 68.9487 86.9506 68.622C86.4 68.2953 85.966 67.8333 85.6486 67.236C85.3406 66.6387 85.1866 65.948 85.1866 65.164ZM91.8646 65.178C91.8646 64.562 91.7386 64.0207 91.4866 63.554C91.2346 63.0873 90.8893 62.728 90.4506 62.476C90.0213 62.224 89.5453 62.098 89.0226 62.098C88.4813 62.098 87.996 62.2193 87.5666 62.462C87.1373 62.7047 86.7966 63.0593 86.5446 63.526C86.302 63.9833 86.1806 64.5293 86.1806 65.164C86.1806 65.7893 86.302 66.34 86.5446 66.816C86.7966 67.2827 87.1373 67.642 87.5666 67.894C87.996 68.1367 88.4813 68.258 89.0226 68.258C89.5453 68.258 90.0213 68.132 90.4506 67.88C90.8893 67.628 91.2346 67.2687 91.4866 66.802C91.7386 66.3353 91.8646 65.794 91.8646 65.178ZM101.382 61.356L96.8459 72.598H95.8239L97.3079 68.958L94.1719 61.356H95.2499L97.8539 67.88L100.374 61.356H101.382ZM107.043 59.914C106.847 59.914 106.679 59.844 106.539 59.704C106.399 59.564 106.329 59.3913 106.329 59.186C106.329 58.9807 106.399 58.8127 106.539 58.682C106.679 58.542 106.847 58.472 107.043 58.472C107.239 58.472 107.407 58.542 107.547 58.682C107.687 58.8127 107.757 58.9807 107.757 59.186C107.757 59.3913 107.687 59.564 107.547 59.704C107.407 59.844 107.239 59.914 107.043 59.914ZM107.533 61.356V69H106.553V61.356H107.533ZM113.336 61.216C114.251 61.216 114.997 61.5007 115.576 62.07C116.155 62.63 116.444 63.4467 116.444 64.52V69H115.478V64.632C115.478 63.8013 115.268 63.1667 114.848 62.728C114.437 62.2893 113.873 62.07 113.154 62.07C112.417 62.07 111.829 62.3033 111.39 62.77C110.951 63.2367 110.732 63.9227 110.732 64.828V69H109.752V61.356H110.732V62.658C110.975 62.1913 111.325 61.8367 111.782 61.594C112.239 61.342 112.757 61.216 113.336 61.216ZM121.621 62.182H119.843V69H118.863V62.182H117.799V61.356H118.863V60.824C118.863 59.9933 119.073 59.382 119.493 58.99C119.923 58.598 120.613 58.402 121.565 58.402V59.242C120.931 59.242 120.483 59.3633 120.221 59.606C119.969 59.8487 119.843 60.2547 119.843 60.824V61.356H121.621V62.182ZM126.51 69.112C125.791 69.112 125.143 68.9533 124.564 68.636C123.995 68.3093 123.542 67.852 123.206 67.264C122.879 66.6667 122.716 65.9713 122.716 65.178C122.716 64.3847 122.884 63.694 123.22 63.106C123.556 62.5087 124.013 62.0513 124.592 61.734C125.171 61.4073 125.819 61.244 126.538 61.244C127.257 61.244 127.905 61.4073 128.484 61.734C129.072 62.0513 129.529 62.5087 129.856 63.106C130.192 63.694 130.36 64.3847 130.36 65.178C130.36 65.962 130.192 66.6527 129.856 67.25C129.52 67.8473 129.058 68.3093 128.47 68.636C127.882 68.9533 127.229 69.112 126.51 69.112ZM126.51 68.258C127.014 68.258 127.481 68.146 127.91 67.922C128.339 67.6887 128.685 67.3433 128.946 66.886C129.217 66.4193 129.352 65.85 129.352 65.178C129.352 64.506 129.221 63.9413 128.96 63.484C128.699 63.0173 128.353 62.672 127.924 62.448C127.495 62.2147 127.028 62.098 126.524 62.098C126.02 62.098 125.553 62.2147 125.124 62.448C124.695 62.672 124.349 63.0173 124.088 63.484C123.836 63.9413 123.71 64.506 123.71 65.178C123.71 65.85 123.836 66.4193 124.088 66.886C124.349 67.3433 124.69 67.6887 125.11 67.922C125.539 68.146 126.006 68.258 126.51 68.258ZM133.126 62.714C133.341 62.238 133.668 61.8693 134.106 61.608C134.554 61.3467 135.1 61.216 135.744 61.216V62.238H135.478C134.769 62.238 134.2 62.4293 133.77 62.812C133.341 63.1947 133.126 63.834 133.126 64.73V69H132.146V61.356H133.126V62.714ZM146.319 61.216C147.215 61.216 147.943 61.5007 148.503 62.07C149.072 62.63 149.357 63.4467 149.357 64.52V69H148.391V64.632C148.391 63.8013 148.19 63.1667 147.789 62.728C147.387 62.2893 146.841 62.07 146.151 62.07C145.432 62.07 144.858 62.308 144.429 62.784C143.999 63.26 143.785 63.9507 143.785 64.856V69H142.819V64.632C142.819 63.8013 142.618 63.1667 142.217 62.728C141.815 62.2893 141.265 62.07 140.565 62.07C139.846 62.07 139.272 62.308 138.843 62.784C138.413 63.26 138.199 63.9507 138.199 64.856V69H137.219V61.356H138.199V62.672C138.441 62.196 138.787 61.8367 139.235 61.594C139.683 61.342 140.182 61.216 140.733 61.216C141.395 61.216 141.974 61.3747 142.469 61.692C142.973 62.0093 143.337 62.476 143.561 63.092C143.766 62.4853 144.116 62.0233 144.611 61.706C145.115 61.3793 145.684 61.216 146.319 61.216ZM158.449 64.786C158.449 65.122 158.44 65.3787 158.421 65.556H152.079C152.107 66.1347 152.247 66.6293 152.499 67.04C152.751 67.4507 153.082 67.7633 153.493 67.978C153.904 68.1833 154.352 68.286 154.837 68.286C155.472 68.286 156.004 68.132 156.433 67.824C156.872 67.516 157.161 67.1007 157.301 66.578H158.337C158.15 67.3247 157.749 67.936 157.133 68.412C156.526 68.8787 155.761 69.112 154.837 69.112C154.118 69.112 153.474 68.9533 152.905 68.636C152.336 68.3093 151.888 67.852 151.561 67.264C151.244 66.6667 151.085 65.9713 151.085 65.178C151.085 64.3847 151.244 63.6893 151.561 63.092C151.878 62.4947 152.322 62.0373 152.891 61.72C153.46 61.4027 154.109 61.244 154.837 61.244C155.565 61.244 156.2 61.4027 156.741 61.72C157.292 62.0373 157.712 62.4667 158.001 63.008C158.3 63.54 158.449 64.1327 158.449 64.786ZM157.455 64.758C157.464 64.1887 157.348 63.7033 157.105 63.302C156.872 62.9007 156.55 62.5973 156.139 62.392C155.728 62.1867 155.28 62.084 154.795 62.084C154.067 62.084 153.446 62.3173 152.933 62.784C152.42 63.2507 152.135 63.9087 152.079 64.758H157.455ZM159.794 65.164C159.794 64.38 159.953 63.694 160.27 63.106C160.587 62.5087 161.021 62.0513 161.572 61.734C162.132 61.4073 162.762 61.244 163.462 61.244C164.134 61.244 164.741 61.4073 165.282 61.734C165.823 62.0607 166.22 62.4853 166.472 63.008V58.64H167.452V69H166.472V67.292C166.239 67.824 165.856 68.2627 165.324 68.608C164.792 68.944 164.167 69.112 163.448 69.112C162.748 69.112 162.118 68.9487 161.558 68.622C161.007 68.2953 160.573 67.8333 160.256 67.236C159.948 66.6387 159.794 65.948 159.794 65.164ZM166.472 65.178C166.472 64.562 166.346 64.0207 166.094 63.554C165.842 63.0873 165.497 62.728 165.058 62.476C164.629 62.224 164.153 62.098 163.63 62.098C163.089 62.098 162.603 62.2193 162.174 62.462C161.745 62.7047 161.404 63.0593 161.152 63.526C160.909 63.9833 160.788 64.5293 160.788 65.164C160.788 65.7893 160.909 66.34 161.152 66.816C161.404 67.2827 161.745 67.642 162.174 67.894C162.603 68.1367 163.089 68.258 163.63 68.258C164.153 68.258 164.629 68.132 165.058 67.88C165.497 67.628 165.842 67.2687 166.094 66.802C166.346 66.3353 166.472 65.794 166.472 65.178ZM169.857 69.07C169.652 69.07 169.479 69 169.339 68.86C169.209 68.72 169.143 68.5473 169.143 68.342C169.143 68.1367 169.209 67.9687 169.339 67.838C169.479 67.698 169.652 67.628 169.857 67.628C170.053 67.628 170.217 67.698 170.347 67.838C170.487 67.9687 170.557 68.1367 170.557 68.342C170.557 68.5473 170.487 68.72 170.347 68.86C170.217 69 170.053 69.07 169.857 69.07ZM179.042 69.098C178.398 69.098 177.829 68.986 177.334 68.762C176.849 68.538 176.466 68.2253 176.186 67.824C175.906 67.4227 175.757 66.9747 175.738 66.48H176.774C176.821 66.956 177.031 67.376 177.404 67.74C177.777 68.0947 178.323 68.272 179.042 68.272C179.705 68.272 180.227 68.104 180.61 67.768C181.002 67.4227 181.198 66.9887 181.198 66.466C181.198 66.046 181.091 65.71 180.876 65.458C180.661 65.1967 180.395 65.0053 180.078 64.884C179.761 64.7533 179.322 64.6133 178.762 64.464C178.109 64.2867 177.591 64.114 177.208 63.946C176.825 63.778 176.499 63.5167 176.228 63.162C175.957 62.8073 175.822 62.3267 175.822 61.72C175.822 61.216 175.953 60.768 176.214 60.376C176.475 59.9747 176.844 59.662 177.32 59.438C177.796 59.214 178.342 59.102 178.958 59.102C179.863 59.102 180.591 59.326 181.142 59.774C181.702 60.2127 182.024 60.782 182.108 61.482H181.044C180.979 61.0807 180.759 60.726 180.386 60.418C180.013 60.1007 179.509 59.942 178.874 59.942C178.286 59.942 177.796 60.1007 177.404 60.418C177.012 60.726 176.816 61.1507 176.816 61.692C176.816 62.1027 176.923 62.434 177.138 62.686C177.353 62.938 177.619 63.1293 177.936 63.26C178.263 63.3907 178.701 63.5307 179.252 63.68C179.887 63.8573 180.4 64.0347 180.792 64.212C181.184 64.38 181.515 64.6413 181.786 64.996C182.057 65.3507 182.192 65.8267 182.192 66.424C182.192 66.8813 182.071 67.3153 181.828 67.726C181.585 68.1367 181.226 68.468 180.75 68.72C180.274 68.972 179.705 69.098 179.042 69.098ZM185.36 62.182V66.928C185.36 67.3947 185.448 67.7167 185.626 67.894C185.803 68.0713 186.116 68.16 186.564 68.16H187.46V69H186.41C185.719 69 185.206 68.8413 184.87 68.524C184.534 68.1973 184.366 67.6653 184.366 66.928V62.182H183.302V61.356H184.366V59.438H185.36V61.356H187.46V62.182H185.36ZM188.628 65.164C188.628 64.38 188.782 63.694 189.09 63.106C189.407 62.5087 189.841 62.0513 190.392 61.734C190.952 61.4073 191.582 61.244 192.282 61.244C193.01 61.244 193.635 61.412 194.158 61.748C194.69 62.084 195.073 62.5133 195.306 63.036V61.356H196.286V69H195.306V67.306C195.063 67.8287 194.676 68.2627 194.144 68.608C193.621 68.944 192.996 69.112 192.268 69.112C191.577 69.112 190.952 68.9487 190.392 68.622C189.841 68.2953 189.407 67.8333 189.09 67.236C188.782 66.6387 188.628 65.948 188.628 65.164ZM195.306 65.178C195.306 64.562 195.18 64.0207 194.928 63.554C194.676 63.0873 194.331 62.728 193.892 62.476C193.463 62.224 192.987 62.098 192.464 62.098C191.923 62.098 191.437 62.2193 191.008 62.462C190.579 62.7047 190.238 63.0593 189.986 63.526C189.743 63.9833 189.622 64.5293 189.622 65.164C189.622 65.7893 189.743 66.34 189.986 66.816C190.238 67.2827 190.579 67.642 191.008 67.894C191.437 68.1367 191.923 68.258 192.464 68.258C192.987 68.258 193.463 68.132 193.892 67.88C194.331 67.628 194.676 67.2687 194.928 66.802C195.18 66.3353 195.306 65.794 195.306 65.178ZM204.823 61.356L200.287 72.598H199.265L200.749 68.958L197.613 61.356H198.691L201.295 67.88L203.815 61.356H204.823ZM210.484 59.914C210.288 59.914 210.12 59.844 209.98 59.704C209.84 59.564 209.77 59.3913 209.77 59.186C209.77 58.9807 209.84 58.8127 209.98 58.682C210.12 58.542 210.288 58.472 210.484 58.472C210.68 58.472 210.848 58.542 210.988 58.682C211.128 58.8127 211.198 58.9807 211.198 59.186C211.198 59.3913 211.128 59.564 210.988 59.704C210.848 59.844 210.68 59.914 210.484 59.914ZM210.974 61.356V69H209.994V61.356H210.974ZM216.777 61.216C217.692 61.216 218.439 61.5007 219.017 62.07C219.596 62.63 219.885 63.4467 219.885 64.52V69H218.919V64.632C218.919 63.8013 218.709 63.1667 218.289 62.728C217.879 62.2893 217.314 62.07 216.595 62.07C215.858 62.07 215.27 62.3033 214.831 62.77C214.393 63.2367 214.173 63.9227 214.173 64.828V69H213.193V61.356H214.173V62.658C214.416 62.1913 214.766 61.8367 215.223 61.594C215.681 61.342 216.199 61.216 216.777 61.216ZM224.685 69.112C223.807 69.112 223.089 68.9113 222.529 68.51C221.978 68.0993 221.67 67.544 221.605 66.844H222.613C222.659 67.2733 222.86 67.6233 223.215 67.894C223.579 68.1553 224.064 68.286 224.671 68.286C225.203 68.286 225.618 68.16 225.917 67.908C226.225 67.656 226.379 67.3433 226.379 66.97C226.379 66.7087 226.295 66.494 226.127 66.326C225.959 66.158 225.744 66.0273 225.483 65.934C225.231 65.8313 224.885 65.724 224.447 65.612C223.877 65.4627 223.415 65.3133 223.061 65.164C222.706 65.0147 222.403 64.7953 222.151 64.506C221.908 64.2073 221.787 63.8107 221.787 63.316C221.787 62.9427 221.899 62.5973 222.123 62.28C222.347 61.9627 222.664 61.7107 223.075 61.524C223.485 61.3373 223.952 61.244 224.475 61.244C225.296 61.244 225.959 61.454 226.463 61.874C226.967 62.2847 227.237 62.854 227.275 63.582H226.295C226.267 63.134 226.089 62.7747 225.763 62.504C225.445 62.224 225.007 62.084 224.447 62.084C223.952 62.084 223.551 62.2007 223.243 62.434C222.935 62.6673 222.781 62.9567 222.781 63.302C222.781 63.6007 222.869 63.848 223.047 64.044C223.233 64.2307 223.462 64.38 223.733 64.492C224.003 64.5947 224.367 64.7113 224.825 64.842C225.375 64.9913 225.814 65.136 226.141 65.276C226.467 65.416 226.747 65.6213 226.981 65.892C227.214 66.1627 227.335 66.522 227.345 66.97C227.345 67.3807 227.233 67.7493 227.009 68.076C226.785 68.3933 226.472 68.6453 226.071 68.832C225.669 69.0187 225.207 69.112 224.685 69.112ZM230.155 63.036C230.398 62.5227 230.781 62.098 231.303 61.762C231.835 61.4167 232.465 61.244 233.193 61.244C233.884 61.244 234.505 61.4073 235.055 61.734C235.615 62.0513 236.049 62.5087 236.357 63.106C236.675 63.694 236.833 64.38 236.833 65.164C236.833 65.948 236.675 66.6387 236.357 67.236C236.049 67.8333 235.615 68.2953 235.055 68.622C234.505 68.9487 233.884 69.112 233.193 69.112C232.475 69.112 231.849 68.944 231.317 68.608C230.785 68.2627 230.398 67.8333 230.155 67.32V72.612H229.189V61.356H230.155V63.036ZM235.839 65.164C235.839 64.5293 235.713 63.9833 235.461 63.526C235.219 63.0593 234.883 62.7047 234.453 62.462C234.024 62.2193 233.539 62.098 232.997 62.098C232.475 62.098 231.994 62.224 231.555 62.476C231.126 62.728 230.785 63.0873 230.533 63.554C230.281 64.0207 230.155 64.562 230.155 65.178C230.155 65.794 230.281 66.3353 230.533 66.802C230.785 67.2687 231.126 67.628 231.555 67.88C231.994 68.132 232.475 68.258 232.997 68.258C233.539 68.258 234.024 68.1367 234.453 67.894C234.883 67.642 235.219 67.2827 235.461 66.816C235.713 66.34 235.839 65.7893 235.839 65.164ZM239.127 59.914C238.931 59.914 238.763 59.844 238.623 59.704C238.483 59.564 238.413 59.3913 238.413 59.186C238.413 58.9807 238.483 58.8127 238.623 58.682C238.763 58.542 238.931 58.472 239.127 58.472C239.323 58.472 239.491 58.542 239.631 58.682C239.771 58.8127 239.841 58.9807 239.841 59.186C239.841 59.3913 239.771 59.564 239.631 59.704C239.491 59.844 239.323 59.914 239.127 59.914ZM239.617 61.356V69H238.637V61.356H239.617ZM242.816 62.714C243.03 62.238 243.357 61.8693 243.796 61.608C244.244 61.3467 244.79 61.216 245.434 61.216V62.238H245.168C244.458 62.238 243.889 62.4293 243.46 62.812C243.03 63.1947 242.816 63.834 242.816 64.73V69H241.836V61.356H242.816V62.714ZM253.824 64.786C253.824 65.122 253.815 65.3787 253.796 65.556H247.454C247.482 66.1347 247.622 66.6293 247.874 67.04C248.126 67.4507 248.457 67.7633 248.868 67.978C249.279 68.1833 249.727 68.286 250.212 68.286C250.847 68.286 251.379 68.132 251.808 67.824C252.247 67.516 252.536 67.1007 252.676 66.578H253.712C253.525 67.3247 253.124 67.936 252.508 68.412C251.901 68.8787 251.136 69.112 250.212 69.112C249.493 69.112 248.849 68.9533 248.28 68.636C247.711 68.3093 247.263 67.852 246.936 67.264C246.619 66.6667 246.46 65.9713 246.46 65.178C246.46 64.3847 246.619 63.6893 246.936 63.092C247.253 62.4947 247.697 62.0373 248.266 61.72C248.835 61.4027 249.484 61.244 250.212 61.244C250.94 61.244 251.575 61.4027 252.116 61.72C252.667 62.0373 253.087 62.4667 253.376 63.008C253.675 63.54 253.824 64.1327 253.824 64.786ZM252.83 64.758C252.839 64.1887 252.723 63.7033 252.48 63.302C252.247 62.9007 251.925 62.5973 251.514 62.392C251.103 62.1867 250.655 62.084 250.17 62.084C249.442 62.084 248.821 62.3173 248.308 62.784C247.795 63.2507 247.51 63.9087 247.454 64.758H252.83ZM255.169 65.164C255.169 64.38 255.328 63.694 255.645 63.106C255.962 62.5087 256.396 62.0513 256.947 61.734C257.507 61.4073 258.137 61.244 258.837 61.244C259.509 61.244 260.116 61.4073 260.657 61.734C261.198 62.0607 261.595 62.4853 261.847 63.008V58.64H262.827V69H261.847V67.292C261.614 67.824 261.231 68.2627 260.699 68.608C260.167 68.944 259.542 69.112 258.823 69.112C258.123 69.112 257.493 68.9487 256.933 68.622C256.382 68.2953 255.948 67.8333 255.631 67.236C255.323 66.6387 255.169 65.948 255.169 65.164ZM261.847 65.178C261.847 64.562 261.721 64.0207 261.469 63.554C261.217 63.0873 260.872 62.728 260.433 62.476C260.004 62.224 259.528 62.098 259.005 62.098C258.464 62.098 257.978 62.2193 257.549 62.462C257.12 62.7047 256.779 63.0593 256.527 63.526C256.284 63.9833 256.163 64.5293 256.163 65.164C256.163 65.7893 256.284 66.34 256.527 66.816C256.779 67.2827 257.12 67.642 257.549 67.894C257.978 68.1367 258.464 68.258 259.005 68.258C259.528 68.258 260.004 68.132 260.433 67.88C260.872 67.628 261.217 67.2687 261.469 66.802C261.721 66.3353 261.847 65.794 261.847 65.178ZM265.232 69.07C265.027 69.07 264.854 69 264.714 68.86C264.584 68.72 264.518 68.5473 264.518 68.342C264.518 68.1367 264.584 67.9687 264.714 67.838C264.854 67.698 265.027 67.628 265.232 67.628C265.428 67.628 265.592 67.698 265.722 67.838C265.862 67.9687 265.932 68.1367 265.932 68.342C265.932 68.5473 265.862 68.72 265.722 68.86C265.592 69 265.428 69.07 265.232 69.07Z" fill="#888888"/>
</svg>
