<svg width="95" height="37" viewBox="0 0 95 37" fill="none" xmlns="http://www.w3.org/2000/svg">
<circle cx="18.5" cy="18.5" r="10.799" stroke="#888888" stroke-width="0.3"/>
<circle cx="18.5001" cy="18.4999" r="14.5745" stroke="#888888" stroke-width="0.3"/>
<circle cx="18.5" cy="18.5" r="18.35" stroke="#888888" stroke-width="0.3"/>
<path d="M18.0255 20.8719C17.2349 20.8719 16.5629 20.5952 16.0095 20.0418C15.4561 19.4884 15.1794 18.8164 15.1794 18.0258V12.3335C15.1794 11.5429 15.4561 10.8709 16.0095 10.3174C16.5629 9.76401 17.2349 9.4873 18.0255 9.4873C18.8161 9.4873 19.4882 9.76401 20.0416 10.3174C20.595 10.8709 20.8717 11.5429 20.8717 12.3335V18.0258C20.8717 18.8164 20.595 19.4884 20.0416 20.0418C19.4882 20.5952 18.8161 20.8719 18.0255 20.8719ZM17.0768 27.5129V24.5956C15.4324 24.3743 14.0726 23.639 12.9973 22.3899C11.9221 21.1407 11.3845 19.686 11.3845 18.0258H13.282C13.282 19.3382 13.7445 20.4569 14.6695 21.3819C15.5945 22.3069 16.7132 22.7694 18.0255 22.7694C19.3379 22.7694 20.4566 22.3069 21.3816 21.3819C22.3066 20.4569 22.7691 19.3382 22.7691 18.0258H24.6666C24.6666 19.686 24.129 21.1407 23.0538 22.3899C21.9785 23.639 20.6187 24.3743 18.9743 24.5956V27.5129H17.0768Z" fill="#0F0F0F"/>
<path d="M23.054 6.25819C23.1149 6.07627 23.3723 6.07627 23.4332 6.25819L24.0455 8.08494C24.0654 8.14441 24.1121 8.19109 24.1716 8.21102L25.9983 8.82326C26.1802 8.88424 26.1802 9.14156 25.9983 9.20253L24.1716 9.81477C24.1121 9.8347 24.0654 9.88138 24.0455 9.94085L23.4332 11.7676C23.3723 11.9495 23.1149 11.9495 23.054 11.7676L22.4417 9.94085C22.4218 9.88138 22.3751 9.8347 22.3157 9.81477L20.4889 9.20253C20.307 9.14156 20.307 8.88424 20.4889 8.82326L22.3157 8.21102C22.3751 8.19109 22.4218 8.14441 22.4417 8.08494L23.054 6.25819Z" stroke="#0F0F0F" stroke-width="0.5"/>
<path d="M52.0984 17.3708C52.0984 16.2721 52.0451 15.5361 51.9384 15.1628C51.8317 14.7788 51.6237 14.5868 51.3144 14.5868C51.0051 14.5868 50.7277 14.7895 50.4824 15.1948C50.2371 15.5895 50.1144 16.1228 50.1144 16.7948V19.7228C50.1144 20.1815 50.2051 20.5708 50.3864 20.8908C50.5677 21.2108 50.8344 21.3708 51.1864 21.3708C51.5384 21.3708 51.7784 21.1361 51.9064 20.6668C52.0344 20.1975 52.0984 19.3761 52.0984 18.2028V17.3708ZM50.0824 14.0588V15.3228C50.4984 14.3735 51.2344 13.8988 52.2904 13.8988C53.2077 13.8988 53.9171 14.2295 54.4184 14.8908C54.9304 15.5521 55.1864 16.5548 55.1864 17.8988C55.1864 19.2428 54.9091 20.2348 54.3544 20.8748C53.8104 21.5148 52.9891 21.8348 51.8904 21.8348C51.3784 21.8348 50.9944 21.7708 50.7384 21.6428C50.4824 21.5148 50.2744 21.3175 50.1144 21.0508V25.1948H52.1784V25.4828H46.2584V25.1948H47.1384V14.3468H46.2904V14.0588H50.0824ZM61.1526 18.5228V17.1628C61.1526 16.1281 61.094 15.3761 60.9766 14.9068C60.87 14.4268 60.614 14.1868 60.2086 14.1868C59.974 14.1868 59.782 14.2561 59.6326 14.3948C59.494 14.5228 59.3926 14.7415 59.3286 15.0508C59.2326 15.5308 59.1846 16.2615 59.1846 17.2428V18.4908C59.1846 19.6535 59.2166 20.3521 59.2806 20.5868C59.3553 20.8215 59.43 21.0135 59.5046 21.1628C59.622 21.4188 59.8513 21.5468 60.1926 21.5468C60.6086 21.5468 60.8806 21.3068 61.0086 20.8268C61.1046 20.4855 61.1526 19.7175 61.1526 18.5228ZM60.1606 21.8348C58.8273 21.8348 57.8193 21.4935 57.1366 20.8108C56.454 20.1281 56.1126 19.1521 56.1126 17.8828C56.1126 16.6028 56.4753 15.6215 57.2006 14.9388C57.9366 14.2455 58.966 13.8988 60.2886 13.8988C61.6113 13.8988 62.598 14.2188 63.2486 14.8588C63.8993 15.4881 64.2246 16.4535 64.2246 17.7548C64.2246 20.4748 62.87 21.8348 60.1606 21.8348ZM68.2401 18.3628C68.2401 19.4828 68.2988 20.2295 68.4161 20.6028C68.5335 20.9655 68.7468 21.1468 69.0561 21.1468C69.3761 21.1468 69.6481 21.0081 69.8721 20.7308C70.1068 20.4535 70.2241 20.0428 70.2241 19.4988V16.0108C70.2241 15.5521 70.1335 15.1628 69.9521 14.8428C69.7708 14.5228 69.5041 14.3628 69.1521 14.3628C68.8001 14.3628 68.5601 14.5975 68.4321 15.0668C68.3041 15.5361 68.2401 16.3575 68.2401 17.5308V18.3628ZM70.4321 21.6748L70.2561 20.5548C69.8935 21.4081 69.1575 21.8348 68.0481 21.8348C67.1308 21.8348 66.4161 21.5041 65.9041 20.8428C65.4028 20.1815 65.1521 19.1948 65.1521 17.8828C65.1521 15.2268 66.2081 13.8988 68.3201 13.8988C69.2588 13.8988 69.8775 14.1601 70.1761 14.6828V9.9628H69.2001V9.6748H73.2001V21.3868H73.9841V21.6748H70.4321ZM76.6544 21.8348C76.1957 21.8348 75.8491 21.7015 75.6144 21.4348C75.3904 21.1575 75.2784 20.8268 75.2784 20.4428C75.2784 20.0481 75.3957 19.7175 75.6304 19.4508C75.8757 19.1841 76.2171 19.0508 76.6544 19.0508C77.0917 19.0508 77.4384 19.1628 77.6944 19.3868C77.9504 19.6108 78.0784 19.9468 78.0784 20.3948C78.0784 20.8428 77.9557 21.1948 77.7104 21.4508C77.4757 21.7068 77.1237 21.8348 76.6544 21.8348ZM83.1128 17.9148H83.5768V16.6828C83.5768 15.6695 83.5181 14.9921 83.4008 14.6508C83.2941 14.2988 83.0808 14.1228 82.7608 14.1228C82.5688 14.1228 82.3928 14.1761 82.2328 14.2828C82.0834 14.3788 82.0088 14.5175 82.0088 14.6988C82.0088 14.8695 82.0408 15.0455 82.1048 15.2268H82.5048C82.5901 15.4508 82.6328 15.7228 82.6328 16.0428C82.6328 16.3521 82.4994 16.6241 82.2328 16.8588C81.9661 17.0828 81.6301 17.1948 81.2248 17.1948C80.3074 17.1948 79.8488 16.7521 79.8488 15.8668C79.8488 14.5548 80.9634 13.8988 83.1928 13.8988C84.4621 13.8988 85.3368 14.1175 85.8168 14.5548C86.3074 14.9815 86.5528 15.7708 86.5528 16.9228V20.1708C86.5528 20.7255 86.7074 21.0028 87.0168 21.0028C87.3794 21.0028 87.5928 20.4535 87.6568 19.3548L87.8968 19.3708C87.8541 20.3095 87.6781 20.9548 87.3688 21.3068C87.0594 21.6588 86.5528 21.8348 85.8488 21.8348C84.5688 21.8348 83.8328 21.4401 83.6408 20.6508C83.5021 21.0561 83.2941 21.3548 83.0168 21.5468C82.7394 21.7388 82.3341 21.8348 81.8008 21.8348C80.2221 21.8348 79.4328 21.1895 79.4328 19.8988C79.4328 19.1415 79.7314 18.6241 80.3288 18.3468C80.9368 18.0588 81.8648 17.9148 83.1128 17.9148ZM82.4728 19.8828C82.4728 20.4375 82.4994 20.7948 82.5528 20.9548C82.6168 21.1148 82.7288 21.1948 82.8888 21.1948C83.0594 21.1948 83.2141 21.0615 83.3528 20.7948C83.5021 20.5175 83.5768 20.1388 83.5768 19.6588V18.1708H83.4648C82.8034 18.1708 82.4728 18.6561 82.4728 19.6268V19.8828ZM90.726 12.9548C90.1607 12.9548 89.7553 12.8108 89.51 12.5228C89.2753 12.2348 89.158 11.8775 89.158 11.4508C89.158 11.0241 89.286 10.6721 89.542 10.3948C89.8087 10.1175 90.2087 9.9788 90.742 9.9788C91.2753 9.9788 91.6807 10.1068 91.958 10.3628C92.2353 10.6081 92.374 10.9655 92.374 11.4348C92.374 11.8935 92.2407 12.2615 91.974 12.5388C91.7073 12.8161 91.2913 12.9548 90.726 12.9548ZM88.31 14.0588H92.23V21.3868H93.126V21.6748H88.374V21.3868H89.254V14.3468H88.31V14.0588Z" fill="#0F0F0F"/>
</svg>
