<svg width="16" height="18" viewBox="0 0 16 18" fill="none" xmlns="http://www.w3.org/2000/svg">
<path d="M8.00747 14.5612L13.5955 9.00892C13.8582 8.74623 14.1868 8.60868 14.5813 8.59626C14.9758 8.58384 15.3159 8.72139 15.6015 9.00892C15.8642 9.2716 15.9955 9.60593 15.9955 10.0119C15.9955 10.4179 15.8642 10.7522 15.6015 11.0149L9.01046 17.6059C8.86717 17.7492 8.71195 17.851 8.54479 17.9111C8.37762 17.9713 8.19852 18.0009 8.00747 18C7.81643 17.999 7.63732 17.9694 7.47016 17.9111C7.30299 17.8529 7.14777 17.7511 7.00448 17.6059L0.413428 11.0149C0.150741 10.7522 0.0131891 10.4241 0.00077118 10.0305C-0.0116468 9.63698 0.125905 9.29644 0.413428 9.00892C0.676115 8.74623 1.01044 8.61489 1.41642 8.61489C1.82239 8.61489 2.15672 8.74623 2.4194 9.00892L8.00747 14.5612ZM8.00747 5.96414L13.5955 0.411888C13.8582 0.149201 14.1868 0.0121261 14.5813 0.000663435C14.9758 -0.0107993 15.3159 0.126276 15.6015 0.411888C15.8642 0.674575 15.9955 1.0089 15.9955 1.41487C15.9955 1.82085 15.8642 2.15517 15.6015 2.41786L9.01046 9.00892C8.86717 9.1522 8.71195 9.25393 8.54479 9.31411C8.37762 9.37429 8.19852 9.4039 8.00747 9.40295C7.81643 9.40199 7.63732 9.37238 7.47016 9.31411C7.30299 9.25584 7.14777 9.15411 7.00448 9.00892L0.413428 2.41786C0.150741 2.15517 0.0131891 1.82705 0.00077118 1.4335C-0.0116468 1.03995 0.125905 0.699411 0.413428 0.411888C0.676115 0.149201 1.01044 0.0178576 1.41642 0.0178576C1.82239 0.0178576 2.15672 0.149201 2.4194 0.411888L8.00747 5.96414Z" fill="#FFDDD1"/>
</svg>
