<svg width="55" height="55" viewBox="0 0 55 55" fill="none" xmlns="http://www.w3.org/2000/svg">
<g filter="url(#filter0_dd_139_839)">
<circle cx="27.5" cy="26.5" r="23.5" fill="#FFA9A3"/>
</g>
<path d="M38 27C38 21.48 33.52 17 28 17C22.48 17 18 21.48 18 27C18 31.84 21.44 35.87 26 36.8V30H24V27H26V24.5C26 22.57 27.57 21 29.5 21H32V24H30C29.45 24 29 24.45 29 25V27H32V30H29V36.95C34.05 36.45 38 32.19 38 27Z" fill="#FFFFF0"/>
<defs>
<filter id="filter0_dd_139_839" x="0" y="0" width="55" height="55" filterUnits="userSpaceOnUse" color-interpolation-filters="sRGB">
<feFlood flood-opacity="0" result="BackgroundImageFix"/>
<feColorMatrix in="SourceAlpha" type="matrix" values="0 0 0 0 0 0 0 0 0 0 0 0 0 0 0 0 0 0 127 0" result="hardAlpha"/>
<feMorphology radius="1" operator="dilate" in="SourceAlpha" result="effect1_dropShadow_139_839"/>
<feOffset dy="1"/>
<feGaussianBlur stdDeviation="1.5"/>
<feColorMatrix type="matrix" values="0 0 0 0 1 0 0 0 0 0.866667 0 0 0 0 0.819608 0 0 0 1 0"/>
<feBlend mode="normal" in2="BackgroundImageFix" result="effect1_dropShadow_139_839"/>
<feColorMatrix in="SourceAlpha" type="matrix" values="0 0 0 0 0 0 0 0 0 0 0 0 0 0 0 0 0 0 127 0" result="hardAlpha"/>
<feOffset dy="1"/>
<feGaussianBlur stdDeviation="1"/>
<feColorMatrix type="matrix" values="0 0 0 0 1 0 0 0 0 0.866667 0 0 0 0 0.819608 0 0 0 1 0"/>
<feBlend mode="normal" in2="effect1_dropShadow_139_839" result="effect2_dropShadow_139_839"/>
<feBlend mode="normal" in="SourceGraphic" in2="effect2_dropShadow_139_839" result="shape"/>
</filter>
</defs>
</svg>
