<svg width="31" height="31" viewBox="0 0 31 31" fill="none" xmlns="http://www.w3.org/2000/svg">
<circle cx="15.1026" cy="15.1026" r="8.78825" stroke="#FFDDD1" stroke-width="0.3"/>
<circle cx="15.1026" cy="15.1024" r="11.8704" stroke="#FFDDD1" stroke-width="0.3"/>
<circle cx="15.1026" cy="15.1026" r="14.9526" stroke="#FFDDD1" stroke-width="0.3"/>
<path d="M14.7153 17.039C14.0699 17.039 13.5213 16.8131 13.0695 16.3613C12.6177 15.9095 12.3918 15.3609 12.3918 14.7155V10.0686C12.3918 9.42318 12.6177 8.87458 13.0695 8.4228C13.5213 7.97101 14.0699 7.74512 14.7153 7.74512C15.3607 7.74512 15.9093 7.97101 16.3611 8.4228C16.8129 8.87458 17.0388 9.42318 17.0388 10.0686V14.7155C17.0388 15.3609 16.8129 15.9095 16.3611 16.3613C15.9093 16.8131 15.3607 17.039 14.7153 17.039ZM13.9408 22.4604V20.0789C12.5984 19.8982 11.4883 19.2979 10.6105 18.2782C9.73276 17.2584 9.29388 16.0709 9.29388 14.7155H10.8429C10.8429 15.7869 11.2204 16.7002 11.9756 17.4553C12.7307 18.2104 13.6439 18.588 14.7153 18.588C15.7867 18.588 16.6999 18.2104 17.4551 17.4553C18.2102 16.7002 18.5878 15.7869 18.5878 14.7155H20.1368C20.1368 16.0709 19.6979 17.2584 18.8201 18.2782C17.9424 19.2979 16.8323 19.8982 15.4898 20.0789V22.4604H13.9408Z" fill="#FFA9A3"/>
<path d="M18.7854 5.21278C18.8464 5.03086 19.1037 5.03086 19.1646 5.21278L19.6238 6.58281C19.6437 6.64228 19.6904 6.68895 19.7499 6.70889L21.1199 7.16806C21.3018 7.22903 21.3018 7.48635 21.1199 7.54732L19.7499 8.00649C19.6904 8.02642 19.6437 8.0731 19.6238 8.13257L19.1646 9.5026C19.1037 9.68452 18.8464 9.68452 18.7854 9.5026L18.3262 8.13257C18.3063 8.0731 18.2596 8.02642 18.2001 8.00649L16.8301 7.54732C16.6482 7.48635 16.6482 7.22903 16.8301 7.16806L18.2001 6.70889C18.2596 6.68895 18.3063 6.64228 18.3262 6.58281L18.7854 5.21278Z" stroke="#FFA9A3" stroke-width="0.5"/>
</svg>
