<svg width="305" height="107" viewBox="0 0 305 107" fill="none" xmlns="http://www.w3.org/2000/svg">
<rect x="0.5" y="0.5" width="304" height="106" rx="24.5" fill="#FFDDD1"/>
<rect x="0.5" y="0.5" width="304" height="106" rx="24.5" stroke="#FFA9A3"/>
<path d="M260.988 47.4388L255.4 52.9911C255.137 53.2538 254.809 53.3913 254.414 53.4037C254.02 53.4162 253.68 53.2786 253.394 52.9911C253.131 52.7284 253 52.3941 253 51.9881C253 51.5821 253.131 51.2478 253.394 50.9851L259.985 44.3941C260.128 44.2508 260.284 44.149 260.451 44.0889C260.618 44.0287 260.797 43.9991 260.988 44C261.179 44.001 261.358 44.0306 261.525 44.0889C261.693 44.1471 261.848 44.2489 261.991 44.3941L268.582 50.9851C268.845 51.2478 268.982 51.5759 268.995 51.9695C269.007 52.363 268.87 52.7036 268.582 52.9911C268.319 53.2538 267.985 53.3851 267.579 53.3851C267.173 53.3851 266.839 53.2538 266.576 52.9911L260.988 47.4388ZM260.988 56.0359L255.4 61.5881C255.137 61.8508 254.809 61.9879 254.414 61.9993C254.02 62.0108 253.68 61.8737 253.394 61.5881C253.131 61.3254 253 60.9911 253 60.5851C253 60.1792 253.131 59.8448 253.394 59.5821L259.985 52.9911C260.128 52.8478 260.284 52.7461 260.451 52.6859C260.618 52.6257 260.797 52.5961 260.988 52.5971C261.179 52.598 261.358 52.6276 261.525 52.6859C261.693 52.7442 261.848 52.8459 261.991 52.9911L268.582 59.5821C268.845 59.8448 268.982 60.1729 268.995 60.5665C269.007 60.9601 268.87 61.3006 268.582 61.5881C268.319 61.8508 267.985 61.9821 267.579 61.9821C267.173 61.9821 266.839 61.8508 266.576 61.5881L260.988 56.0359Z" fill="#FFA9A3"/>
<path d="M43.846 70.83H39.59L38.806 73H37.462L40.99 63.298H42.46L45.974 73H44.63L43.846 70.83ZM43.482 69.794L41.718 64.866L39.954 69.794H43.482ZM47.3156 69.15C47.3156 68.3567 47.4743 67.666 47.7916 67.078C48.1089 66.4807 48.5476 66.0187 49.1076 65.692C49.6769 65.3653 50.3256 65.202 51.0536 65.202C51.9963 65.202 52.7709 65.4307 53.3776 65.888C53.9936 66.3453 54.3996 66.98 54.5956 67.792H53.2236C53.0929 67.3253 52.8363 66.9567 52.4536 66.686C52.0803 66.4153 51.6136 66.28 51.0536 66.28C50.3256 66.28 49.7376 66.532 49.2896 67.036C48.8416 67.5307 48.6176 68.2353 48.6176 69.15C48.6176 70.074 48.8416 70.788 49.2896 71.292C49.7376 71.796 50.3256 72.048 51.0536 72.048C51.6136 72.048 52.0803 71.9173 52.4536 71.656C52.8269 71.3947 53.0836 71.0213 53.2236 70.536H54.5956C54.3903 71.32 53.9796 71.95 53.3636 72.426C52.7476 72.8927 51.9776 73.126 51.0536 73.126C50.3256 73.126 49.6769 72.9627 49.1076 72.636C48.5476 72.3093 48.1089 71.8473 47.7916 71.25C47.4743 70.6527 47.3156 69.9527 47.3156 69.15ZM58.1295 66.378V70.9C58.1295 71.2733 58.2088 71.5393 58.3675 71.698C58.5262 71.8473 58.8015 71.922 59.1935 71.922H60.1315V73H58.9835C58.2742 73 57.7422 72.8367 57.3875 72.51C57.0328 72.1833 56.8555 71.6467 56.8555 70.9V66.378H55.8615V65.328H56.8555V63.396H58.1295V65.328H60.1315V66.378H58.1295ZM62.6131 64.082C62.3704 64.082 62.1651 63.998 61.9971 63.83C61.8291 63.662 61.7451 63.4567 61.7451 63.214C61.7451 62.9713 61.8291 62.766 61.9971 62.598C62.1651 62.43 62.3704 62.346 62.6131 62.346C62.8464 62.346 63.0424 62.43 63.2011 62.598C63.3691 62.766 63.4531 62.9713 63.4531 63.214C63.4531 63.4567 63.3691 63.662 63.2011 63.83C63.0424 63.998 62.8464 64.082 62.6131 64.082ZM63.2291 65.328V73H61.9551V65.328H63.2291ZM68.5364 71.824L70.9164 65.328H72.2744L69.2644 73H67.7804L64.7704 65.328H66.1424L68.5364 71.824ZM80.8081 68.87C80.8081 69.1127 80.7941 69.3693 80.7661 69.64H74.6341C74.6807 70.396 74.9374 70.9887 75.4041 71.418C75.8801 71.838 76.4541 72.048 77.1261 72.048C77.6767 72.048 78.1341 71.922 78.4981 71.67C78.8714 71.4087 79.1327 71.0633 79.2821 70.634H80.6541C80.4487 71.3713 80.0381 71.9733 79.4221 72.44C78.8061 72.8973 78.0407 73.126 77.1261 73.126C76.3981 73.126 75.7447 72.9627 75.1661 72.636C74.5967 72.3093 74.1487 71.8473 73.8221 71.25C73.4954 70.6433 73.3321 69.9433 73.3321 69.15C73.3321 68.3567 73.4907 67.6613 73.8081 67.064C74.1254 66.4667 74.5687 66.0093 75.1381 65.692C75.7167 65.3653 76.3794 65.202 77.1261 65.202C77.8541 65.202 78.4981 65.3607 79.0581 65.678C79.6181 65.9953 80.0474 66.434 80.3461 66.994C80.6541 67.5447 80.8081 68.17 80.8081 68.87ZM79.4921 68.604C79.4921 68.1187 79.3847 67.7033 79.1701 67.358C78.9554 67.0033 78.6614 66.7373 78.2881 66.56C77.9241 66.3733 77.5181 66.28 77.0701 66.28C76.4261 66.28 75.8754 66.4853 75.4181 66.896C74.9701 67.3067 74.7134 67.876 74.6481 68.604H79.4921ZM92.7881 63.242V64.278H90.1281V73H88.8541V64.278H86.1801V63.242H92.7881ZM95.2944 64.082C95.0517 64.082 94.8464 63.998 94.6784 63.83C94.5104 63.662 94.4264 63.4567 94.4264 63.214C94.4264 62.9713 94.5104 62.766 94.6784 62.598C94.8464 62.43 95.0517 62.346 95.2944 62.346C95.5277 62.346 95.7237 62.43 95.8824 62.598C96.0504 62.766 96.1344 62.9713 96.1344 63.214C96.1344 63.4567 96.0504 63.662 95.8824 63.83C95.7237 63.998 95.5277 64.082 95.2944 64.082ZM95.9104 65.328V73H94.6364V65.328H95.9104ZM99.6357 62.64V73H98.3617V62.64H99.6357ZM103.361 62.64V73H102.087V62.64H103.361ZM114.739 63.242V70.452C114.739 71.2547 114.491 71.8987 113.997 72.384C113.502 72.86 112.849 73.098 112.037 73.098C111.215 73.098 110.557 72.8553 110.063 72.37C109.568 71.8753 109.321 71.2033 109.321 70.354H110.595C110.604 70.83 110.725 71.2173 110.959 71.516C111.201 71.8147 111.561 71.964 112.037 71.964C112.513 71.964 112.867 71.824 113.101 71.544C113.334 71.2547 113.451 70.8907 113.451 70.452V63.242H114.739ZM117.053 69.136C117.053 68.352 117.211 67.666 117.529 67.078C117.846 66.4807 118.28 66.0187 118.831 65.692C119.391 65.3653 120.011 65.202 120.693 65.202C121.365 65.202 121.948 65.3467 122.443 65.636C122.937 65.9253 123.306 66.2893 123.549 66.728V65.328H124.837V73H123.549V71.572C123.297 72.02 122.919 72.3933 122.415 72.692C121.92 72.9813 121.341 73.126 120.679 73.126C119.997 73.126 119.381 72.958 118.831 72.622C118.28 72.286 117.846 71.8147 117.529 71.208C117.211 70.6013 117.053 69.9107 117.053 69.136ZM123.549 69.15C123.549 68.5713 123.432 68.0673 123.199 67.638C122.965 67.2087 122.648 66.882 122.247 66.658C121.855 66.4247 121.421 66.308 120.945 66.308C120.469 66.308 120.035 66.42 119.643 66.644C119.251 66.868 118.938 67.1947 118.705 67.624C118.471 68.0533 118.355 68.5573 118.355 69.136C118.355 69.724 118.471 70.2373 118.705 70.676C118.938 71.1053 119.251 71.4367 119.643 71.67C120.035 71.894 120.469 72.006 120.945 72.006C121.421 72.006 121.855 71.894 122.247 71.67C122.648 71.4367 122.965 71.1053 123.199 70.676C123.432 70.2373 123.549 69.7287 123.549 69.15ZM131.007 65.188C131.941 65.188 132.697 65.4727 133.275 66.042C133.854 66.602 134.143 67.414 134.143 68.478V73H132.883V68.66C132.883 67.8947 132.692 67.3113 132.309 66.91C131.927 66.4993 131.404 66.294 130.741 66.294C130.069 66.294 129.533 66.504 129.131 66.924C128.739 67.344 128.543 67.9553 128.543 68.758V73H127.269V65.328H128.543V66.42C128.795 66.028 129.136 65.7247 129.565 65.51C130.004 65.2953 130.485 65.188 131.007 65.188ZM140.153 71.978C141.338 71.026 142.267 70.2467 142.939 69.64C143.611 69.024 144.176 68.3847 144.633 67.722C145.1 67.05 145.333 66.392 145.333 65.748C145.333 65.1413 145.184 64.6653 144.885 64.32C144.596 63.9653 144.124 63.788 143.471 63.788C142.836 63.788 142.342 63.9887 141.987 64.39C141.642 64.782 141.455 65.3093 141.427 65.972H140.195C140.232 64.9267 140.55 64.1193 141.147 63.55C141.744 62.9807 142.514 62.696 143.457 62.696C144.418 62.696 145.179 62.962 145.739 63.494C146.308 64.026 146.593 64.7587 146.593 65.692C146.593 66.4667 146.36 67.2227 145.893 67.96C145.436 68.688 144.913 69.332 144.325 69.892C143.737 70.4427 142.986 71.0867 142.071 71.824H146.887V72.888H140.153V71.978ZM148.64 67.834C148.64 66.2287 148.901 64.978 149.424 64.082C149.946 63.1767 150.861 62.724 152.168 62.724C153.465 62.724 154.375 63.1767 154.898 64.082C155.42 64.978 155.682 66.2287 155.682 67.834C155.682 69.4673 155.42 70.7367 154.898 71.642C154.375 72.5473 153.465 73 152.168 73C150.861 73 149.946 72.5473 149.424 71.642C148.901 70.7367 148.64 69.4673 148.64 67.834ZM154.422 67.834C154.422 67.022 154.366 66.336 154.254 65.776C154.151 65.2067 153.932 64.7493 153.596 64.404C153.269 64.0587 152.793 63.886 152.168 63.886C151.533 63.886 151.048 64.0587 150.712 64.404C150.385 64.7493 150.166 65.2067 150.054 65.776C149.951 66.336 149.9 67.022 149.9 67.834C149.9 68.674 149.951 69.3787 150.054 69.948C150.166 70.5173 150.385 70.9747 150.712 71.32C151.048 71.6653 151.533 71.838 152.168 71.838C152.793 71.838 153.269 71.6653 153.596 71.32C153.932 70.9747 154.151 70.5173 154.254 69.948C154.366 69.3787 154.422 68.674 154.422 67.834ZM157.557 71.978C158.742 71.026 159.671 70.2467 160.343 69.64C161.015 69.024 161.579 68.3847 162.037 67.722C162.503 67.05 162.737 66.392 162.737 65.748C162.737 65.1413 162.587 64.6653 162.289 64.32C161.999 63.9653 161.528 63.788 160.875 63.788C160.24 63.788 159.745 63.9887 159.391 64.39C159.045 64.782 158.859 65.3093 158.831 65.972H157.599C157.636 64.9267 157.953 64.1193 158.551 63.55C159.148 62.9807 159.918 62.696 160.861 62.696C161.822 62.696 162.583 62.962 163.143 63.494C163.712 64.026 163.997 64.7587 163.997 65.692C163.997 66.4667 163.763 67.2227 163.297 67.96C162.839 68.688 162.317 69.332 161.729 69.892C161.141 70.4427 160.389 71.0867 159.475 71.824H164.291V72.888H157.557V71.978ZM172.497 63.984H167.583V67.176C167.798 66.8773 168.115 66.6347 168.535 66.448C168.955 66.252 169.408 66.154 169.893 66.154C170.668 66.154 171.298 66.3173 171.783 66.644C172.269 66.9613 172.614 67.3767 172.819 67.89C173.034 68.394 173.141 68.9307 173.141 69.5C173.141 70.172 173.015 70.774 172.763 71.306C172.511 71.838 172.124 72.258 171.601 72.566C171.088 72.874 170.449 73.028 169.683 73.028C168.703 73.028 167.91 72.776 167.303 72.272C166.697 71.768 166.328 71.096 166.197 70.256H167.443C167.565 70.788 167.821 71.2033 168.213 71.502C168.605 71.8007 169.1 71.95 169.697 71.95C170.435 71.95 170.99 71.7307 171.363 71.292C171.737 70.844 171.923 70.256 171.923 69.528C171.923 68.8 171.737 68.24 171.363 67.848C170.99 67.4467 170.439 67.246 169.711 67.246C169.217 67.246 168.783 67.3673 168.409 67.61C168.045 67.8433 167.779 68.1653 167.611 68.576H166.407V62.864H172.497V63.984ZM175.73 73.084C175.488 73.084 175.282 73 175.114 72.832C174.946 72.664 174.862 72.4587 174.862 72.216C174.862 71.9733 174.946 71.768 175.114 71.6C175.282 71.432 175.488 71.348 175.73 71.348C175.964 71.348 176.16 71.432 176.318 71.6C176.486 71.768 176.57 71.9733 176.57 72.216C176.57 72.4587 176.486 72.664 176.318 72.832C176.16 73 175.964 73.084 175.73 73.084Z" fill="#888888"/>
<path d="M45.712 31.49V33.164H40.402V36.854H44.542V38.528H40.402V44H38.35V31.49H45.712ZM50.0257 35.522C50.3257 35.018 50.7217 34.628 51.2137 34.352C51.7177 34.064 52.3117 33.92 52.9957 33.92V36.044H52.4737C51.6697 36.044 51.0577 36.248 50.6377 36.656C50.2297 37.064 50.0257 37.772 50.0257 38.78V44H47.9737V34.082H50.0257V35.522ZM64.3319 38.798C64.3319 39.17 64.3079 39.506 64.2599 39.806H56.6819C56.7419 40.598 57.0359 41.234 57.5639 41.714C58.0919 42.194 58.7399 42.434 59.5079 42.434C60.6119 42.434 61.3919 41.972 61.8479 41.048H64.0619C63.7619 41.96 63.2159 42.71 62.4239 43.298C61.6439 43.874 60.6719 44.162 59.5079 44.162C58.5599 44.162 57.7079 43.952 56.9519 43.532C56.2079 43.1 55.6199 42.5 55.1879 41.732C54.7679 40.952 54.5579 40.052 54.5579 39.032C54.5579 38.012 54.7619 37.118 55.1699 36.35C55.5899 35.57 56.1719 34.97 56.9159 34.55C57.6719 34.13 58.5359 33.92 59.5079 33.92C60.4439 33.92 61.2779 34.124 62.0099 34.532C62.7419 34.94 63.3119 35.516 63.7199 36.26C64.1279 36.992 64.3319 37.838 64.3319 38.798ZM62.1899 38.15C62.1779 37.394 61.9079 36.788 61.3799 36.332C60.8519 35.876 60.1979 35.648 59.4179 35.648C58.7099 35.648 58.1039 35.876 57.5999 36.332C57.0959 36.776 56.7959 37.382 56.6999 38.15H62.1899ZM75.8013 38.798C75.8013 39.17 75.7773 39.506 75.7293 39.806H68.1512C68.2113 40.598 68.5053 41.234 69.0333 41.714C69.5613 42.194 70.2093 42.434 70.9773 42.434C72.0813 42.434 72.8613 41.972 73.3173 41.048H75.5312C75.2313 41.96 74.6853 42.71 73.8933 43.298C73.1133 43.874 72.1413 44.162 70.9773 44.162C70.0293 44.162 69.1773 43.952 68.4212 43.532C67.6772 43.1 67.0892 42.5 66.6573 41.732C66.2372 40.952 66.0272 40.052 66.0272 39.032C66.0272 38.012 66.2312 37.118 66.6392 36.35C67.0593 35.57 67.6413 34.97 68.3853 34.55C69.1413 34.13 70.0053 33.92 70.9773 33.92C71.9133 33.92 72.7473 34.124 73.4793 34.532C74.2113 34.94 74.7813 35.516 75.1892 36.26C75.5973 36.992 75.8013 37.838 75.8013 38.798ZM73.6593 38.15C73.6473 37.394 73.3773 36.788 72.8493 36.332C72.3213 35.876 71.6673 35.648 70.8873 35.648C70.1793 35.648 69.5733 35.876 69.0693 36.332C68.5653 36.776 68.2652 37.382 68.1692 38.15H73.6593ZM91.9644 35.216C91.9644 35.852 91.8144 36.452 91.5144 37.016C91.2144 37.58 90.7344 38.042 90.0744 38.402C89.4144 38.75 88.5684 38.924 87.5364 38.924H85.2684V44H83.2164V31.49H87.5364C88.4964 31.49 89.3064 31.658 89.9664 31.994C90.6384 32.318 91.1364 32.762 91.4604 33.326C91.7964 33.89 91.9644 34.52 91.9644 35.216ZM87.5364 37.25C88.3164 37.25 88.8984 37.076 89.2824 36.728C89.6664 36.368 89.8584 35.864 89.8584 35.216C89.8584 33.848 89.0844 33.164 87.5364 33.164H85.2684V37.25H87.5364ZM96.3335 30.68V44H94.2815V30.68H96.3335ZM98.7036 38.996C98.7036 38 98.9076 37.118 99.3156 36.35C99.7356 35.582 100.3 34.988 101.008 34.568C101.728 34.136 102.52 33.92 103.384 33.92C104.164 33.92 104.842 34.076 105.418 34.388C106.006 34.688 106.474 35.066 106.822 35.522V34.082H108.892V44H106.822V42.524C106.474 42.992 106 43.382 105.4 43.694C104.8 44.006 104.116 44.162 103.348 44.162C102.496 44.162 101.716 43.946 101.008 43.514C100.3 43.07 99.7356 42.458 99.3156 41.678C98.9076 40.886 98.7036 39.992 98.7036 38.996ZM106.822 39.032C106.822 38.348 106.678 37.754 106.39 37.25C106.114 36.746 105.748 36.362 105.292 36.098C104.836 35.834 104.344 35.702 103.816 35.702C103.288 35.702 102.796 35.834 102.34 36.098C101.884 36.35 101.512 36.728 101.224 37.232C100.948 37.724 100.81 38.312 100.81 38.996C100.81 39.68 100.948 40.28 101.224 40.796C101.512 41.312 101.884 41.708 102.34 41.984C102.808 42.248 103.3 42.38 103.816 42.38C104.344 42.38 104.836 42.248 105.292 41.984C105.748 41.72 106.114 41.336 106.39 40.832C106.678 40.316 106.822 39.716 106.822 39.032ZM116.951 33.92C117.731 33.92 118.427 34.082 119.039 34.406C119.663 34.73 120.149 35.21 120.497 35.846C120.845 36.482 121.019 37.25 121.019 38.15V44H118.985V38.456C118.985 37.568 118.763 36.89 118.319 36.422C117.875 35.942 117.269 35.702 116.501 35.702C115.733 35.702 115.121 35.942 114.665 36.422C114.221 36.89 113.999 37.568 113.999 38.456V44H111.947V34.082H113.999V35.216C114.335 34.808 114.761 34.49 115.277 34.262C115.805 34.034 116.363 33.92 116.951 33.92ZM124.824 44.126C124.452 44.126 124.14 44 123.888 43.748C123.636 43.496 123.51 43.184 123.51 42.812C123.51 42.44 123.636 42.128 123.888 41.876C124.14 41.624 124.452 41.498 124.824 41.498C125.184 41.498 125.49 41.624 125.742 41.876C125.994 42.128 126.12 42.44 126.12 42.812C126.12 43.184 125.994 43.496 125.742 43.748C125.49 44 125.184 44.126 124.824 44.126Z" fill="#0F0F0F"/>
</svg>
