<svg width="24" height="22" viewBox="0 0 24 22" fill="none" xmlns="http://www.w3.org/2000/svg">
<path d="M12.109 18.643L11.9891 18.7629L11.8572 18.643C6.1624 13.4757 2.39782 10.0589 2.39782 6.59401C2.39782 4.19619 4.19619 2.39782 6.59401 2.39782C8.44033 2.39782 10.2387 3.59673 10.8741 5.22725H13.1041C13.7395 3.59673 15.5379 2.39782 17.3842 2.39782C19.782 2.39782 21.5804 4.19619 21.5804 6.59401C21.5804 10.0589 17.8158 13.4757 12.109 18.643ZM17.3842 0C15.2981 0 13.2959 0.971117 11.9891 2.49373C10.6823 0.971117 8.68011 0 6.59401 0C2.90136 0 0 2.88937 0 6.59401C0 11.1139 4.07629 14.8185 10.2507 20.4174L11.9891 22L13.7275 20.4174C19.9019 14.8185 23.9782 11.1139 23.9782 6.59401C23.9782 2.88937 21.0768 0 17.3842 0Z" fill="#FFA9A3"/>
</svg>
