<svg width="57" height="57" viewBox="0 0 57 57" fill="none" xmlns="http://www.w3.org/2000/svg">
<g filter="url(#filter0_dd_176_1152)">
<circle cx="28.5" cy="27.5" r="23.5" stroke="#FFA9A3" stroke-width="1.5"/>
</g>
<path d="M37.1429 36H35.5524C35.0472 36 34.5627 35.7993 34.2055 35.4421C33.8483 35.0849 33.6476 34.6004 33.6476 34.0952V28.981C33.6561 28.7804 33.5955 28.583 33.4759 28.4217C33.3563 28.2605 33.1849 28.1452 32.9905 28.0952C32.8774 28.078 32.7619 28.0853 32.6518 28.1165C32.5417 28.1477 32.4396 28.2022 32.3524 28.2762C32.2626 28.3524 32.1905 28.4473 32.1412 28.5542C32.0918 28.6611 32.0664 28.7775 32.0667 28.8952V34.0952C32.0667 34.6004 31.866 35.0849 31.5088 35.4421C31.1516 35.7993 30.6671 36 30.1619 36H28.5714C28.0663 36 27.5818 35.7993 27.2246 35.4421C26.8673 35.0849 26.6667 34.6004 26.6667 34.0952V28.8952C26.6667 27.2534 27.3189 25.6789 28.4798 24.5179C29.6408 23.357 31.2153 22.7048 32.8571 22.7048C34.499 22.7048 36.0735 23.357 37.2345 24.5179C38.3954 25.6789 39.0476 27.2534 39.0476 28.8952V34.0952C39.0476 34.6004 38.8469 35.0849 38.4897 35.4421C38.1325 35.7993 37.648 36 37.1429 36ZM32.8571 26.181C33.0062 26.1722 33.1557 26.1722 33.3048 26.181C33.9442 26.3039 34.5198 26.6481 34.9308 27.1532C35.3418 27.6582 35.5619 28.2918 35.5524 28.9429V34.0952H37.1429V28.8952C37.1429 27.7586 36.6913 26.6685 35.8876 25.8648C35.0839 25.0611 33.9938 24.6095 32.8571 24.6095C31.7205 24.6095 30.6304 25.0611 29.8267 25.8648C29.023 26.6685 28.5714 27.7586 28.5714 28.8952V34.0952H30.1619V28.8952C30.1619 28.1787 30.4452 27.4911 30.9502 26.9827C31.4551 26.4742 32.1406 26.186 32.8571 26.181ZM23.8095 36H21.9048C21.3996 36 20.9151 35.7993 20.5579 35.4421C20.2007 35.0849 20 34.6004 20 34.0952V24.5714C20 24.0663 20.2007 23.5818 20.5579 23.2246C20.9151 22.8673 21.3996 22.6667 21.9048 22.6667H23.8095C24.3147 22.6667 24.7992 22.8673 25.1564 23.2246C25.5136 23.5818 25.7143 24.0663 25.7143 24.5714V34.0952C25.7143 34.6004 25.5136 35.0849 25.1564 35.4421C24.7992 35.7993 24.3147 36 23.8095 36ZM21.9048 24.5714V34.0952H23.8095V24.5714H21.9048ZM22.8571 21.7143C22.2921 21.7143 21.7397 21.5467 21.2698 21.2328C20.7999 20.9188 20.4337 20.4726 20.2175 19.9505C20.0012 19.4285 19.9447 18.854 20.0549 18.2997C20.1651 17.7455 20.4373 17.2364 20.8368 16.8368C21.2364 16.4373 21.7455 16.1651 22.2997 16.0549C22.854 15.9447 23.4285 16.0012 23.9505 16.2175C24.4726 16.4337 24.9188 16.7999 25.2328 17.2698C25.5467 17.7397 25.7143 18.2921 25.7143 18.8571C25.7143 19.6149 25.4133 20.3416 24.8774 20.8774C24.3416 21.4133 23.6149 21.7143 22.8571 21.7143ZM22.8571 17.9048C22.6688 17.9048 22.4846 17.9606 22.328 18.0653C22.1714 18.1699 22.0493 18.3187 21.9773 18.4927C21.9052 18.6667 21.8863 18.8582 21.9231 19.0429C21.9598 19.2277 22.0505 19.3974 22.1837 19.5306C22.3169 19.6638 22.4866 19.7545 22.6713 19.7912C22.8561 19.828 23.0476 19.8091 23.2216 19.737C23.3956 19.6649 23.5444 19.5429 23.649 19.3863C23.7537 19.2296 23.8095 19.0455 23.8095 18.8571C23.8095 18.6046 23.7092 18.3623 23.5306 18.1837C23.352 18.0051 23.1097 17.9048 22.8571 17.9048Z" fill="#FFA9A3"/>
<defs>
<filter id="filter0_dd_176_1152" x="0.25" y="0.25" width="56.5" height="56.5" filterUnits="userSpaceOnUse" color-interpolation-filters="sRGB">
<feFlood flood-opacity="0" result="BackgroundImageFix"/>
<feColorMatrix in="SourceAlpha" type="matrix" values="0 0 0 0 0 0 0 0 0 0 0 0 0 0 0 0 0 0 127 0" result="hardAlpha"/>
<feMorphology radius="1" operator="dilate" in="SourceAlpha" result="effect1_dropShadow_176_1152"/>
<feOffset dy="1"/>
<feGaussianBlur stdDeviation="1.5"/>
<feColorMatrix type="matrix" values="0 0 0 0 1 0 0 0 0 0.866667 0 0 0 0 0.819608 0 0 0 1 0"/>
<feBlend mode="normal" in2="BackgroundImageFix" result="effect1_dropShadow_176_1152"/>
<feColorMatrix in="SourceAlpha" type="matrix" values="0 0 0 0 0 0 0 0 0 0 0 0 0 0 0 0 0 0 127 0" result="hardAlpha"/>
<feOffset dy="1"/>
<feGaussianBlur stdDeviation="1"/>
<feColorMatrix type="matrix" values="0 0 0 0 1 0 0 0 0 0.866667 0 0 0 0 0.819608 0 0 0 1 0"/>
<feBlend mode="normal" in2="effect1_dropShadow_176_1152" result="effect2_dropShadow_176_1152"/>
<feBlend mode="normal" in="SourceGraphic" in2="effect2_dropShadow_176_1152" result="shape"/>
</filter>
</defs>
</svg>
