<svg width="145" height="53" viewBox="0 0 145 53" fill="none" xmlns="http://www.w3.org/2000/svg">
<path d="M71.7207 25.6531C71.7207 23.7304 71.6274 22.4424 71.4407 21.7891C71.254 21.1171 70.89 20.7811 70.3487 20.7811C69.8074 20.7811 69.322 21.1357 68.8927 21.8451C68.4634 22.5357 68.2487 23.4691 68.2487 24.6451V29.7691C68.2487 30.5717 68.4074 31.2531 68.7247 31.8131C69.042 32.3731 69.5087 32.6531 70.1247 32.6531C70.7407 32.6531 71.1607 32.2424 71.3847 31.4211C71.6087 30.5997 71.7207 29.1624 71.7207 27.1091V25.6531ZM68.1927 19.8571V22.0691C68.9207 20.4077 70.2087 19.5771 72.0567 19.5771C73.662 19.5771 74.9034 20.1557 75.7807 21.3131C76.6767 22.4704 77.1247 24.2251 77.1247 26.5771C77.1247 28.9291 76.6394 30.6651 75.6687 31.7851C74.7167 32.9051 73.2794 33.4651 71.3567 33.4651C70.4607 33.4651 69.7887 33.3531 69.3407 33.1291C68.8927 32.9051 68.5287 32.5597 68.2487 32.0931V39.3451H71.8607V39.8491H61.5007V39.3451H63.0407V20.3611H61.5567V19.8571H68.1927ZM87.5656 27.6691V25.2891C87.5656 23.4784 87.463 22.1624 87.2576 21.3411C87.071 20.5011 86.623 20.0811 85.9136 20.0811C85.503 20.0811 85.167 20.2024 84.9056 20.4451C84.663 20.6691 84.4856 21.0517 84.3736 21.5931C84.2056 22.4331 84.1216 23.7117 84.1216 25.4291V27.6131C84.1216 29.6477 84.1776 30.8704 84.2896 31.2811C84.4203 31.6917 84.551 32.0277 84.6816 32.2891C84.887 32.7371 85.2883 32.9611 85.8856 32.9611C86.6136 32.9611 87.0896 32.5411 87.3136 31.7011C87.4816 31.1037 87.5656 29.7597 87.5656 27.6691ZM85.8296 33.4651C83.4963 33.4651 81.7323 32.8677 80.5376 31.6731C79.343 30.4784 78.7456 28.7704 78.7456 26.5491C78.7456 24.3091 79.3803 22.5917 80.6496 21.3971C81.9376 20.1837 83.739 19.5771 86.0536 19.5771C88.3683 19.5771 90.095 20.1371 91.2336 21.2571C92.3723 22.3584 92.9416 24.0477 92.9416 26.3251C92.9416 31.0851 90.571 33.4651 85.8296 33.4651ZM99.9688 27.3891C99.9688 29.3491 100.071 30.6557 100.277 31.3091C100.482 31.9437 100.855 32.2611 101.397 32.2611C101.957 32.2611 102.433 32.0184 102.825 31.5331C103.235 31.0477 103.441 30.3291 103.441 29.3771V23.2731C103.441 22.4704 103.282 21.7891 102.965 21.2291C102.647 20.6691 102.181 20.3891 101.565 20.3891C100.949 20.3891 100.529 20.7997 100.305 21.6211C100.081 22.4424 99.9688 23.8797 99.9688 25.9331V27.3891ZM103.805 33.1851L103.497 31.2251C102.862 32.7184 101.574 33.4651 99.6328 33.4651C98.0274 33.4651 96.7768 32.8864 95.8808 31.7291C95.0034 30.5717 94.5648 28.8451 94.5648 26.5491C94.5648 21.9011 96.4128 19.5771 100.109 19.5771C101.751 19.5771 102.834 20.0344 103.357 20.9491V12.6891H101.649V12.1851H108.649V32.6811H110.021V33.1851H103.805ZM114.694 33.4651C113.891 33.4651 113.284 33.2317 112.874 32.7651C112.482 32.2797 112.286 31.7011 112.286 31.0291C112.286 30.3384 112.491 29.7597 112.902 29.2931C113.331 28.8264 113.928 28.5931 114.694 28.5931C115.459 28.5931 116.066 28.7891 116.514 29.1811C116.962 29.5731 117.186 30.1611 117.186 30.9451C117.186 31.7291 116.971 32.3451 116.542 32.7931C116.131 33.2411 115.515 33.4651 114.694 33.4651ZM125.996 26.6051H126.808V24.4491C126.808 22.6757 126.705 21.4904 126.5 20.8931C126.313 20.2771 125.94 19.9691 125.38 19.9691C125.044 19.9691 124.736 20.0624 124.456 20.2491C124.195 20.4171 124.064 20.6597 124.064 20.9771C124.064 21.2757 124.12 21.5837 124.232 21.9011H124.932C125.081 22.2931 125.156 22.7691 125.156 23.3291C125.156 23.8704 124.923 24.3464 124.456 24.7571C123.989 25.1491 123.401 25.3451 122.692 25.3451C121.087 25.3451 120.284 24.5704 120.284 23.0211C120.284 20.7251 122.235 19.5771 126.136 19.5771C128.357 19.5771 129.888 19.9597 130.728 20.7251C131.587 21.4717 132.016 22.8531 132.016 24.8691V30.5531C132.016 31.5237 132.287 32.0091 132.828 32.0091C133.463 32.0091 133.836 31.0477 133.948 29.1251L134.368 29.1531C134.293 30.7957 133.985 31.9251 133.444 32.5411C132.903 33.1571 132.016 33.4651 130.784 33.4651C128.544 33.4651 127.256 32.7744 126.92 31.3931C126.677 32.1024 126.313 32.6251 125.828 32.9611C125.343 33.2971 124.633 33.4651 123.7 33.4651C120.937 33.4651 119.556 32.3357 119.556 30.0771C119.556 28.7517 120.079 27.8464 121.124 27.3611C122.188 26.8571 123.812 26.6051 125.996 26.6051ZM124.876 30.0491C124.876 31.0197 124.923 31.6451 125.016 31.9251C125.128 32.2051 125.324 32.3451 125.604 32.3451C125.903 32.3451 126.173 32.1117 126.416 31.6451C126.677 31.1597 126.808 30.4971 126.808 29.6571V27.0531H126.612C125.455 27.0531 124.876 27.9024 124.876 29.6011V30.0491ZM139.319 17.9251C138.33 17.9251 137.62 17.6731 137.191 17.1691C136.78 16.6651 136.575 16.0397 136.575 15.2931C136.575 14.5464 136.799 13.9304 137.247 13.4451C137.714 12.9597 138.414 12.7171 139.347 12.7171C140.28 12.7171 140.99 12.9411 141.475 13.3891C141.96 13.8184 142.203 14.4437 142.203 15.2651C142.203 16.0677 141.97 16.7117 141.503 17.1971C141.036 17.6824 140.308 17.9251 139.319 17.9251ZM135.091 19.8571H141.951V32.6811H143.519V33.1851H135.203V32.6811H136.743V20.3611H135.091V19.8571Z" fill="#FFA9A3"/>
<circle cx="26.1026" cy="26.1025" r="15.2985" stroke="#FFDDD1" stroke-width="0.3"/>
<circle cx="26.1026" cy="26.1024" r="20.6255" stroke="#FFDDD1" stroke-width="0.3"/>
<circle cx="26.1026" cy="26.1026" r="25.9526" stroke="#FFDDD1" stroke-width="0.3"/>
<path d="M25.4333 29.4493C24.3178 29.4493 23.3697 29.0589 22.5888 28.2781C21.808 27.4972 21.4175 26.5491 21.4175 25.4336V17.402C21.4175 16.2865 21.808 15.3383 22.5888 14.5575C23.3697 13.7767 24.3178 13.3862 25.4333 13.3862C26.5488 13.3862 27.497 13.7767 28.2778 14.5575C29.0587 15.3383 29.4491 16.2865 29.4491 17.402V25.4336C29.4491 26.5491 29.0587 27.4972 28.2778 28.2781C27.497 29.0589 26.5488 29.4493 25.4333 29.4493ZM24.0947 38.8195V34.7033C21.7745 34.391 19.8559 33.3536 18.3388 31.5911C16.8217 29.8286 16.0632 27.7761 16.0632 25.4336H18.7404C18.7404 27.2853 19.3929 28.8637 20.6981 30.1688C22.0032 31.474 23.5816 32.1265 25.4333 32.1265C27.285 32.1265 28.8635 31.474 30.1686 30.1688C31.4737 28.8637 32.1263 27.2853 32.1263 25.4336H34.8035C34.8035 27.7761 34.0449 29.8286 32.5279 31.5911C31.0108 33.3536 29.0921 34.391 26.7719 34.7033V38.8195H24.0947Z" fill="#FFA9A3"/>
<path d="M32.6059 8.5973C32.6669 8.41538 32.9242 8.41538 32.9852 8.5973L33.94 11.4461C33.9599 11.5055 34.0066 11.5522 34.066 11.5722L36.9148 12.5269C37.0967 12.5879 37.0967 12.8452 36.9148 12.9062L34.066 13.861C34.0066 13.8809 33.9599 13.9276 33.94 13.9871L32.9852 16.8358C32.9242 17.0178 32.6669 17.0178 32.6059 16.8358L31.6511 13.9871C31.6312 13.9276 31.5845 13.8809 31.5251 13.861L28.6763 12.9062C28.4944 12.8452 28.4944 12.5879 28.6763 12.5269L31.5251 11.5722C31.5845 11.5522 31.6312 11.5055 31.6511 11.4461L32.6059 8.5973Z" stroke="#FFA9A3" stroke-width="0.5"/>
</svg>
