<svg width="50" height="50" viewBox="0 0 50 50" fill="none" xmlns="http://www.w3.org/2000/svg">
<g filter="url(#filter0_dd_139_2204)">
<circle cx="25" cy="24" r="21" fill="#FFA9A3"/>
</g>
<path d="M25 27C26.66 27 27.99 25.66 27.99 24L28 18C28 16.34 26.66 15 25 15C23.34 15 22 16.34 22 18V24C22 25.66 23.34 27 25 27ZM30.3 24C30.3 27 27.76 29.1 25 29.1C22.24 29.1 19.7 27 19.7 24H18C18 27.42 20.72 30.23 24 30.72V34H26V30.72C29.28 30.24 32 27.42 32 24H30.3Z" fill="#FFFFF0"/>
<defs>
<filter id="filter0_dd_139_2204" x="0" y="0" width="50" height="50" filterUnits="userSpaceOnUse" color-interpolation-filters="sRGB">
<feFlood flood-opacity="0" result="BackgroundImageFix"/>
<feColorMatrix in="SourceAlpha" type="matrix" values="0 0 0 0 0 0 0 0 0 0 0 0 0 0 0 0 0 0 127 0" result="hardAlpha"/>
<feMorphology radius="1" operator="dilate" in="SourceAlpha" result="effect1_dropShadow_139_2204"/>
<feOffset dy="1"/>
<feGaussianBlur stdDeviation="1.5"/>
<feColorMatrix type="matrix" values="0 0 0 0 1 0 0 0 0 0.866667 0 0 0 0 0.819608 0 0 0 1 0"/>
<feBlend mode="normal" in2="BackgroundImageFix" result="effect1_dropShadow_139_2204"/>
<feColorMatrix in="SourceAlpha" type="matrix" values="0 0 0 0 0 0 0 0 0 0 0 0 0 0 0 0 0 0 127 0" result="hardAlpha"/>
<feOffset dy="1"/>
<feGaussianBlur stdDeviation="1"/>
<feColorMatrix type="matrix" values="0 0 0 0 1 0 0 0 0 0.866667 0 0 0 0 0.819608 0 0 0 1 0"/>
<feBlend mode="normal" in2="effect1_dropShadow_139_2204" result="effect2_dropShadow_139_2204"/>
<feBlend mode="normal" in="SourceGraphic" in2="effect2_dropShadow_139_2204" result="shape"/>
</filter>
</defs>
</svg>
