<svg width="190" height="57" viewBox="0 0 190 57" fill="none" xmlns="http://www.w3.org/2000/svg">
<path d="M2.95459 9.712H6.24459V11H1.35859V1.27H2.95459V9.712ZM10.9253 11.126C10.1973 11.126 9.5393 10.9627 8.9513 10.636C8.3633 10.3 7.9013 9.83333 7.5653 9.236C7.2293 8.62933 7.0613 7.92933 7.0613 7.136C7.0613 6.352 7.23396 5.65667 7.5793 5.05C7.92463 4.44333 8.39596 3.97667 8.9933 3.65C9.59063 3.32333 10.258 3.16 10.9953 3.16C11.7326 3.16 12.4 3.32333 12.9973 3.65C13.5946 3.97667 14.066 4.44333 14.4113 5.05C14.7566 5.65667 14.9293 6.352 14.9293 7.136C14.9293 7.92 14.752 8.61533 14.3973 9.222C14.0426 9.82867 13.5573 10.3 12.9413 10.636C12.3346 10.9627 11.6626 11.126 10.9253 11.126ZM10.9253 9.74C11.336 9.74 11.7186 9.642 12.0733 9.446C12.4373 9.25 12.7313 8.956 12.9553 8.564C13.1793 8.172 13.2913 7.696 13.2913 7.136C13.2913 6.576 13.184 6.10467 12.9693 5.722C12.7546 5.33 12.47 5.036 12.1153 4.84C11.7606 4.644 11.378 4.546 10.9673 4.546C10.5566 4.546 10.174 4.644 9.8193 4.84C9.47396 5.036 9.19863 5.33 8.9933 5.722C8.78796 6.10467 8.6853 6.576 8.6853 7.136C8.6853 7.96667 8.8953 8.61067 9.3153 9.068C9.74463 9.516 10.2813 9.74 10.9253 9.74ZM19.853 11.126C19.125 11.126 18.467 10.9627 17.879 10.636C17.291 10.3 16.829 9.83333 16.493 9.236C16.157 8.62933 15.989 7.92933 15.989 7.136C15.989 6.352 16.1617 5.65667 16.507 5.05C16.8524 4.44333 17.3237 3.97667 17.921 3.65C18.5184 3.32333 19.1857 3.16 19.923 3.16C20.6604 3.16 21.3277 3.32333 21.925 3.65C22.5224 3.97667 22.9937 4.44333 23.339 5.05C23.6844 5.65667 23.857 6.352 23.857 7.136C23.857 7.92 23.6797 8.61533 23.325 9.222C22.9704 9.82867 22.485 10.3 21.869 10.636C21.2624 10.9627 20.5904 11.126 19.853 11.126ZM19.853 9.74C20.2637 9.74 20.6464 9.642 21.001 9.446C21.365 9.25 21.659 8.956 21.883 8.564C22.107 8.172 22.219 7.696 22.219 7.136C22.219 6.576 22.1117 6.10467 21.897 5.722C21.6824 5.33 21.3977 5.036 21.043 4.84C20.6884 4.644 20.3057 4.546 19.895 4.546C19.4844 4.546 19.1017 4.644 18.747 4.84C18.4017 5.036 18.1264 5.33 17.921 5.722C17.7157 6.10467 17.613 6.576 17.613 7.136C17.613 7.96667 17.823 8.61067 18.243 9.068C18.6724 9.516 19.209 9.74 19.853 9.74ZM28.4868 7.15L32.0428 11H29.8868L27.0308 7.682V11H25.4348V0.64H27.0308V6.66L29.8308 3.286H32.0428L28.4868 7.15ZM35.9867 11.126C35.3801 11.126 34.8341 11.0187 34.3487 10.804C33.8727 10.58 33.4947 10.2813 33.2147 9.908C32.9347 9.52533 32.7854 9.10067 32.7667 8.634H34.4187C34.4467 8.96067 34.6007 9.236 34.8807 9.46C35.1701 9.67467 35.5294 9.782 35.9587 9.782C36.4067 9.782 36.7521 9.698 36.9947 9.53C37.2467 9.35267 37.3727 9.12867 37.3727 8.858C37.3727 8.56867 37.2327 8.354 36.9527 8.214C36.6821 8.074 36.2481 7.92 35.6507 7.752C35.0721 7.59333 34.6007 7.43933 34.2367 7.29C33.8727 7.14067 33.5554 6.912 33.2847 6.604C33.0234 6.296 32.8927 5.89 32.8927 5.386C32.8927 4.97533 33.0141 4.602 33.2567 4.266C33.4994 3.92067 33.8447 3.65 34.2927 3.454C34.7501 3.258 35.2727 3.16 35.8607 3.16C36.7381 3.16 37.4427 3.384 37.9747 3.832C38.5161 4.27067 38.8054 4.87267 38.8427 5.638H37.2467C37.2187 5.29267 37.0787 5.01733 36.8267 4.812C36.5747 4.60667 36.2341 4.504 35.8047 4.504C35.3847 4.504 35.0627 4.58333 34.8387 4.742C34.6147 4.90067 34.5027 5.11067 34.5027 5.372C34.5027 5.57733 34.5774 5.75 34.7267 5.89C34.8761 6.03 35.0581 6.142 35.2727 6.226C35.4874 6.30067 35.8047 6.39867 36.2247 6.52C36.7847 6.66933 37.2421 6.82333 37.5967 6.982C37.9607 7.13133 38.2734 7.35533 38.5347 7.654C38.7961 7.95267 38.9314 8.34933 38.9407 8.844C38.9407 9.28267 38.8194 9.67467 38.5767 10.02C38.3341 10.3653 37.9887 10.636 37.5407 10.832C37.1021 11.028 36.5841 11.126 35.9867 11.126ZM45.898 0.64V11H44.302V0.64H45.898ZM48.8054 2.264C48.516 2.264 48.2734 2.166 48.0774 1.97C47.8814 1.774 47.7834 1.53133 47.7834 1.242C47.7834 0.952666 47.8814 0.71 48.0774 0.514C48.2734 0.318 48.516 0.219999 48.8054 0.219999C49.0854 0.219999 49.3234 0.318 49.5194 0.514C49.7154 0.71 49.8134 0.952666 49.8134 1.242C49.8134 1.53133 49.7154 1.774 49.5194 1.97C49.3234 2.166 49.0854 2.264 48.8054 2.264ZM49.5894 3.286V11H47.9934V3.286H49.5894ZM54.7368 7.15L58.2928 11H56.1368L53.2808 7.682V11H51.6848V0.64H53.2808V6.66L56.0808 3.286H58.2928L54.7368 7.15ZM66.5067 6.954C66.5067 7.24333 66.4881 7.50467 66.4507 7.738H60.5567C60.6034 8.354 60.8321 8.84867 61.2427 9.222C61.6534 9.59533 62.1574 9.782 62.7547 9.782C63.6134 9.782 64.2201 9.42267 64.5747 8.704H66.2967C66.0634 9.41333 65.6387 9.99667 65.0227 10.454C64.4161 10.902 63.6601 11.126 62.7547 11.126C62.0174 11.126 61.3547 10.9627 60.7667 10.636C60.1881 10.3 59.7307 9.83333 59.3947 9.236C59.0681 8.62933 58.9047 7.92933 58.9047 7.136C58.9047 6.34267 59.0634 5.64733 59.3807 5.05C59.7074 4.44333 60.1601 3.97667 60.7387 3.65C61.3267 3.32333 61.9987 3.16 62.7547 3.16C63.4827 3.16 64.1314 3.31867 64.7007 3.636C65.2701 3.95333 65.7134 4.40133 66.0307 4.98C66.3481 5.54933 66.5067 6.20733 66.5067 6.954ZM64.8407 6.45C64.8314 5.862 64.6214 5.39067 64.2107 5.036C63.8001 4.68133 63.2914 4.504 62.6847 4.504C62.1341 4.504 61.6627 4.68133 61.2707 5.036C60.8787 5.38133 60.6454 5.85267 60.5707 6.45H64.8407ZM74.5141 11.126C73.9074 11.126 73.3614 11.0187 72.8761 10.804C72.4001 10.58 72.0221 10.2813 71.7421 9.908C71.4621 9.52533 71.3127 9.10067 71.2941 8.634H72.9461C72.9741 8.96067 73.1281 9.236 73.4081 9.46C73.6974 9.67467 74.0567 9.782 74.4861 9.782C74.9341 9.782 75.2794 9.698 75.5221 9.53C75.7741 9.35267 75.9001 9.12867 75.9001 8.858C75.9001 8.56867 75.7601 8.354 75.4801 8.214C75.2094 8.074 74.7754 7.92 74.1781 7.752C73.5994 7.59333 73.1281 7.43933 72.7641 7.29C72.4001 7.14067 72.0827 6.912 71.8121 6.604C71.5507 6.296 71.4201 5.89 71.4201 5.386C71.4201 4.97533 71.5414 4.602 71.7841 4.266C72.0267 3.92067 72.3721 3.65 72.8201 3.454C73.2774 3.258 73.8001 3.16 74.3881 3.16C75.2654 3.16 75.9701 3.384 76.5021 3.832C77.0434 4.27067 77.3327 4.87267 77.3701 5.638H75.7741C75.7461 5.29267 75.6061 5.01733 75.3541 4.812C75.1021 4.60667 74.7614 4.504 74.3321 4.504C73.9121 4.504 73.5901 4.58333 73.3661 4.742C73.1421 4.90067 73.0301 5.11067 73.0301 5.372C73.0301 5.57733 73.1047 5.75 73.2541 5.89C73.4034 6.03 73.5854 6.142 73.8001 6.226C74.0147 6.30067 74.3321 6.39867 74.7521 6.52C75.3121 6.66933 75.7694 6.82333 76.1241 6.982C76.4881 7.13133 76.8007 7.35533 77.0621 7.654C77.3234 7.95267 77.4587 8.34933 77.4681 8.844C77.4681 9.28267 77.3467 9.67467 77.1041 10.02C76.8614 10.3653 76.5161 10.636 76.0681 10.832C75.6294 11.028 75.1114 11.126 74.5141 11.126ZM82.5386 11.126C81.8106 11.126 81.1526 10.9627 80.5646 10.636C79.9766 10.3 79.5146 9.83333 79.1786 9.236C78.8426 8.62933 78.6746 7.92933 78.6746 7.136C78.6746 6.352 78.8472 5.65667 79.1926 5.05C79.5379 4.44333 80.0092 3.97667 80.6066 3.65C81.2039 3.32333 81.8712 3.16 82.6086 3.16C83.3459 3.16 84.0132 3.32333 84.6106 3.65C85.2079 3.97667 85.6792 4.44333 86.0246 5.05C86.3699 5.65667 86.5426 6.352 86.5426 7.136C86.5426 7.92 86.3652 8.61533 86.0106 9.222C85.6559 9.82867 85.1706 10.3 84.5546 10.636C83.9479 10.9627 83.2759 11.126 82.5386 11.126ZM82.5386 9.74C82.9492 9.74 83.3319 9.642 83.6866 9.446C84.0506 9.25 84.3446 8.956 84.5686 8.564C84.7926 8.172 84.9046 7.696 84.9046 7.136C84.9046 6.576 84.7972 6.10467 84.5826 5.722C84.3679 5.33 84.0832 5.036 83.7286 4.84C83.3739 4.644 82.9912 4.546 82.5806 4.546C82.1699 4.546 81.7872 4.644 81.4326 4.84C81.0872 5.036 80.8119 5.33 80.6066 5.722C80.4012 6.10467 80.2986 6.576 80.2986 7.136C80.2986 7.96667 80.5086 8.61067 80.9286 9.068C81.3579 9.516 81.8946 9.74 82.5386 9.74ZM97.4583 3.16C98.065 3.16 98.6063 3.286 99.0823 3.538C99.5676 3.79 99.9456 4.16333 100.216 4.658C100.496 5.15267 100.636 5.75 100.636 6.45V11H99.0543V6.688C99.0543 5.99733 98.8816 5.47 98.5363 5.106C98.191 4.73267 97.7196 4.546 97.1223 4.546C96.525 4.546 96.049 4.73267 95.6943 5.106C95.349 5.47 95.1763 5.99733 95.1763 6.688V11H93.5943V6.688C93.5943 5.99733 93.4216 5.47 93.0763 5.106C92.731 4.73267 92.2596 4.546 91.6623 4.546C91.065 4.546 90.589 4.73267 90.2343 5.106C89.889 5.47 89.7163 5.99733 89.7163 6.688V11H88.1203V3.286H89.7163V4.168C89.9776 3.85067 90.309 3.60333 90.7103 3.426C91.1116 3.24867 91.541 3.16 91.9983 3.16C92.6143 3.16 93.165 3.29067 93.6503 3.552C94.1356 3.81333 94.509 4.19133 94.7703 4.686C95.0036 4.21933 95.3676 3.85067 95.8623 3.58C96.357 3.3 96.889 3.16 97.4583 3.16ZM109.737 6.954C109.737 7.24333 109.719 7.50467 109.681 7.738H103.787C103.834 8.354 104.063 8.84867 104.473 9.222C104.884 9.59533 105.388 9.782 105.985 9.782C106.844 9.782 107.451 9.42267 107.805 8.704H109.527C109.294 9.41333 108.869 9.99667 108.253 10.454C107.647 10.902 106.891 11.126 105.985 11.126C105.248 11.126 104.585 10.9627 103.997 10.636C103.419 10.3 102.961 9.83333 102.625 9.236C102.299 8.62933 102.135 7.92933 102.135 7.136C102.135 6.34267 102.294 5.64733 102.611 5.05C102.938 4.44333 103.391 3.97667 103.969 3.65C104.557 3.32333 105.229 3.16 105.985 3.16C106.713 3.16 107.362 3.31867 107.931 3.636C108.501 3.95333 108.944 4.40133 109.261 4.98C109.579 5.54933 109.737 6.20733 109.737 6.954ZM108.071 6.45C108.062 5.862 107.852 5.39067 107.441 5.036C107.031 4.68133 106.522 4.504 105.915 4.504C105.365 4.504 104.893 4.68133 104.501 5.036C104.109 5.38133 103.876 5.85267 103.801 6.45H108.071ZM113.17 4.588V8.858C113.17 9.14733 113.235 9.35733 113.366 9.488C113.506 9.60933 113.739 9.67 114.066 9.67H115.046V11H113.786C113.067 11 112.516 10.832 112.134 10.496C111.751 10.16 111.56 9.614 111.56 8.858V4.588H110.65V3.286H111.56V1.368H113.17V3.286H115.046V4.588H113.17ZM120.507 3.16C121.095 3.16 121.617 3.286 122.075 3.538C122.541 3.79 122.905 4.16333 123.167 4.658C123.437 5.15267 123.573 5.75 123.573 6.45V11H121.991V6.688C121.991 5.99733 121.818 5.47 121.473 5.106C121.127 4.73267 120.656 4.546 120.059 4.546C119.461 4.546 118.985 4.73267 118.631 5.106C118.285 5.47 118.113 5.99733 118.113 6.688V11H116.517V0.64H118.113V4.182C118.383 3.85533 118.724 3.60333 119.135 3.426C119.555 3.24867 120.012 3.16 120.507 3.16ZM126.421 2.264C126.131 2.264 125.889 2.166 125.693 1.97C125.497 1.774 125.399 1.53133 125.399 1.242C125.399 0.952666 125.497 0.71 125.693 0.514C125.889 0.318 126.131 0.219999 126.421 0.219999C126.701 0.219999 126.939 0.318 127.135 0.514C127.331 0.71 127.429 0.952666 127.429 1.242C127.429 1.53133 127.331 1.774 127.135 1.97C126.939 2.166 126.701 2.264 126.421 2.264ZM127.205 3.286V11H125.609V3.286H127.205ZM133.192 3.16C133.799 3.16 134.34 3.286 134.816 3.538C135.301 3.79 135.679 4.16333 135.95 4.658C136.221 5.15267 136.356 5.75 136.356 6.45V11H134.774V6.688C134.774 5.99733 134.601 5.47 134.256 5.106C133.911 4.73267 133.439 4.546 132.842 4.546C132.245 4.546 131.769 4.73267 131.414 5.106C131.069 5.47 130.896 5.99733 130.896 6.688V11H129.3V3.286H130.896V4.168C131.157 3.85067 131.489 3.60333 131.89 3.426C132.301 3.24867 132.735 3.16 133.192 3.16ZM141.5 3.16C142.097 3.16 142.624 3.28133 143.082 3.524C143.548 3.75733 143.912 4.05133 144.174 4.406V3.286H145.784V11.126C145.784 11.8353 145.634 12.4653 145.336 13.016C145.037 13.576 144.603 14.0147 144.034 14.332C143.474 14.6493 142.802 14.808 142.018 14.808C140.972 14.808 140.104 14.5607 139.414 14.066C138.723 13.5807 138.331 12.918 138.238 12.078H139.82C139.941 12.4793 140.198 12.8013 140.59 13.044C140.991 13.296 141.467 13.422 142.018 13.422C142.662 13.422 143.18 13.226 143.572 12.834C143.973 12.442 144.174 11.8727 144.174 11.126V9.838C143.903 10.202 143.534 10.51 143.068 10.762C142.61 11.0047 142.088 11.126 141.5 11.126C140.828 11.126 140.212 10.958 139.652 10.622C139.101 10.2767 138.662 9.80067 138.336 9.194C138.018 8.578 137.86 7.88267 137.86 7.108C137.86 6.33333 138.018 5.64733 138.336 5.05C138.662 4.45267 139.101 3.99067 139.652 3.664C140.212 3.328 140.828 3.16 141.5 3.16ZM144.174 7.136C144.174 6.604 144.062 6.142 143.838 5.75C143.623 5.358 143.338 5.05933 142.984 4.854C142.629 4.64867 142.246 4.546 141.836 4.546C141.425 4.546 141.042 4.64867 140.688 4.854C140.333 5.05 140.044 5.344 139.82 5.736C139.605 6.11867 139.498 6.576 139.498 7.108C139.498 7.64 139.605 8.10667 139.82 8.508C140.044 8.90933 140.333 9.21733 140.688 9.432C141.052 9.63733 141.434 9.74 141.836 9.74C142.246 9.74 142.629 9.63733 142.984 9.432C143.338 9.22667 143.623 8.928 143.838 8.536C144.062 8.13467 144.174 7.668 144.174 7.136ZM148.132 1.27H149.868L148.398 4.602H147.278L148.132 1.27ZM154.071 11.126C153.464 11.126 152.918 11.0187 152.433 10.804C151.957 10.58 151.579 10.2813 151.299 9.908C151.019 9.52533 150.869 9.10067 150.851 8.634H152.503C152.531 8.96067 152.685 9.236 152.965 9.46C153.254 9.67467 153.613 9.782 154.043 9.782C154.491 9.782 154.836 9.698 155.079 9.53C155.331 9.35267 155.457 9.12867 155.457 8.858C155.457 8.56867 155.317 8.354 155.037 8.214C154.766 8.074 154.332 7.92 153.735 7.752C153.156 7.59333 152.685 7.43933 152.321 7.29C151.957 7.14067 151.639 6.912 151.369 6.604C151.107 6.296 150.977 5.89 150.977 5.386C150.977 4.97533 151.098 4.602 151.341 4.266C151.583 3.92067 151.929 3.65 152.377 3.454C152.834 3.258 153.357 3.16 153.945 3.16C154.822 3.16 155.527 3.384 156.059 3.832C156.6 4.27067 156.889 4.87267 156.927 5.638H155.331C155.303 5.29267 155.163 5.01733 154.911 4.812C154.659 4.60667 154.318 4.504 153.889 4.504C153.469 4.504 153.147 4.58333 152.923 4.742C152.699 4.90067 152.587 5.11067 152.587 5.372C152.587 5.57733 152.661 5.75 152.811 5.89C152.96 6.03 153.142 6.142 153.357 6.226C153.571 6.30067 153.889 6.39867 154.309 6.52C154.869 6.66933 155.326 6.82333 155.681 6.982C156.045 7.13133 156.357 7.35533 156.619 7.654C156.88 7.95267 157.015 8.34933 157.025 8.844C157.025 9.28267 156.903 9.67467 156.661 10.02C156.418 10.3653 156.073 10.636 155.625 10.832C155.186 11.028 154.668 11.126 154.071 11.126ZM165.732 11.126C165.004 11.126 164.346 10.9627 163.758 10.636C163.17 10.3 162.708 9.83333 162.372 9.236C162.036 8.62933 161.868 7.92933 161.868 7.136C161.868 6.352 162.041 5.65667 162.386 5.05C162.731 4.44333 163.203 3.97667 163.8 3.65C164.397 3.32333 165.065 3.16 165.802 3.16C166.539 3.16 167.207 3.32333 167.804 3.65C168.401 3.97667 168.873 4.44333 169.218 5.05C169.563 5.65667 169.736 6.352 169.736 7.136C169.736 7.92 169.559 8.61533 169.204 9.222C168.849 9.82867 168.364 10.3 167.748 10.636C167.141 10.9627 166.469 11.126 165.732 11.126ZM165.732 9.74C166.143 9.74 166.525 9.642 166.88 9.446C167.244 9.25 167.538 8.956 167.762 8.564C167.986 8.172 168.098 7.696 168.098 7.136C168.098 6.576 167.991 6.10467 167.776 5.722C167.561 5.33 167.277 5.036 166.922 4.84C166.567 4.644 166.185 4.546 165.774 4.546C165.363 4.546 164.981 4.644 164.626 4.84C164.281 5.036 164.005 5.33 163.8 5.722C163.595 6.10467 163.492 6.576 163.492 7.136C163.492 7.96667 163.702 8.61067 164.122 9.068C164.551 9.516 165.088 9.74 165.732 9.74ZM174.548 4.588H173.12V11H171.51V4.588H170.6V3.286H171.51V2.74C171.51 1.85333 171.743 1.20933 172.21 0.807999C172.686 0.397333 173.428 0.192 174.436 0.192V1.522C173.95 1.522 173.61 1.61533 173.414 1.802C173.218 1.97933 173.12 2.292 173.12 2.74V3.286H174.548V4.588ZM179.196 4.588H177.768V11H176.158V4.588H175.248V3.286H176.158V2.74C176.158 1.85333 176.391 1.20933 176.858 0.807999C177.334 0.397333 178.076 0.192 179.084 0.192V1.522C178.599 1.522 178.258 1.61533 178.062 1.802C177.866 1.97933 177.768 2.292 177.768 2.74V3.286H179.196V4.588ZM181.255 11.098C180.965 11.098 180.723 11 180.527 10.804C180.331 10.608 180.233 10.3653 180.233 10.076C180.233 9.78667 180.331 9.544 180.527 9.348C180.723 9.152 180.965 9.054 181.255 9.054C181.535 9.054 181.773 9.152 181.969 9.348C182.165 9.544 182.263 9.78667 182.263 10.076C182.263 10.3653 182.165 10.608 181.969 10.804C181.773 11 181.535 11.098 181.255 11.098ZM184.632 11.098C184.342 11.098 184.1 11 183.904 10.804C183.708 10.608 183.61 10.3653 183.61 10.076C183.61 9.78667 183.708 9.544 183.904 9.348C184.1 9.152 184.342 9.054 184.632 9.054C184.912 9.054 185.15 9.152 185.346 9.348C185.542 9.544 185.64 9.78667 185.64 10.076C185.64 10.3653 185.542 10.608 185.346 10.804C185.15 11 184.912 11.098 184.632 11.098ZM188.008 11.098C187.719 11.098 187.476 11 187.28 10.804C187.084 10.608 186.986 10.3653 186.986 10.076C186.986 9.78667 187.084 9.544 187.28 9.348C187.476 9.152 187.719 9.054 188.008 9.054C188.288 9.054 188.526 9.152 188.722 9.348C188.918 9.544 189.016 9.78667 189.016 10.076C189.016 10.3653 188.918 10.608 188.722 10.804C188.526 11 188.288 11.098 188.008 11.098ZM5.49581 32.098C4.59048 32.098 3.75515 31.888 2.98981 31.468C2.23381 31.0387 1.63181 30.446 1.18381 29.69C0.745146 28.9247 0.525813 28.066 0.525813 27.114C0.525813 26.162 0.745146 25.308 1.18381 24.552C1.63181 23.796 2.23381 23.208 2.98981 22.788C3.75515 22.3587 4.59048 22.144 5.49581 22.144C6.41048 22.144 7.24581 22.3587 8.00181 22.788C8.76715 23.208 9.36915 23.796 9.80781 24.552C10.2465 25.308 10.4658 26.162 10.4658 27.114C10.4658 28.066 10.2465 28.9247 9.80781 29.69C9.36915 30.446 8.76715 31.0387 8.00181 31.468C7.24581 31.888 6.41048 32.098 5.49581 32.098ZM5.49581 30.712C6.13981 30.712 6.71381 30.5673 7.21781 30.278C7.72181 29.9793 8.11381 29.5593 8.39381 29.018C8.68315 28.4673 8.82781 27.8327 8.82781 27.114C8.82781 26.3953 8.68315 25.7653 8.39381 25.224C8.11381 24.6827 7.72181 24.2673 7.21781 23.978C6.71381 23.6887 6.13981 23.544 5.49581 23.544C4.85181 23.544 4.27781 23.6887 3.77381 23.978C3.26981 24.2673 2.87315 24.6827 2.58381 25.224C2.30381 25.7653 2.16381 26.3953 2.16381 27.114C2.16381 27.8327 2.30381 28.4673 2.58381 29.018C2.87315 29.5593 3.26981 29.9793 3.77381 30.278C4.27781 30.5673 4.85181 30.712 5.49581 30.712ZM19.0223 24.286V32H17.4263V31.09C17.1743 31.4073 16.843 31.6593 16.4323 31.846C16.031 32.0233 15.6017 32.112 15.1443 32.112C14.5377 32.112 13.9917 31.986 13.5063 31.734C13.0303 31.482 12.6523 31.1087 12.3723 30.614C12.1017 30.1193 11.9663 29.522 11.9663 28.822V24.286H13.5483V28.584C13.5483 29.2747 13.721 29.8067 14.0663 30.18C14.4117 30.544 14.883 30.726 15.4803 30.726C16.0777 30.726 16.549 30.544 16.8943 30.18C17.249 29.8067 17.4263 29.2747 17.4263 28.584V24.286H19.0223ZM22.7241 25.406C22.9575 25.014 23.2655 24.7107 23.6481 24.496C24.0401 24.272 24.5021 24.16 25.0341 24.16V25.812H24.6281C24.0028 25.812 23.5268 25.9707 23.2001 26.288C22.8828 26.6053 22.7241 27.156 22.7241 27.94V32H21.1281V24.286H22.7241V25.406ZM36.0039 30.012H31.9299L31.2299 32H29.5639L33.0499 22.256H34.8979L38.3839 32H36.7039L36.0039 30.012ZM35.5559 28.71L33.9739 24.188L32.3779 28.71H35.5559ZM41.4956 22.27V32H39.8996V22.27H41.4956ZM48.8237 25.434C49.0944 25.0607 49.4631 24.7573 49.9297 24.524C50.4057 24.2813 50.9331 24.16 51.5117 24.16C52.1931 24.16 52.8091 24.3233 53.3597 24.65C53.9104 24.9767 54.3444 25.4433 54.6617 26.05C54.9791 26.6473 55.1377 27.3333 55.1377 28.108C55.1377 28.8827 54.9791 29.578 54.6617 30.194C54.3444 30.8007 53.9057 31.2767 53.3457 31.622C52.7951 31.958 52.1837 32.126 51.5117 32.126C50.9144 32.126 50.3824 32.0093 49.9157 31.776C49.4584 31.5427 49.0944 31.244 48.8237 30.88V32H47.2277V21.64H48.8237V25.434ZM53.5137 28.108C53.5137 27.576 53.4017 27.1187 53.1777 26.736C52.9631 26.344 52.6737 26.05 52.3097 25.854C51.9551 25.6487 51.5724 25.546 51.1617 25.546C50.7604 25.546 50.3777 25.6487 50.0137 25.854C49.6591 26.0593 49.3697 26.358 49.1457 26.75C48.9311 27.142 48.8237 27.604 48.8237 28.136C48.8237 28.668 48.9311 29.1347 49.1457 29.536C49.3697 29.928 49.6591 30.2267 50.0137 30.432C50.3777 30.6373 50.7604 30.74 51.1617 30.74C51.5724 30.74 51.9551 30.6373 52.3097 30.432C52.6737 30.2173 52.9631 29.9093 53.1777 29.508C53.4017 29.1067 53.5137 28.64 53.5137 28.108ZM60.062 32.126C59.334 32.126 58.676 31.9627 58.088 31.636C57.5 31.3 57.038 30.8333 56.702 30.236C56.366 29.6293 56.198 28.9293 56.198 28.136C56.198 27.352 56.3707 26.6567 56.716 26.05C57.0613 25.4433 57.5327 24.9767 58.13 24.65C58.7273 24.3233 59.3947 24.16 60.132 24.16C60.8693 24.16 61.5367 24.3233 62.134 24.65C62.7313 24.9767 63.2027 25.4433 63.548 26.05C63.8933 26.6567 64.066 27.352 64.066 28.136C64.066 28.92 63.8887 29.6153 63.534 30.222C63.1793 30.8287 62.694 31.3 62.078 31.636C61.4713 31.9627 60.7993 32.126 60.062 32.126ZM60.062 30.74C60.4727 30.74 60.8553 30.642 61.21 30.446C61.574 30.25 61.868 29.956 62.092 29.564C62.316 29.172 62.428 28.696 62.428 28.136C62.428 27.576 62.3207 27.1047 62.106 26.722C61.8913 26.33 61.6067 26.036 61.252 25.84C60.8973 25.644 60.5147 25.546 60.104 25.546C59.6933 25.546 59.3107 25.644 58.956 25.84C58.6107 26.036 58.3353 26.33 58.13 26.722C57.9247 27.1047 57.822 27.576 57.822 28.136C57.822 28.9667 58.032 29.6107 58.452 30.068C58.8813 30.516 59.418 30.74 60.062 30.74ZM67.5058 25.588V29.858C67.5058 30.1473 67.5711 30.3573 67.7018 30.488C67.8418 30.6093 68.0751 30.67 68.4018 30.67H69.3818V32H68.1218C67.4031 32 66.8524 31.832 66.4698 31.496C66.0871 31.16 65.8958 30.614 65.8958 29.858V25.588H64.9858V24.286H65.8958V22.368H67.5058V24.286H69.3818V25.588H67.5058ZM73.6527 32.126C73.0461 32.126 72.5001 32.0187 72.0147 31.804C71.5387 31.58 71.1607 31.2813 70.8807 30.908C70.6007 30.5253 70.4514 30.1007 70.4327 29.634H72.0847C72.1127 29.9607 72.2667 30.236 72.5467 30.46C72.8361 30.6747 73.1954 30.782 73.6247 30.782C74.0727 30.782 74.4181 30.698 74.6607 30.53C74.9127 30.3527 75.0387 30.1287 75.0387 29.858C75.0387 29.5687 74.8987 29.354 74.6187 29.214C74.3481 29.074 73.9141 28.92 73.3167 28.752C72.7381 28.5933 72.2667 28.4393 71.9027 28.29C71.5387 28.1407 71.2214 27.912 70.9507 27.604C70.6894 27.296 70.5587 26.89 70.5587 26.386C70.5587 25.9753 70.6801 25.602 70.9227 25.266C71.1654 24.9207 71.5107 24.65 71.9587 24.454C72.4161 24.258 72.9387 24.16 73.5267 24.16C74.4041 24.16 75.1087 24.384 75.6407 24.832C76.1821 25.2707 76.4714 25.8727 76.5087 26.638H74.9127C74.8847 26.2927 74.7447 26.0173 74.4927 25.812C74.2407 25.6067 73.9001 25.504 73.4707 25.504C73.0507 25.504 72.7287 25.5833 72.5047 25.742C72.2807 25.9007 72.1687 26.1107 72.1687 26.372C72.1687 26.5773 72.2434 26.75 72.3927 26.89C72.5421 27.03 72.7241 27.142 72.9387 27.226C73.1534 27.3007 73.4707 27.3987 73.8907 27.52C74.4507 27.6693 74.9081 27.8233 75.2627 27.982C75.6267 28.1313 75.9394 28.3553 76.2007 28.654C76.4621 28.9527 76.5974 29.3493 76.6067 29.844C76.6067 30.2827 76.4854 30.6747 76.2427 31.02C76.0001 31.3653 75.6547 31.636 75.2067 31.832C74.7681 32.028 74.2501 32.126 73.6527 32.126ZM85.958 24.16C86.546 24.16 87.0686 24.286 87.526 24.538C87.9926 24.79 88.3566 25.1633 88.618 25.658C88.8886 26.1527 89.024 26.75 89.024 27.45V32H87.442V27.688C87.442 26.9973 87.2693 26.47 86.924 26.106C86.5786 25.7327 86.1073 25.546 85.51 25.546C84.9126 25.546 84.4366 25.7327 84.082 26.106C83.7366 26.47 83.564 26.9973 83.564 27.688V32H81.968V21.64H83.564V25.182C83.8346 24.8553 84.1753 24.6033 84.586 24.426C85.006 24.2487 85.4633 24.16 85.958 24.16ZM90.5278 28.108C90.5278 27.3333 90.6864 26.6473 91.0038 26.05C91.3304 25.4527 91.7691 24.9907 92.3198 24.664C92.8798 24.328 93.4958 24.16 94.1678 24.16C94.7744 24.16 95.3018 24.2813 95.7498 24.524C96.2071 24.7573 96.5711 25.0513 96.8418 25.406V24.286H98.4518V32H96.8418V30.852C96.5711 31.216 96.2024 31.5193 95.7358 31.762C95.2691 32.0047 94.7371 32.126 94.1398 32.126C93.4771 32.126 92.8704 31.958 92.3198 31.622C91.7691 31.2767 91.3304 30.8007 91.0038 30.194C90.6864 29.578 90.5278 28.8827 90.5278 28.108ZM96.8418 28.136C96.8418 27.604 96.7298 27.142 96.5058 26.75C96.2911 26.358 96.0064 26.0593 95.6518 25.854C95.2971 25.6487 94.9144 25.546 94.5038 25.546C94.0931 25.546 93.7104 25.6487 93.3558 25.854C93.0011 26.05 92.7118 26.344 92.4878 26.736C92.2731 27.1187 92.1658 27.576 92.1658 28.108C92.1658 28.64 92.2731 29.1067 92.4878 29.508C92.7118 29.9093 93.0011 30.2173 93.3558 30.432C93.7198 30.6373 94.1024 30.74 94.5038 30.74C94.9144 30.74 95.2971 30.6373 95.6518 30.432C96.0064 30.2267 96.2911 29.928 96.5058 29.536C96.7298 29.1347 96.8418 28.668 96.8418 28.136ZM103.53 30.572L105.714 24.286H107.408L104.468 32H102.564L99.638 24.286H101.346L103.53 30.572ZM115.684 27.954C115.684 28.2433 115.666 28.5047 115.628 28.738H109.734C109.781 29.354 110.01 29.8487 110.42 30.222C110.831 30.5953 111.335 30.782 111.932 30.782C112.791 30.782 113.398 30.4227 113.752 29.704H115.474C115.241 30.4133 114.816 30.9967 114.2 31.454C113.594 31.902 112.838 32.126 111.932 32.126C111.195 32.126 110.532 31.9627 109.944 31.636C109.366 31.3 108.908 30.8333 108.572 30.236C108.246 29.6293 108.082 28.9293 108.082 28.136C108.082 27.3427 108.241 26.6473 108.558 26.05C108.885 25.4433 109.338 24.9767 109.916 24.65C110.504 24.3233 111.176 24.16 111.932 24.16C112.66 24.16 113.309 24.3187 113.878 24.636C114.448 24.9533 114.891 25.4013 115.208 25.98C115.526 26.5493 115.684 27.2073 115.684 27.954ZM114.018 27.45C114.009 26.862 113.799 26.3907 113.388 26.036C112.978 25.6813 112.469 25.504 111.862 25.504C111.312 25.504 110.84 25.6813 110.448 26.036C110.056 26.3813 109.823 26.8527 109.748 27.45H114.018ZM120.36 28.108C120.36 27.3333 120.518 26.6473 120.836 26.05C121.162 25.4527 121.601 24.9907 122.152 24.664C122.712 24.328 123.332 24.16 124.014 24.16C124.518 24.16 125.012 24.272 125.498 24.496C125.992 24.7107 126.384 25 126.674 25.364V21.64H128.284V32H126.674V30.838C126.412 31.2113 126.048 31.5193 125.582 31.762C125.124 32.0047 124.597 32.126 124 32.126C123.328 32.126 122.712 31.958 122.152 31.622C121.601 31.2767 121.162 30.8007 120.836 30.194C120.518 29.578 120.36 28.8827 120.36 28.108ZM126.674 28.136C126.674 27.604 126.562 27.142 126.338 26.75C126.123 26.358 125.838 26.0593 125.484 25.854C125.129 25.6487 124.746 25.546 124.336 25.546C123.925 25.546 123.542 25.6487 123.188 25.854C122.833 26.05 122.544 26.344 122.32 26.736C122.105 27.1187 121.998 27.576 121.998 28.108C121.998 28.64 122.105 29.1067 122.32 29.508C122.544 29.9093 122.833 30.2173 123.188 30.432C123.552 30.6373 123.934 30.74 124.336 30.74C124.746 30.74 125.129 30.6373 125.484 30.432C125.838 30.2267 126.123 29.928 126.338 29.536C126.562 29.1347 126.674 28.668 126.674 28.136ZM137.45 27.954C137.45 28.2433 137.431 28.5047 137.394 28.738H131.5C131.547 29.354 131.775 29.8487 132.186 30.222C132.597 30.5953 133.101 30.782 133.698 30.782C134.557 30.782 135.163 30.4227 135.518 29.704H137.24C137.007 30.4133 136.582 30.9967 135.966 31.454C135.359 31.902 134.603 32.126 133.698 32.126C132.961 32.126 132.298 31.9627 131.71 31.636C131.131 31.3 130.674 30.8333 130.338 30.236C130.011 29.6293 129.848 28.9293 129.848 28.136C129.848 27.3427 130.007 26.6473 130.324 26.05C130.651 25.4433 131.103 24.9767 131.682 24.65C132.27 24.3233 132.942 24.16 133.698 24.16C134.426 24.16 135.075 24.3187 135.644 24.636C136.213 24.9533 136.657 25.4013 136.974 25.98C137.291 26.5493 137.45 27.2073 137.45 27.954ZM135.784 27.45C135.775 26.862 135.565 26.3907 135.154 26.036C134.743 25.6813 134.235 25.504 133.628 25.504C133.077 25.504 132.606 25.6813 132.214 26.036C131.822 26.3813 131.589 26.8527 131.514 27.45H135.784ZM140.617 25.42C140.887 25.0653 141.256 24.7667 141.723 24.524C142.189 24.2813 142.717 24.16 143.305 24.16C143.977 24.16 144.588 24.328 145.139 24.664C145.699 24.9907 146.137 25.4527 146.455 26.05C146.772 26.6473 146.931 27.3333 146.931 28.108C146.931 28.8827 146.772 29.578 146.455 30.194C146.137 30.8007 145.699 31.2767 145.139 31.622C144.588 31.958 143.977 32.126 143.305 32.126C142.717 32.126 142.194 32.0093 141.737 31.776C141.279 31.5333 140.906 31.2347 140.617 30.88V35.668H139.021V24.286H140.617V25.42ZM145.307 28.108C145.307 27.576 145.195 27.1187 144.971 26.736C144.756 26.344 144.467 26.05 144.103 25.854C143.748 25.6487 143.365 25.546 142.955 25.546C142.553 25.546 142.171 25.6487 141.807 25.854C141.452 26.0593 141.163 26.358 140.939 26.75C140.724 27.142 140.617 27.604 140.617 28.136C140.617 28.668 140.724 29.1347 140.939 29.536C141.163 29.928 141.452 30.2267 141.807 30.432C142.171 30.6373 142.553 30.74 142.955 30.74C143.365 30.74 143.748 30.6373 144.103 30.432C144.467 30.2173 144.756 29.9093 144.971 29.508C145.195 29.1067 145.307 28.64 145.307 28.108ZM150.105 21.64V32H148.509V21.64H150.105ZM155.546 32.126C154.818 32.126 154.16 31.9627 153.572 31.636C152.984 31.3 152.522 30.8333 152.186 30.236C151.85 29.6293 151.682 28.9293 151.682 28.136C151.682 27.352 151.855 26.6567 152.2 26.05C152.546 25.4433 153.017 24.9767 153.614 24.65C154.212 24.3233 154.879 24.16 155.616 24.16C156.354 24.16 157.021 24.3233 157.618 24.65C158.216 24.9767 158.687 25.4433 159.032 26.05C159.378 26.6567 159.55 27.352 159.55 28.136C159.55 28.92 159.373 29.6153 159.018 30.222C158.664 30.8287 158.178 31.3 157.562 31.636C156.956 31.9627 156.284 32.126 155.546 32.126ZM155.546 30.74C155.957 30.74 156.34 30.642 156.694 30.446C157.058 30.25 157.352 29.956 157.576 29.564C157.8 29.172 157.912 28.696 157.912 28.136C157.912 27.576 157.805 27.1047 157.59 26.722C157.376 26.33 157.091 26.036 156.736 25.84C156.382 25.644 155.999 25.546 155.588 25.546C155.178 25.546 154.795 25.644 154.44 25.84C154.095 26.036 153.82 26.33 153.614 26.722C153.409 27.1047 153.306 27.576 153.306 28.136C153.306 28.9667 153.516 29.6107 153.936 30.068C154.366 30.516 154.902 30.74 155.546 30.74ZM168.072 24.286L163.34 35.626H161.688L163.256 31.874L160.218 24.286H161.996L164.166 30.166L166.42 24.286H168.072ZM176.347 27.954C176.347 28.2433 176.328 28.5047 176.291 28.738H170.397C170.443 29.354 170.672 29.8487 171.083 30.222C171.493 30.5953 171.997 30.782 172.595 30.782C173.453 30.782 174.06 30.4227 174.415 29.704H176.137C175.903 30.4133 175.479 30.9967 174.863 31.454C174.256 31.902 173.5 32.126 172.595 32.126C171.857 32.126 171.195 31.9627 170.607 31.636C170.028 31.3 169.571 30.8333 169.235 30.236C168.908 29.6293 168.745 28.9293 168.745 28.136C168.745 27.3427 168.903 26.6473 169.221 26.05C169.547 25.4433 170 24.9767 170.579 24.65C171.167 24.3233 171.839 24.16 172.595 24.16C173.323 24.16 173.971 24.3187 174.541 24.636C175.11 24.9533 175.553 25.4013 175.871 25.98C176.188 26.5493 176.347 27.2073 176.347 27.954ZM174.681 27.45C174.671 26.862 174.461 26.3907 174.051 26.036C173.64 25.6813 173.131 25.504 172.525 25.504C171.974 25.504 171.503 25.6813 171.111 26.036C170.719 26.3813 170.485 26.8527 170.411 27.45H174.681ZM177.385 28.108C177.385 27.3333 177.544 26.6473 177.861 26.05C178.188 25.4527 178.627 24.9907 179.177 24.664C179.737 24.328 180.358 24.16 181.039 24.16C181.543 24.16 182.038 24.272 182.523 24.496C183.018 24.7107 183.41 25 183.699 25.364V21.64H185.309V32H183.699V30.838C183.438 31.2113 183.074 31.5193 182.607 31.762C182.15 32.0047 181.623 32.126 181.025 32.126C180.353 32.126 179.737 31.958 179.177 31.622C178.627 31.2767 178.188 30.8007 177.861 30.194C177.544 29.578 177.385 28.8827 177.385 28.108ZM183.699 28.136C183.699 27.604 183.587 27.142 183.363 26.75C183.149 26.358 182.864 26.0593 182.509 25.854C182.155 25.6487 181.772 25.546 181.361 25.546C180.951 25.546 180.568 25.6487 180.213 25.854C179.859 26.05 179.569 26.344 179.345 26.736C179.131 27.1187 179.023 27.576 179.023 28.108C179.023 28.64 179.131 29.1067 179.345 29.508C179.569 29.9093 179.859 30.2173 180.213 30.432C180.577 30.6373 180.96 30.74 181.361 30.74C181.772 30.74 182.155 30.6373 182.509 30.432C182.864 30.2267 183.149 29.928 183.363 29.536C183.587 29.1347 183.699 28.668 183.699 28.136ZM40.8388 46.588V50.858C40.8388 51.1473 40.9041 51.3573 41.0348 51.488C41.1748 51.6093 41.4081 51.67 41.7348 51.67H42.7148V53H41.4548C40.7361 53 40.1854 52.832 39.8028 52.496C39.4201 52.16 39.2288 51.614 39.2288 50.858V46.588H38.3188V45.286H39.2288V43.368H40.8388V45.286H42.7148V46.588H40.8388ZM47.5317 53.126C46.8037 53.126 46.1457 52.9627 45.5577 52.636C44.9697 52.3 44.5077 51.8333 44.1717 51.236C43.8357 50.6293 43.6677 49.9293 43.6677 49.136C43.6677 48.352 43.8404 47.6567 44.1857 47.05C44.5311 46.4433 45.0024 45.9767 45.5997 45.65C46.1971 45.3233 46.8644 45.16 47.6017 45.16C48.3391 45.16 49.0064 45.3233 49.6037 45.65C50.2011 45.9767 50.6724 46.4433 51.0177 47.05C51.3631 47.6567 51.5357 48.352 51.5357 49.136C51.5357 49.92 51.3584 50.6153 51.0037 51.222C50.6491 51.8287 50.1637 52.3 49.5477 52.636C48.9411 52.9627 48.2691 53.126 47.5317 53.126ZM47.5317 51.74C47.9424 51.74 48.3251 51.642 48.6797 51.446C49.0437 51.25 49.3377 50.956 49.5617 50.564C49.7857 50.172 49.8977 49.696 49.8977 49.136C49.8977 48.576 49.7904 48.1047 49.5757 47.722C49.3611 47.33 49.0764 47.036 48.7217 46.84C48.3671 46.644 47.9844 46.546 47.5737 46.546C47.1631 46.546 46.7804 46.644 46.4257 46.84C46.0804 47.036 45.8051 47.33 45.5997 47.722C45.3944 48.1047 45.2917 48.576 45.2917 49.136C45.2917 49.9667 45.5017 50.6107 45.9217 51.068C46.3511 51.516 46.8877 51.74 47.5317 51.74ZM58.3462 46.42C58.6169 46.0653 58.9855 45.7667 59.4522 45.524C59.9189 45.2813 60.4462 45.16 61.0342 45.16C61.7062 45.16 62.3175 45.328 62.8682 45.664C63.4282 45.9907 63.8669 46.4527 64.1842 47.05C64.5015 47.6473 64.6602 48.3333 64.6602 49.108C64.6602 49.8827 64.5015 50.578 64.1842 51.194C63.8669 51.8007 63.4282 52.2767 62.8682 52.622C62.3175 52.958 61.7062 53.126 61.0342 53.126C60.4462 53.126 59.9235 53.0093 59.4662 52.776C59.0089 52.5333 58.6355 52.2347 58.3462 51.88V56.668H56.7502V45.286H58.3462V46.42ZM63.0362 49.108C63.0362 48.576 62.9242 48.1187 62.7002 47.736C62.4855 47.344 62.1962 47.05 61.8322 46.854C61.4775 46.6487 61.0949 46.546 60.6842 46.546C60.2829 46.546 59.9002 46.6487 59.5362 46.854C59.1815 47.0593 58.8922 47.358 58.6682 47.75C58.4535 48.142 58.3462 48.604 58.3462 49.136C58.3462 49.668 58.4535 50.1347 58.6682 50.536C58.8922 50.928 59.1815 51.2267 59.5362 51.432C59.9002 51.6373 60.2829 51.74 60.6842 51.74C61.0949 51.74 61.4775 51.6373 61.8322 51.432C62.1962 51.2173 62.4855 50.9093 62.7002 50.508C62.9242 50.1067 63.0362 49.64 63.0362 49.108ZM65.7065 49.108C65.7065 48.3333 65.8651 47.6473 66.1825 47.05C66.5091 46.4527 66.9478 45.9907 67.4985 45.664C68.0585 45.328 68.6745 45.16 69.3465 45.16C69.9531 45.16 70.4805 45.2813 70.9285 45.524C71.3858 45.7573 71.7498 46.0513 72.0205 46.406V45.286H73.6305V53H72.0205V51.852C71.7498 52.216 71.3811 52.5193 70.9145 52.762C70.4478 53.0047 69.9158 53.126 69.3185 53.126C68.6558 53.126 68.0491 52.958 67.4985 52.622C66.9478 52.2767 66.5091 51.8007 66.1825 51.194C65.8651 50.578 65.7065 49.8827 65.7065 49.108ZM72.0205 49.136C72.0205 48.604 71.9085 48.142 71.6845 47.75C71.4698 47.358 71.1851 47.0593 70.8305 46.854C70.4758 46.6487 70.0931 46.546 69.6825 46.546C69.2718 46.546 68.8891 46.6487 68.5345 46.854C68.1798 47.05 67.8905 47.344 67.6665 47.736C67.4518 48.1187 67.3445 48.576 67.3445 49.108C67.3445 49.64 67.4518 50.1067 67.6665 50.508C67.8905 50.9093 68.1798 51.2173 68.5345 51.432C68.8985 51.6373 69.2811 51.74 69.6825 51.74C70.0931 51.74 70.4758 51.6373 70.8305 51.432C71.1851 51.2267 71.4698 50.928 71.6845 50.536C71.9085 50.1347 72.0205 49.668 72.0205 49.136ZM77.5888 46.588V50.858C77.5888 51.1473 77.6541 51.3573 77.7848 51.488C77.9248 51.6093 78.1581 51.67 78.4848 51.67H79.4648V53H78.2048C77.4861 53 76.9354 52.832 76.5528 52.496C76.1701 52.16 75.9788 51.614 75.9788 50.858V46.588H75.0688V45.286H75.9788V43.368H77.5888V45.286H79.4648V46.588H77.5888ZM80.4037 49.136C80.4037 48.3427 80.5624 47.6473 80.8797 47.05C81.2064 46.4433 81.6544 45.9767 82.2237 45.65C82.7931 45.3233 83.4464 45.16 84.1837 45.16C85.1171 45.16 85.8871 45.384 86.4937 45.832C87.1097 46.2707 87.5251 46.9007 87.7397 47.722H86.0177C85.8777 47.3393 85.6537 47.0407 85.3457 46.826C85.0377 46.6113 84.6504 46.504 84.1837 46.504C83.5304 46.504 83.0077 46.7373 82.6157 47.204C82.2331 47.6613 82.0417 48.3053 82.0417 49.136C82.0417 49.9667 82.2331 50.6153 82.6157 51.082C83.0077 51.5487 83.5304 51.782 84.1837 51.782C85.1077 51.782 85.7191 51.376 86.0177 50.564H87.7397C87.5157 51.348 87.0957 51.9733 86.4797 52.44C85.8637 52.8973 85.0984 53.126 84.1837 53.126C83.4464 53.126 82.7931 52.9627 82.2237 52.636C81.6544 52.3 81.2064 51.8333 80.8797 51.236C80.5624 50.6293 80.4037 49.9293 80.4037 49.136ZM93.3203 45.16C93.9083 45.16 94.4309 45.286 94.8883 45.538C95.3549 45.79 95.7189 46.1633 95.9803 46.658C96.2509 47.1527 96.3863 47.75 96.3863 48.45V53H94.8043V48.688C94.8043 47.9973 94.6316 47.47 94.2863 47.106C93.9409 46.7327 93.4696 46.546 92.8723 46.546C92.2749 46.546 91.7989 46.7327 91.4443 47.106C91.0989 47.47 90.9263 47.9973 90.9263 48.688V53H89.3303V42.64H90.9263V46.182C91.1969 45.8553 91.5376 45.6033 91.9483 45.426C92.3683 45.2487 92.8256 45.16 93.3203 45.16ZM103.921 46.588V50.858C103.921 51.1473 103.986 51.3573 104.117 51.488C104.257 51.6093 104.49 51.67 104.817 51.67H105.797V53H104.537C103.818 53 103.267 52.832 102.885 52.496C102.502 52.16 102.311 51.614 102.311 50.858V46.588H101.401V45.286H102.311V43.368H103.921V45.286H105.797V46.588H103.921ZM111.258 45.16C111.846 45.16 112.368 45.286 112.826 45.538C113.292 45.79 113.656 46.1633 113.918 46.658C114.188 47.1527 114.324 47.75 114.324 48.45V53H112.742V48.688C112.742 47.9973 112.569 47.47 112.224 47.106C111.878 46.7327 111.407 46.546 110.81 46.546C110.212 46.546 109.736 46.7327 109.382 47.106C109.036 47.47 108.864 47.9973 108.864 48.688V53H107.268V42.64H108.864V46.182C109.134 45.8553 109.475 45.6033 109.886 45.426C110.306 45.2487 110.763 45.16 111.258 45.16ZM117.172 44.264C116.882 44.264 116.64 44.166 116.444 43.97C116.248 43.774 116.15 43.5313 116.15 43.242C116.15 42.9527 116.248 42.71 116.444 42.514C116.64 42.318 116.882 42.22 117.172 42.22C117.452 42.22 117.69 42.318 117.886 42.514C118.082 42.71 118.18 42.9527 118.18 43.242C118.18 43.5313 118.082 43.774 117.886 43.97C117.69 44.166 117.452 44.264 117.172 44.264ZM117.956 45.286V53H116.36V45.286H117.956ZM122.851 53.126C122.244 53.126 121.698 53.0187 121.213 52.804C120.737 52.58 120.359 52.2813 120.079 51.908C119.799 51.5253 119.65 51.1007 119.631 50.634H121.283C121.311 50.9607 121.465 51.236 121.745 51.46C122.034 51.6747 122.394 51.782 122.823 51.782C123.271 51.782 123.616 51.698 123.859 51.53C124.111 51.3527 124.237 51.1287 124.237 50.858C124.237 50.5687 124.097 50.354 123.817 50.214C123.546 50.074 123.112 49.92 122.515 49.752C121.936 49.5933 121.465 49.4393 121.101 49.29C120.737 49.1407 120.42 48.912 120.149 48.604C119.888 48.296 119.757 47.89 119.757 47.386C119.757 46.9753 119.878 46.602 120.121 46.266C120.364 45.9207 120.709 45.65 121.157 45.454C121.614 45.258 122.137 45.16 122.725 45.16C123.602 45.16 124.307 45.384 124.839 45.832C125.38 46.2707 125.67 46.8727 125.707 47.638H124.111C124.083 47.2927 123.943 47.0173 123.691 46.812C123.439 46.6067 123.098 46.504 122.669 46.504C122.249 46.504 121.927 46.5833 121.703 46.742C121.479 46.9007 121.367 47.1107 121.367 47.372C121.367 47.5773 121.442 47.75 121.591 47.89C121.74 48.03 121.922 48.142 122.137 48.226C122.352 48.3007 122.669 48.3987 123.089 48.52C123.649 48.6693 124.106 48.8233 124.461 48.982C124.825 49.1313 125.138 49.3553 125.399 49.654C125.66 49.9527 125.796 50.3493 125.805 50.844C125.805 51.2827 125.684 51.6747 125.441 52.02C125.198 52.3653 124.853 52.636 124.405 52.832C123.966 53.028 123.448 53.126 122.851 53.126ZM138.152 45.286V53H136.556V52.09C136.304 52.4073 135.973 52.6593 135.562 52.846C135.161 53.0233 134.732 53.112 134.274 53.112C133.668 53.112 133.122 52.986 132.636 52.734C132.16 52.482 131.782 52.1087 131.502 51.614C131.232 51.1193 131.096 50.522 131.096 49.822V45.286H132.678V49.584C132.678 50.2747 132.851 50.8067 133.196 51.18C133.542 51.544 134.013 51.726 134.61 51.726C135.208 51.726 135.679 51.544 136.024 51.18C136.379 50.8067 136.556 50.2747 136.556 49.584V45.286H138.152ZM141.854 46.42C142.125 46.0653 142.493 45.7667 142.96 45.524C143.427 45.2813 143.954 45.16 144.542 45.16C145.214 45.16 145.825 45.328 146.376 45.664C146.936 45.9907 147.375 46.4527 147.692 47.05C148.009 47.6473 148.168 48.3333 148.168 49.108C148.168 49.8827 148.009 50.578 147.692 51.194C147.375 51.8007 146.936 52.2767 146.376 52.622C145.825 52.958 145.214 53.126 144.542 53.126C143.954 53.126 143.431 53.0093 142.974 52.776C142.517 52.5333 142.143 52.2347 141.854 51.88V56.668H140.258V45.286H141.854V46.42ZM146.544 49.108C146.544 48.576 146.432 48.1187 146.208 47.736C145.993 47.344 145.704 47.05 145.34 46.854C144.985 46.6487 144.603 46.546 144.192 46.546C143.791 46.546 143.408 46.6487 143.044 46.854C142.689 47.0593 142.4 47.358 142.176 47.75C141.961 48.142 141.854 48.604 141.854 49.136C141.854 49.668 141.961 50.1347 142.176 50.536C142.4 50.928 142.689 51.2267 143.044 51.432C143.408 51.6373 143.791 51.74 144.192 51.74C144.603 51.74 144.985 51.6373 145.34 51.432C145.704 51.2173 145.993 50.9093 146.208 50.508C146.432 50.1067 146.544 49.64 146.544 49.108ZM150.39 53.098C150.101 53.098 149.858 53 149.662 52.804C149.466 52.608 149.368 52.3653 149.368 52.076C149.368 51.7867 149.466 51.544 149.662 51.348C149.858 51.152 150.101 51.054 150.39 51.054C150.67 51.054 150.908 51.152 151.104 51.348C151.3 51.544 151.398 51.7867 151.398 52.076C151.398 52.3653 151.3 52.608 151.104 52.804C150.908 53 150.67 53.098 150.39 53.098Z" fill="#888888"/>
</svg>
