<svg width="302" height="302" viewBox="0 0 302 302" fill="none" xmlns="http://www.w3.org/2000/svg">
<rect opacity="0.0344828" x="26.4731" y="233.91" width="190.946" height="230.357" transform="rotate(-84 26.4731 233.91)" stroke="#FFA9A3" stroke-width="2"/>
<rect opacity="0.0689655" x="22.3043" y="227.28" width="190.946" height="230.357" transform="rotate(-81 22.3043 227.28)" stroke="#FFA9A3" stroke-width="2"/>
<rect opacity="0.103448" x="18.4888" y="220.439" width="190.946" height="230.357" transform="rotate(-78 18.4888 220.439)" stroke="#FFA9A3" stroke-width="2"/>
<rect opacity="0.137931" x="15.0358" y="213.41" width="190.946" height="230.357" transform="rotate(-75 15.0358 213.41)" stroke="#FFA9A3" stroke-width="2"/>
<rect opacity="0.172414" x="11.9559" y="206.208" width="190.946" height="230.357" transform="rotate(-72 11.9559 206.208)" stroke="#FFA9A3" stroke-width="2"/>
<rect opacity="0.206897" x="9.25728" y="198.856" width="190.946" height="230.357" transform="rotate(-69 9.25728 198.856)" stroke="#FFA9A3" stroke-width="2"/>
<rect opacity="0.241379" x="6.94675" y="191.371" width="190.946" height="230.357" transform="rotate(-66 6.94675 191.371)" stroke="#FFA9A3" stroke-width="2"/>
<rect opacity="0.275862" x="5.03152" y="183.777" width="190.946" height="230.357" transform="rotate(-63 5.03152 183.777)" stroke="#FFA9A3" stroke-width="2"/>
<rect opacity="0.310345" x="3.51593" y="176.092" width="190.946" height="230.357" transform="rotate(-60 3.51593 176.092)" stroke="#FFA9A3" stroke-width="2"/>
<rect opacity="0.344828" x="2.40528" y="168.34" width="190.946" height="230.357" transform="rotate(-57 2.40528 168.34)" stroke="#FFA9A3" stroke-width="2"/>
<rect opacity="0.37931" x="1.701" y="160.539" width="190.946" height="230.357" transform="rotate(-54 1.701 160.539)" stroke="#FFA9A3" stroke-width="2"/>
<rect opacity="0.413793" x="1.40647" y="152.712" width="190.946" height="230.357" transform="rotate(-51 1.40647 152.712)" stroke="#FFA9A3" stroke-width="2"/>
<rect opacity="0.448276" x="1.52165" y="144.881" width="190.946" height="230.357" transform="rotate(-48 1.52165 144.881)" stroke="#FFA9A3" stroke-width="2"/>
<rect opacity="0.482759" x="2.04703" y="137.066" width="190.946" height="230.357" transform="rotate(-45 2.04703 137.066)" stroke="#FFA9A3" stroke-width="2"/>
<rect opacity="0.517241" x="2.98015" y="129.289" width="190.946" height="230.357" transform="rotate(-42 2.98015 129.289)" stroke="#FFA9A3" stroke-width="2"/>
<rect opacity="0.551724" x="4.31955" y="121.573" width="190.946" height="230.357" transform="rotate(-39 4.31955 121.573)" stroke="#FFA9A3" stroke-width="2"/>
<rect opacity="0.586207" x="6.06038" y="113.936" width="190.946" height="230.357" transform="rotate(-36 6.06038 113.936)" stroke="#FFA9A3" stroke-width="2"/>
<rect opacity="0.62069" x="8.19874" y="106.401" width="190.946" height="230.357" transform="rotate(-33 8.19874 106.401)" stroke="#FFA9A3" stroke-width="2"/>
<rect opacity="0.655172" x="10.7288" y="98.9893" width="190.946" height="230.357" transform="rotate(-30 10.7288 98.9893)" stroke="#FFA9A3" stroke-width="2"/>
<rect opacity="0.689655" x="13.6428" y="91.719" width="190.946" height="230.357" transform="rotate(-27 13.6428 91.719)" stroke="#FFA9A3" stroke-width="2"/>
<rect opacity="0.724138" x="16.9341" y="84.6111" width="190.946" height="230.357" transform="rotate(-24 16.9341 84.6111)" stroke="#FFA9A3" stroke-width="2"/>
<rect opacity="0.758621" x="20.5918" y="77.6861" width="190.946" height="230.357" transform="rotate(-21 20.5918 77.6861)" stroke="#FFA9A3" stroke-width="2"/>
<rect opacity="0.793103" x="24.6077" y="70.9616" width="190.946" height="230.357" transform="rotate(-18 24.6077 70.9616)" stroke="#FFA9A3" stroke-width="2"/>
<rect opacity="0.827586" x="28.9699" y="64.4566" width="190.946" height="230.357" transform="rotate(-15 28.9699 64.4566)" stroke="#FFA9A3" stroke-width="2"/>
<rect opacity="0.862069" x="33.666" y="58.1887" width="190.946" height="230.357" transform="rotate(-12 33.666 58.1887)" stroke="#FFA9A3" stroke-width="2"/>
<rect opacity="0.896552" x="38.6847" y="52.1745" width="190.946" height="230.357" transform="rotate(-9 38.6847 52.1745)" stroke="#FFA9A3" stroke-width="2"/>
<rect opacity="0.931035" x="44.0102" y="46.4322" width="190.946" height="230.357" transform="rotate(-6 44.0102 46.4322)" stroke="#FFA9A3" stroke-width="2"/>
<rect opacity="0.965517" x="49.6296" y="40.9753" width="190.946" height="230.357" transform="rotate(-3 49.6296 40.9753)" stroke="#FFA9A3" stroke-width="2"/>
<rect x="55.5269" y="35.821" width="190.946" height="230.357" stroke="#FFA9A3" stroke-width="2"/>
<mask id="path-30-outside-1_153_874" maskUnits="userSpaceOnUse" x="100" y="96" width="98" height="111" fill="black">
<rect fill="white" x="100" y="96" width="98" height="111"/>
<path d="M115.718 128.646C115.718 132.203 116.317 134.929 117.516 136.824C118.753 138.719 120.957 139.666 124.128 139.666C127.299 139.666 129.735 138.68 131.436 136.708C133.137 134.736 133.988 131.739 133.988 127.718V101.502H130.218V100.4H138.686V101.502H135.496V127.312C135.496 132.107 134.433 135.683 132.306 138.042C130.179 140.401 126.409 141.58 120.996 141.58C115.621 141.58 111.503 140.459 108.642 138.216C105.819 135.973 104.408 132.126 104.408 126.674V101.502H101.218V100.4H119.488V101.502H115.718V128.646ZM140.172 97.5H154.15V118.728C154.768 116.949 155.716 115.519 156.992 114.436C158.268 113.353 160.201 112.812 162.792 112.812C168.785 112.812 171.782 116.041 171.782 122.498V139.956H175.03V141H158.616V139.956H160.994V121.106C160.994 118.786 160.839 117.297 160.53 116.64C160.22 115.944 159.66 115.596 158.848 115.596C157.61 115.596 156.508 116.408 155.542 118.032C154.614 119.656 154.15 121.628 154.15 123.948V139.956H156.644V141H140.172V139.956H143.362V98.544H140.172V97.5ZM129.058 187.078V182.786C129.058 175.71 128.71 171.244 128.014 169.388C127.241 167.261 126.139 165.947 124.708 165.444C123.896 165.135 122.91 164.98 121.75 164.98C120.59 164.98 119.585 165.135 118.734 165.444C117.922 165.753 117.245 166.295 116.704 167.068C116.163 167.841 115.718 168.653 115.37 169.504C115.061 170.355 114.809 171.553 114.616 173.1C114.384 175.343 114.268 178.649 114.268 183.018V187.194C114.268 191.911 114.442 195.275 114.79 197.286C115.177 199.258 115.641 200.669 116.182 201.52C117.381 203.415 119.237 204.362 121.75 204.362C124.805 204.362 126.777 203.086 127.666 200.534C128.594 197.943 129.058 193.458 129.058 187.078ZM121.634 205.58C115.177 205.58 110.343 203.84 107.134 200.36C103.963 196.841 102.378 191.776 102.378 185.164C102.378 178.513 104.079 173.293 107.482 169.504C110.923 165.676 115.776 163.762 122.04 163.762C128.304 163.762 133.021 165.579 136.192 169.214C139.401 172.81 141.006 177.933 141.006 184.584C141.006 191.235 139.382 196.397 136.134 200.07C132.925 203.743 128.091 205.58 121.634 205.58ZM145.779 161.5H159.757V182.728C160.376 180.949 161.323 179.519 162.599 178.436C163.875 177.353 165.809 176.812 168.399 176.812C174.393 176.812 177.389 180.041 177.389 186.498V203.956H180.637V205H164.223V203.956H166.601V185.106C166.601 182.786 166.447 181.297 166.137 180.64C165.828 179.944 165.267 179.596 164.455 179.596C163.218 179.596 162.116 180.408 161.149 182.032C160.221 183.656 159.757 185.628 159.757 187.948V203.956H162.251V205H145.779V203.956H148.969V162.544H145.779V161.5ZM191.263 194.676V189.688C191.263 186.363 190.625 182.419 189.349 177.856C188.112 173.255 187.493 170.123 187.493 168.46C187.493 166.797 187.938 165.599 188.827 164.864C189.755 164.129 190.877 163.762 192.191 163.762C195.13 163.762 196.599 165.328 196.599 168.46C196.599 170.277 195.923 173.448 194.569 177.972C193.216 182.496 192.539 186.421 192.539 189.746V194.676H191.263ZM191.669 205.58C190.239 205.58 189.156 205.174 188.421 204.362C187.725 203.511 187.377 202.467 187.377 201.23C187.377 199.954 187.764 198.91 188.537 198.098C189.311 197.247 190.374 196.822 191.727 196.822C193.081 196.822 194.163 197.189 194.975 197.924C195.787 198.62 196.193 199.664 196.193 201.056C196.193 202.448 195.807 203.55 195.033 204.362C194.26 205.174 193.139 205.58 191.669 205.58Z"/>
</mask>
<path d="M115.718 128.646C115.718 132.203 116.317 134.929 117.516 136.824C118.753 138.719 120.957 139.666 124.128 139.666C127.299 139.666 129.735 138.68 131.436 136.708C133.137 134.736 133.988 131.739 133.988 127.718V101.502H130.218V100.4H138.686V101.502H135.496V127.312C135.496 132.107 134.433 135.683 132.306 138.042C130.179 140.401 126.409 141.58 120.996 141.58C115.621 141.58 111.503 140.459 108.642 138.216C105.819 135.973 104.408 132.126 104.408 126.674V101.502H101.218V100.4H119.488V101.502H115.718V128.646ZM140.172 97.5H154.15V118.728C154.768 116.949 155.716 115.519 156.992 114.436C158.268 113.353 160.201 112.812 162.792 112.812C168.785 112.812 171.782 116.041 171.782 122.498V139.956H175.03V141H158.616V139.956H160.994V121.106C160.994 118.786 160.839 117.297 160.53 116.64C160.22 115.944 159.66 115.596 158.848 115.596C157.61 115.596 156.508 116.408 155.542 118.032C154.614 119.656 154.15 121.628 154.15 123.948V139.956H156.644V141H140.172V139.956H143.362V98.544H140.172V97.5ZM129.058 187.078V182.786C129.058 175.71 128.71 171.244 128.014 169.388C127.241 167.261 126.139 165.947 124.708 165.444C123.896 165.135 122.91 164.98 121.75 164.98C120.59 164.98 119.585 165.135 118.734 165.444C117.922 165.753 117.245 166.295 116.704 167.068C116.163 167.841 115.718 168.653 115.37 169.504C115.061 170.355 114.809 171.553 114.616 173.1C114.384 175.343 114.268 178.649 114.268 183.018V187.194C114.268 191.911 114.442 195.275 114.79 197.286C115.177 199.258 115.641 200.669 116.182 201.52C117.381 203.415 119.237 204.362 121.75 204.362C124.805 204.362 126.777 203.086 127.666 200.534C128.594 197.943 129.058 193.458 129.058 187.078ZM121.634 205.58C115.177 205.58 110.343 203.84 107.134 200.36C103.963 196.841 102.378 191.776 102.378 185.164C102.378 178.513 104.079 173.293 107.482 169.504C110.923 165.676 115.776 163.762 122.04 163.762C128.304 163.762 133.021 165.579 136.192 169.214C139.401 172.81 141.006 177.933 141.006 184.584C141.006 191.235 139.382 196.397 136.134 200.07C132.925 203.743 128.091 205.58 121.634 205.58ZM145.779 161.5H159.757V182.728C160.376 180.949 161.323 179.519 162.599 178.436C163.875 177.353 165.809 176.812 168.399 176.812C174.393 176.812 177.389 180.041 177.389 186.498V203.956H180.637V205H164.223V203.956H166.601V185.106C166.601 182.786 166.447 181.297 166.137 180.64C165.828 179.944 165.267 179.596 164.455 179.596C163.218 179.596 162.116 180.408 161.149 182.032C160.221 183.656 159.757 185.628 159.757 187.948V203.956H162.251V205H145.779V203.956H148.969V162.544H145.779V161.5ZM191.263 194.676V189.688C191.263 186.363 190.625 182.419 189.349 177.856C188.112 173.255 187.493 170.123 187.493 168.46C187.493 166.797 187.938 165.599 188.827 164.864C189.755 164.129 190.877 163.762 192.191 163.762C195.13 163.762 196.599 165.328 196.599 168.46C196.599 170.277 195.923 173.448 194.569 177.972C193.216 182.496 192.539 186.421 192.539 189.746V194.676H191.263ZM191.669 205.58C190.239 205.58 189.156 205.174 188.421 204.362C187.725 203.511 187.377 202.467 187.377 201.23C187.377 199.954 187.764 198.91 188.537 198.098C189.311 197.247 190.374 196.822 191.727 196.822C193.081 196.822 194.163 197.189 194.975 197.924C195.787 198.62 196.193 199.664 196.193 201.056C196.193 202.448 195.807 203.55 195.033 204.362C194.26 205.174 193.139 205.58 191.669 205.58Z" fill="#0F0F0F"/>
<path d="M117.516 136.824L116.671 137.359L116.675 137.365L116.679 137.371L117.516 136.824ZM131.436 136.708L132.193 137.361L132.193 137.361L131.436 136.708ZM133.988 101.502H134.988V100.502H133.988V101.502ZM130.218 101.502H129.218V102.502H130.218V101.502ZM130.218 100.4V99.4H129.218V100.4H130.218ZM138.686 100.4H139.686V99.4H138.686V100.4ZM138.686 101.502V102.502H139.686V101.502H138.686ZM135.496 101.502V100.502H134.496V101.502H135.496ZM132.306 138.042L131.563 137.372L131.563 137.372L132.306 138.042ZM108.642 138.216L108.02 138.999L108.025 139.003L108.642 138.216ZM104.408 101.502H105.408V100.502H104.408V101.502ZM101.218 101.502H100.218V102.502H101.218V101.502ZM101.218 100.4V99.4H100.218V100.4H101.218ZM119.488 100.4H120.488V99.4H119.488V100.4ZM119.488 101.502V102.502H120.488V101.502H119.488ZM115.718 101.502V100.502H114.718V101.502H115.718ZM114.718 128.646C114.718 132.291 115.328 135.236 116.671 137.359L118.361 136.289C117.307 134.623 116.718 132.115 116.718 128.646H114.718ZM116.679 137.371C118.169 139.653 120.768 140.666 124.128 140.666V138.666C121.147 138.666 119.338 137.784 118.353 136.277L116.679 137.371ZM124.128 140.666C127.52 140.666 130.261 139.601 132.193 137.361L130.679 136.055C129.208 137.759 127.077 138.666 124.128 138.666V140.666ZM132.193 137.361C134.117 135.131 134.988 131.854 134.988 127.718H132.988C132.988 131.624 132.158 134.341 130.679 136.055L132.193 137.361ZM134.988 127.718V101.502H132.988V127.718H134.988ZM133.988 100.502H130.218V102.502H133.988V100.502ZM131.218 101.502V100.4H129.218V101.502H131.218ZM130.218 101.4H138.686V99.4H130.218V101.4ZM137.686 100.4V101.502H139.686V100.4H137.686ZM138.686 100.502H135.496V102.502H138.686V100.502ZM134.496 101.502V127.312H136.496V101.502H134.496ZM134.496 127.312C134.496 131.982 133.457 135.272 131.563 137.372L133.049 138.712C135.408 136.095 136.496 132.232 136.496 127.312H134.496ZM131.563 137.372C129.724 139.412 126.316 140.58 120.996 140.58V142.58C126.503 142.58 130.635 141.389 133.049 138.712L131.563 137.372ZM120.996 140.58C115.742 140.58 111.877 139.481 109.259 137.429L108.025 139.003C111.129 141.436 115.5 142.58 120.996 142.58V140.58ZM109.264 137.433C106.782 135.461 105.408 131.981 105.408 126.674H103.408C103.408 132.271 104.856 136.486 108.02 138.999L109.264 137.433ZM105.408 126.674V101.502H103.408V126.674H105.408ZM104.408 100.502H101.218V102.502H104.408V100.502ZM102.218 101.502V100.4H100.218V101.502H102.218ZM101.218 101.4H119.488V99.4H101.218V101.4ZM118.488 100.4V101.502H120.488V100.4H118.488ZM119.488 100.502H115.718V102.502H119.488V100.502ZM114.718 101.502V128.646H116.718V101.502H114.718ZM140.172 97.5V96.5H139.172V97.5H140.172ZM154.15 97.5H155.15V96.5H154.15V97.5ZM154.15 118.728H153.15L155.094 119.057L154.15 118.728ZM156.992 114.436L156.345 113.673L156.345 113.673L156.992 114.436ZM171.782 139.956H170.782V140.956H171.782V139.956ZM175.03 139.956H176.03V138.956H175.03V139.956ZM175.03 141V142H176.03V141H175.03ZM158.616 141H157.616V142H158.616V141ZM158.616 139.956V138.956H157.616V139.956H158.616ZM160.994 139.956V140.956H161.994V139.956H160.994ZM160.53 116.64L159.616 117.046L159.62 117.056L159.625 117.066L160.53 116.64ZM155.542 118.032L154.683 117.521L154.678 117.528L154.674 117.536L155.542 118.032ZM154.15 139.956H153.15V140.956H154.15V139.956ZM156.644 139.956H157.644V138.956H156.644V139.956ZM156.644 141V142H157.644V141H156.644ZM140.172 141H139.172V142H140.172V141ZM140.172 139.956V138.956H139.172V139.956H140.172ZM143.362 139.956V140.956H144.362V139.956H143.362ZM143.362 98.544H144.362V97.544H143.362V98.544ZM140.172 98.544H139.172V99.544H140.172V98.544ZM140.172 98.5H154.15V96.5H140.172V98.5ZM153.15 97.5V118.728H155.15V97.5H153.15ZM155.094 119.057C155.662 117.425 156.515 116.152 157.639 115.199L156.345 113.673C154.916 114.886 153.875 116.474 153.205 118.399L155.094 119.057ZM157.639 115.199C158.658 114.334 160.314 113.812 162.792 113.812V111.812C160.088 111.812 157.878 112.373 156.345 113.673L157.639 115.199ZM162.792 113.812C165.614 113.812 167.553 114.569 168.801 115.914C170.063 117.273 170.782 119.406 170.782 122.498H172.782C172.782 119.133 172.003 116.423 170.267 114.553C168.519 112.67 165.963 111.812 162.792 111.812V113.812ZM170.782 122.498V139.956H172.782V122.498H170.782ZM171.782 140.956H175.03V138.956H171.782V140.956ZM174.03 139.956V141H176.03V139.956H174.03ZM175.03 140H158.616V142H175.03V140ZM159.616 141V139.956H157.616V141H159.616ZM158.616 140.956H160.994V138.956H158.616V140.956ZM161.994 139.956V121.106H159.994V139.956H161.994ZM161.994 121.106C161.994 119.928 161.955 118.938 161.872 118.146C161.793 117.383 161.665 116.704 161.435 116.214L159.625 117.066C159.704 117.233 159.808 117.628 159.883 118.353C159.956 119.05 159.994 119.964 159.994 121.106H161.994ZM161.444 116.234C161.22 115.732 160.881 115.303 160.405 115.007C159.933 114.715 159.397 114.596 158.848 114.596V116.596C159.11 116.596 159.261 116.651 159.35 116.707C159.435 116.759 159.53 116.852 159.616 117.046L161.444 116.234ZM158.848 114.596C157.096 114.596 155.727 115.765 154.683 117.521L156.401 118.543C157.289 117.051 158.125 116.596 158.848 116.596V114.596ZM154.674 117.536C153.641 119.343 153.15 121.495 153.15 123.948H155.15C155.15 121.761 155.587 119.969 156.41 118.528L154.674 117.536ZM153.15 123.948V139.956H155.15V123.948H153.15ZM154.15 140.956H156.644V138.956H154.15V140.956ZM155.644 139.956V141H157.644V139.956H155.644ZM156.644 140H140.172V142H156.644V140ZM141.172 141V139.956H139.172V141H141.172ZM140.172 140.956H143.362V138.956H140.172V140.956ZM144.362 139.956V98.544H142.362V139.956H144.362ZM143.362 97.544H140.172V99.544H143.362V97.544ZM141.172 98.544V97.5H139.172V98.544H141.172ZM128.014 169.388L127.074 169.73L127.078 169.739L128.014 169.388ZM124.708 165.444L124.352 166.378L124.364 166.383L124.377 166.387L124.708 165.444ZM118.734 165.444L118.392 164.504L118.385 164.507L118.378 164.51L118.734 165.444ZM116.704 167.068L115.885 166.495L115.885 166.495L116.704 167.068ZM115.37 169.504L114.444 169.125L114.437 169.144L114.43 169.162L115.37 169.504ZM114.616 173.1L113.624 172.976L113.622 172.987L113.621 172.997L114.616 173.1ZM114.79 197.286L113.805 197.457L113.807 197.468L113.809 197.478L114.79 197.286ZM116.182 201.52L117.027 200.985L117.026 200.983L116.182 201.52ZM127.666 200.534L126.725 200.197L126.722 200.205L127.666 200.534ZM107.134 200.36L106.391 201.029L106.399 201.038L107.134 200.36ZM107.482 169.504L106.738 168.835L106.738 168.836L107.482 169.504ZM136.192 169.214L135.438 169.871L135.446 169.88L136.192 169.214ZM136.134 200.07L135.385 199.408L135.381 199.412L136.134 200.07ZM130.058 187.078V182.786H128.058V187.078H130.058ZM130.058 182.786C130.058 179.235 129.971 176.321 129.794 174.052C129.62 171.813 129.352 170.108 128.95 169.037L127.078 169.739C127.372 170.524 127.627 171.98 127.8 174.207C127.971 176.404 128.058 179.261 128.058 182.786H130.058ZM128.954 169.046C128.13 166.78 126.87 165.144 125.039 164.501L124.377 166.387C125.408 166.75 126.352 167.743 127.074 169.73L128.954 169.046ZM125.064 164.51C124.107 164.145 122.993 163.98 121.75 163.98V165.98C122.827 165.98 123.685 166.124 124.352 166.378L125.064 164.51ZM121.75 163.98C120.505 163.98 119.378 164.146 118.392 164.504L119.076 166.384C119.791 166.124 120.675 165.98 121.75 165.98V163.98ZM118.378 164.51C117.363 164.896 116.531 165.572 115.885 166.495L117.523 167.641C117.96 167.017 118.481 166.61 119.09 166.378L118.378 164.51ZM115.885 166.495C115.302 167.327 114.821 168.204 114.444 169.125L116.296 169.883C116.615 169.102 117.023 168.356 117.523 167.641L115.885 166.495ZM114.43 169.162C114.083 170.116 113.821 171.4 113.624 172.976L115.608 173.224C115.798 171.707 116.038 170.593 116.31 169.846L114.43 169.162ZM113.621 172.997C113.384 175.292 113.268 178.64 113.268 183.018H115.268C115.268 178.658 115.384 175.393 115.611 173.203L113.621 172.997ZM113.268 183.018V187.194H115.268V183.018H113.268ZM113.268 187.194C113.268 191.914 113.441 195.354 113.805 197.457L115.775 197.115C115.443 195.197 115.268 191.909 115.268 187.194H113.268ZM113.809 197.478C114.2 199.476 114.692 201.041 115.338 202.057L117.026 200.983C116.589 200.297 116.153 199.04 115.771 197.094L113.809 197.478ZM115.337 202.055C116.744 204.278 118.943 205.362 121.75 205.362V203.362C119.53 203.362 118.018 202.551 117.027 200.985L115.337 202.055ZM121.75 205.362C123.413 205.362 124.873 205.015 126.063 204.245C127.263 203.468 128.104 202.316 128.61 200.863L126.722 200.205C126.339 201.304 125.749 202.066 124.977 202.565C124.195 203.071 123.142 203.362 121.75 203.362V205.362ZM128.607 200.871C129.599 198.102 130.058 193.461 130.058 187.078H128.058C128.058 193.455 127.589 197.785 126.725 200.197L128.607 200.871ZM121.634 204.58C115.35 204.58 110.828 202.89 107.869 199.682L106.399 201.038C109.859 204.79 115.003 206.58 121.634 206.58V204.58ZM107.877 199.691C104.927 196.417 103.378 191.627 103.378 185.164H101.378C101.378 191.925 102.999 197.265 106.391 201.029L107.877 199.691ZM103.378 185.164C103.378 178.683 105.033 173.728 108.226 170.172L106.738 168.836C103.125 172.859 101.378 178.344 101.378 185.164H103.378ZM108.226 170.173C111.437 166.6 115.993 164.762 122.04 164.762V162.762C115.559 162.762 110.41 164.752 106.738 168.835L108.226 170.173ZM122.04 164.762C128.107 164.762 132.511 166.515 135.438 169.871L136.946 168.557C133.532 164.643 128.501 162.762 122.04 162.762V164.762ZM135.446 169.88C138.439 173.233 140.006 178.085 140.006 184.584H142.006C142.006 177.781 140.364 172.387 136.938 168.548L135.446 169.88ZM140.006 184.584C140.006 191.078 138.421 195.974 135.385 199.408L136.883 200.732C140.343 196.82 142.006 191.391 142.006 184.584H140.006ZM135.381 199.412C132.418 202.803 127.902 204.58 121.634 204.58V206.58C128.281 206.58 133.431 204.683 136.887 200.728L135.381 199.412ZM145.779 161.5V160.5H144.779V161.5H145.779ZM159.757 161.5H160.757V160.5H159.757V161.5ZM159.757 182.728H158.757L160.702 183.057L159.757 182.728ZM162.599 178.436L161.952 177.673L161.952 177.673L162.599 178.436ZM177.389 203.956H176.389V204.956H177.389V203.956ZM180.637 203.956H181.637V202.956H180.637V203.956ZM180.637 205V206H181.637V205H180.637ZM164.223 205H163.223V206H164.223V205ZM164.223 203.956V202.956H163.223V203.956H164.223ZM166.601 203.956V204.956H167.601V203.956H166.601ZM166.137 180.64L165.223 181.046L165.228 181.056L165.232 181.066L166.137 180.64ZM161.149 182.032L160.29 181.521L160.285 181.528L160.281 181.536L161.149 182.032ZM159.757 203.956H158.757V204.956H159.757V203.956ZM162.251 203.956H163.251V202.956H162.251V203.956ZM162.251 205V206H163.251V205H162.251ZM145.779 205H144.779V206H145.779V205ZM145.779 203.956V202.956H144.779V203.956H145.779ZM148.969 203.956V204.956H149.969V203.956H148.969ZM148.969 162.544H149.969V161.544H148.969V162.544ZM145.779 162.544H144.779V163.544H145.779V162.544ZM145.779 162.5H159.757V160.5H145.779V162.5ZM158.757 161.5V182.728H160.757V161.5H158.757ZM160.702 183.057C161.269 181.425 162.123 180.152 163.246 179.199L161.952 177.673C160.524 178.886 159.483 180.474 158.813 182.399L160.702 183.057ZM163.246 179.199C164.265 178.334 165.922 177.812 168.399 177.812V175.812C165.695 175.812 163.485 176.373 161.952 177.673L163.246 179.199ZM168.399 177.812C171.222 177.812 173.16 178.569 174.409 179.914C175.67 181.273 176.389 183.406 176.389 186.498H178.389C178.389 183.133 177.61 180.423 175.875 178.553C174.126 176.67 171.57 175.812 168.399 175.812V177.812ZM176.389 186.498V203.956H178.389V186.498H176.389ZM177.389 204.956H180.637V202.956H177.389V204.956ZM179.637 203.956V205H181.637V203.956H179.637ZM180.637 204H164.223V206H180.637V204ZM165.223 205V203.956H163.223V205H165.223ZM164.223 204.956H166.601V202.956H164.223V204.956ZM167.601 203.956V185.106H165.601V203.956H167.601ZM167.601 185.106C167.601 183.928 167.562 182.938 167.48 182.146C167.401 181.383 167.273 180.704 167.042 180.214L165.232 181.066C165.311 181.233 165.415 181.628 165.491 182.353C165.563 183.05 165.601 183.964 165.601 185.106H167.601ZM167.051 180.234C166.828 179.732 166.488 179.303 166.012 179.007C165.541 178.715 165.005 178.596 164.455 178.596V180.596C164.718 180.596 164.868 180.651 164.957 180.707C165.042 180.759 165.137 180.852 165.223 181.046L167.051 180.234ZM164.455 178.596C162.703 178.596 161.335 179.765 160.29 181.521L162.009 182.543C162.897 181.051 163.732 180.596 164.455 180.596V178.596ZM160.281 181.536C159.248 183.343 158.757 185.495 158.757 187.948H160.757C160.757 185.761 161.194 183.969 162.017 182.528L160.281 181.536ZM158.757 187.948V203.956H160.757V187.948H158.757ZM159.757 204.956H162.251V202.956H159.757V204.956ZM161.251 203.956V205H163.251V203.956H161.251ZM162.251 204H145.779V206H162.251V204ZM146.779 205V203.956H144.779V205H146.779ZM145.779 204.956H148.969V202.956H145.779V204.956ZM149.969 203.956V162.544H147.969V203.956H149.969ZM148.969 161.544H145.779V163.544H148.969V161.544ZM146.779 162.544V161.5H144.779V162.544H146.779ZM191.263 194.676H190.263V195.676H191.263V194.676ZM189.349 177.856L188.384 178.116L188.386 178.125L189.349 177.856ZM188.827 164.864L188.207 164.08L188.199 164.086L188.191 164.093L188.827 164.864ZM194.569 177.972L195.528 178.259L195.528 178.259L194.569 177.972ZM192.539 194.676V195.676H193.539V194.676H192.539ZM188.421 204.362L187.647 204.995L187.663 205.014L187.68 205.033L188.421 204.362ZM188.537 198.098L189.262 198.788L189.27 198.779L189.277 198.771L188.537 198.098ZM194.975 197.924L194.305 198.666L194.314 198.675L194.325 198.683L194.975 197.924ZM195.033 204.362L195.758 205.052L195.758 205.052L195.033 204.362ZM192.263 194.676V189.688H190.263V194.676H192.263ZM192.263 189.688C192.263 186.242 191.604 182.203 190.313 177.587L188.386 178.125C189.647 182.634 190.263 186.483 190.263 189.688H192.263ZM190.315 177.596C189.073 172.977 188.493 169.97 188.493 168.46H186.493C186.493 170.275 187.151 173.532 188.384 178.116L190.315 177.596ZM188.493 168.46C188.493 166.959 188.893 166.107 189.464 165.635L188.191 164.093C186.984 165.09 186.493 166.635 186.493 168.46H188.493ZM189.448 165.648C190.18 165.069 191.076 164.762 192.191 164.762V162.762C190.678 162.762 189.331 163.19 188.207 164.08L189.448 165.648ZM192.191 164.762C193.49 164.762 194.284 165.105 194.768 165.621C195.263 166.149 195.599 167.033 195.599 168.46H197.599C197.599 166.755 197.201 165.29 196.227 164.252C195.241 163.202 193.832 162.762 192.191 162.762V164.762ZM195.599 168.46C195.599 170.112 194.968 173.152 193.611 177.685L195.528 178.259C196.878 173.744 197.599 170.442 197.599 168.46H195.599ZM193.611 177.685C192.241 182.267 191.539 186.292 191.539 189.746H193.539C193.539 186.549 194.191 182.725 195.528 178.259L193.611 177.685ZM191.539 189.746V194.676H193.539V189.746H191.539ZM192.539 193.676H191.263V195.676H192.539V193.676ZM191.669 204.58C190.43 204.58 189.654 204.234 189.163 203.691L187.68 205.033C188.658 206.114 190.048 206.58 191.669 206.58V204.58ZM189.195 203.729C188.664 203.079 188.377 202.267 188.377 201.23H186.377C186.377 202.667 186.787 203.943 187.647 204.995L189.195 203.729ZM188.377 201.23C188.377 200.173 188.69 199.388 189.262 198.788L187.813 197.408C186.838 198.432 186.377 199.735 186.377 201.23H188.377ZM189.277 198.771C189.827 198.166 190.601 197.822 191.727 197.822V195.822C190.147 195.822 188.794 196.329 187.798 197.425L189.277 198.771ZM191.727 197.822C192.894 197.822 193.717 198.134 194.305 198.666L195.646 197.182C194.61 196.245 193.268 195.822 191.727 195.822V197.822ZM194.325 198.683C194.852 199.136 195.193 199.862 195.193 201.056H197.193C197.193 199.466 196.723 198.104 195.626 197.165L194.325 198.683ZM195.193 201.056C195.193 202.256 194.865 203.089 194.309 203.672L195.758 205.052C196.748 204.011 197.193 202.64 197.193 201.056H195.193ZM194.309 203.672C193.778 204.23 192.954 204.58 191.669 204.58V206.58C193.323 206.58 194.742 206.118 195.758 205.052L194.309 203.672Z" fill="#FFA9A3" mask="url(#path-30-outside-1_153_874)"/>
</svg>
