<svg width="375" height="243" viewBox="0 0 375 243" fill="none" xmlns="http://www.w3.org/2000/svg">
<g clip-path="url(#clip0_153_721)">
<rect width="608" height="243" transform="translate(-84)" fill="#FFDDD1"/>
<path d="M524.5 9.19507C435.94 22.5917 297.093 49.703 367.729 135.287C457.62 244.198 677.283 215.666 579.723 299.727" stroke="#FFA9A3"/>
<path d="M493.061 12.884C404.501 26.2806 265.654 53.392 336.291 138.976C426.181 247.887 645.844 219.355 548.284 303.416" stroke="#FFA9A3"/>
<path d="M461.413 13.4678C372.852 26.8644 234.005 53.9757 304.642 139.559C394.532 248.471 614.195 219.939 516.636 304" stroke="#FFA9A3"/>
<path d="M429.815 11.592C341.254 24.9886 202.407 52.1 273.044 137.684C362.934 246.595 582.597 218.063 485.037 302.124" stroke="#FFA9A3"/>
<path d="M398.369 7.98364C309.808 21.3802 170.961 48.4916 241.598 134.075C331.488 242.987 551.151 214.455 453.591 298.516" stroke="#FFA9A3"/>
<path d="M367.061 3.30933C278.501 16.7059 139.654 43.8173 210.291 129.401C300.181 238.312 519.844 209.781 422.284 293.842" stroke="#FFA9A3"/>
<path d="M335.836 -1.88135C247.276 11.5152 108.429 38.6266 179.065 124.21C268.956 233.122 488.619 204.59 391.059 288.651" stroke="#FFA9A3"/>
<path d="M304.624 -7.1582C216.064 6.23839 77.2168 33.3498 147.854 118.933C237.744 227.845 457.407 199.313 359.847 283.374" stroke="#FFA9A3"/>
<path d="M273.376 -12.1997C184.815 1.19689 45.9683 28.3082 116.605 113.892C206.495 222.803 426.158 194.271 328.598 278.333" stroke="#FFA9A3"/>
<path d="M242.053 -16.7683C153.492 -3.37171 14.6456 23.7396 85.2822 109.323C175.172 218.235 394.836 189.703 297.276 273.764" stroke="#FFA9A3"/>
<path d="M210.644 -20.6963C122.083 -7.29969 -16.7636 19.8117 53.873 105.395C143.763 214.307 363.426 185.775 265.866 269.836" stroke="#FFA9A3"/>
<path d="M179.149 -23.8689C90.5886 -10.4723 -48.2583 16.6391 22.3784 102.223C112.269 211.134 331.932 182.602 234.372 266.663" stroke="#FFA9A3"/>
<path d="M147.388 -26.2427C58.8273 -12.8461 -80.0195 14.2653 -9.38283 99.8489C80.5073 208.76 300.171 180.229 202.611 264.29" stroke="#FFA9A3"/>
<path d="M115.786 -28.0708C27.2258 -14.6742 -111.621 12.4372 -40.9844 98.0208C48.9057 206.932 268.569 178.4 171.009 262.461" stroke="#FFA9A3"/>
<path d="M84.1629 -29.4412C-4.39775 -16.0446 -143.245 11.0668 -72.6079 96.6505C17.2822 205.562 236.945 177.03 139.386 261.091" stroke="#FFA9A3"/>
<path d="M52.5199 -30.293C-36.0408 -16.8964 -174.888 10.215 -104.251 95.7986C-14.3609 204.71 205.302 176.178 107.742 260.239" stroke="#FFA9A3"/>
<path d="M20.8675 -30.5471C-67.6932 -17.1505 -206.54 9.96083 -135.903 95.5445C-46.0132 204.456 173.65 175.924 76.0901 259.985" stroke="#FFA9A3"/>
<path d="M-10.7826 -30.103C-99.3433 -16.7064 -238.19 10.4049 -167.553 95.9886C-77.6634 204.9 142 176.368 44.44 260.429" stroke="#FFA9A3"/>
<path d="M-42.411 -28.8291C-130.972 -15.4325 -269.819 11.6789 -199.182 97.2625C-109.292 206.174 110.371 177.642 12.8116 261.703" stroke="#FFA9A3"/>
<path d="M-73.9828 -26.5471C-162.544 -13.1505 -301.39 13.9608 -230.754 99.5445C-140.864 208.456 78.7997 179.924 -18.7602 263.985" stroke="#FFA9A3"/>
<g filter="url(#filter0_f_153_721)">
<ellipse cx="144.185" cy="176.625" rx="217.994" ry="157.048" transform="rotate(124.68 144.185 176.625)" fill="#FFDDD1"/>
</g>
<mask id="path-22-outside-1_153_721" maskUnits="userSpaceOnUse" x="60" y="65" width="238" height="124" fill="black">
<rect fill="white" x="60" y="65" width="238" height="124"/>
<path d="M85.592 97.284L90.406 80.58L86.926 69.502H83.62V68.4H101.6V69.502H98.178L106.82 96.936L113.78 69.502H107.922V68.4H119.522V69.502H115.694L105.022 109.58H99.86L91.276 83.364L83.736 109.58H78.69L64.074 69.502H61.348V68.4H80.198V69.502H76.138L85.592 97.284ZM131.039 109.58C126.051 109.58 122.3 108.304 119.787 105.752C117.312 103.161 116.075 99.5847 116.075 95.022C116.075 90.4207 117.467 86.902 120.251 84.466C123.074 82.03 126.65 80.812 130.981 80.812C139.758 80.812 143.973 85.22 143.625 94.036H127.269V96.298C127.269 100.087 127.752 102.949 128.719 104.882C129.686 106.815 131.368 107.782 133.765 107.782C138.25 107.782 141.189 105.385 142.581 100.59L143.625 100.764C142.89 103.548 141.556 105.713 139.623 107.26C137.728 108.807 134.867 109.58 131.039 109.58ZM127.327 92.876H133.301V90.034C133.301 86.902 133.108 84.7753 132.721 83.654C132.373 82.494 131.638 81.914 130.517 81.914C129.434 81.914 128.622 82.5327 128.081 83.77C127.578 84.9687 127.327 87.0567 127.327 90.034V92.876ZM147.32 82.784L146.798 81.972C150.394 79.6133 152.192 77.2547 152.192 74.896C152.192 73.6587 151.67 72.9627 150.626 72.808L148.19 75.07C147.417 74.7993 146.701 74.316 146.044 73.62C145.425 72.8853 145.116 71.9573 145.116 70.836C145.116 69.7147 145.561 68.7673 146.45 67.994C147.339 67.182 148.499 66.776 149.93 66.776C151.399 66.776 152.598 67.2787 153.526 68.284C154.493 69.2507 154.976 70.604 154.976 72.344C154.976 76.1333 152.424 79.6133 147.32 82.784ZM176.391 83.016C174.961 83.016 173.704 83.944 172.621 85.8C171.539 87.656 170.997 89.86 170.997 92.412V107.956H175.115V109H157.019V107.956H160.209V82.436H157.019V81.392H170.997V86.96C171.5 84.988 172.467 83.48 173.897 82.436C175.328 81.3533 176.952 80.812 178.769 80.812C180.587 80.812 182.056 81.334 183.177 82.378C184.337 83.3833 184.917 84.8333 184.917 86.728C184.917 88.584 184.492 90.0147 183.641 91.02C182.791 92.0253 181.476 92.528 179.697 92.528C177.957 92.528 176.662 91.948 175.811 90.788C174.999 89.628 174.903 88.0233 175.521 85.974H177.609C178.576 84.002 178.17 83.016 176.391 83.016ZM200.707 109.58C195.719 109.58 191.968 108.304 189.455 105.752C186.98 103.161 185.743 99.5847 185.743 95.022C185.743 90.4207 187.135 86.902 189.919 84.466C192.742 82.03 196.318 80.812 200.649 80.812C209.426 80.812 213.641 85.22 213.293 94.036H196.937V96.298C196.937 100.087 197.42 102.949 198.387 104.882C199.354 106.815 201.036 107.782 203.433 107.782C207.918 107.782 210.857 105.385 212.249 100.59L213.293 100.764C212.558 103.548 211.224 105.713 209.291 107.26C207.396 108.807 204.535 109.58 200.707 109.58ZM196.995 92.876H202.969V90.034C202.969 86.902 202.776 84.7753 202.389 83.654C202.041 82.494 201.306 81.914 200.185 81.914C199.102 81.914 198.29 82.5327 197.749 83.77C197.246 84.9687 196.995 87.0567 196.995 90.034V92.876ZM84.2 132.922C78.2067 132.922 75.21 138.703 75.21 150.264V154.846C75.21 160.337 76.0027 164.648 77.588 167.78C79.1733 170.873 81.5127 172.42 84.606 172.42C88.8593 172.42 92.7647 168.283 96.322 160.008H97.366L96.96 172.942H96.322C96.09 172.517 95.8773 172.227 95.684 172.072C95.4907 171.879 95.2007 171.782 94.814 171.782C94.466 171.782 93.074 172.091 90.638 172.71C88.202 173.29 85.7273 173.58 83.214 173.58C76.9113 173.58 72.02 171.879 68.54 168.476C65.0987 165.073 63.378 159.969 63.378 153.164C63.378 146.32 65.176 141.042 68.772 137.33C72.4067 133.618 77.2787 131.762 83.388 131.762C85.7467 131.762 88.0473 132.071 90.29 132.69C92.5713 133.27 93.9053 133.56 94.292 133.56C94.6787 133.56 94.9687 133.483 95.162 133.328C95.3553 133.135 95.568 132.825 95.8 132.4H96.438L96.902 144.986H95.858C94.118 141.081 92.32 138.103 90.464 136.054C88.6467 133.966 86.5587 132.922 84.2 132.922ZM119.793 161.574V156.644C119.793 152.893 119.58 150.167 119.155 148.466C118.768 146.726 117.84 145.856 116.371 145.856C115.52 145.856 114.824 146.107 114.283 146.61C113.78 147.074 113.413 147.867 113.181 148.988C112.833 150.728 112.659 153.377 112.659 156.934V161.458C112.659 165.673 112.775 168.205 113.007 169.056C113.277 169.907 113.548 170.603 113.819 171.144C114.244 172.072 115.075 172.536 116.313 172.536C117.821 172.536 118.807 171.666 119.271 169.926C119.619 168.689 119.793 165.905 119.793 161.574ZM116.197 173.58C111.363 173.58 107.709 172.343 105.235 169.868C102.76 167.393 101.523 163.855 101.523 159.254C101.523 154.614 102.837 151.057 105.467 148.582C108.135 146.069 111.866 144.812 116.661 144.812C121.455 144.812 125.032 145.972 127.391 148.292C129.749 150.573 130.929 154.073 130.929 158.79C130.929 168.65 126.018 173.58 116.197 173.58ZM151.285 161.574V156.644C151.285 152.893 151.072 150.167 150.647 148.466C150.26 146.726 149.332 145.856 147.863 145.856C147.012 145.856 146.316 146.107 145.775 146.61C145.272 147.074 144.905 147.867 144.673 148.988C144.325 150.728 144.151 153.377 144.151 156.934V161.458C144.151 165.673 144.267 168.205 144.499 169.056C144.769 169.907 145.04 170.603 145.311 171.144C145.736 172.072 146.567 172.536 147.805 172.536C149.313 172.536 150.299 171.666 150.763 169.926C151.111 168.689 151.285 165.905 151.285 161.574ZM147.689 173.58C142.855 173.58 139.201 172.343 136.727 169.868C134.252 167.393 133.015 163.855 133.015 159.254C133.015 154.614 134.329 151.057 136.959 148.582C139.627 146.069 143.358 144.812 148.153 144.812C152.947 144.812 156.524 145.972 158.883 148.292C161.241 150.573 162.421 154.073 162.421 158.79C162.421 168.65 157.51 173.58 147.689 173.58ZM183.009 173V171.956H185.677L179.123 158.5L178.021 158.79V171.956H180.689V173H164.043V171.956H167.233V130.544H163.811V129.5H178.021V157.63L178.949 157.282L191.999 146.436H186.547V145.392H197.973V146.436H193.913L187.011 152.294L197.045 171.956H199.133V173H183.009ZM208.536 141.39C206.486 141.39 205.017 140.868 204.128 139.824C203.277 138.78 202.852 137.485 202.852 135.938C202.852 134.391 203.316 133.115 204.244 132.11C205.21 131.105 206.66 130.602 208.594 130.602C210.527 130.602 211.996 131.066 213.002 131.994C214.007 132.883 214.51 134.179 214.51 135.88C214.51 137.543 214.026 138.877 213.06 139.882C212.093 140.887 210.585 141.39 208.536 141.39ZM199.778 145.392H213.988V171.956H217.236V173H200.01V171.956H203.2V146.436H199.778V145.392ZM218.534 145.392H232.512V150.728C233.131 148.949 234.078 147.519 235.354 146.436C236.63 145.353 238.563 144.812 241.154 144.812C247.147 144.812 250.144 148.041 250.144 154.498V171.956H253.392V173H236.978V171.956H239.356V153.106C239.356 150.786 239.201 149.297 238.892 148.64C238.583 147.944 238.022 147.596 237.21 147.596C235.973 147.596 234.871 148.408 233.904 150.032C232.976 151.656 232.512 153.628 232.512 155.948V171.956H235.006V173H218.534V171.956H221.724V146.436H218.534V145.392ZM277.416 142.376L279.04 141.39C279.272 140.191 278.808 139.592 277.648 139.592C275.985 139.592 275.154 140.868 275.154 143.42C275.154 144.425 275.289 145.585 275.56 146.9C278.499 148.872 279.968 151.405 279.968 154.498C279.968 157.553 278.905 159.931 276.778 161.632C274.651 163.333 271.771 164.184 268.136 164.184C266.628 164.184 265.062 164.029 263.438 163.72C261.737 164.803 260.886 165.615 260.886 166.156C260.886 166.697 262.123 166.968 264.598 166.968H270.514C279.291 166.968 283.68 170.119 283.68 176.422C283.68 179.825 282.346 182.512 279.678 184.484C277.049 186.495 272.931 187.5 267.324 187.5C257.773 187.5 252.998 185.431 252.998 181.294C252.998 179.051 254.487 177.505 257.464 176.654L260.944 178.22C260.635 179.341 260.48 180.405 260.48 181.41C260.48 184.735 262.955 186.398 267.904 186.398C270.92 186.398 273.24 185.837 274.864 184.716C276.488 183.595 277.3 182.203 277.3 180.54C277.3 178.877 276.797 177.756 275.792 177.176C274.825 176.635 272.873 176.364 269.934 176.364H264.308C261.176 176.364 258.933 175.842 257.58 174.798C256.227 173.754 255.55 172.478 255.55 170.97C255.55 169.423 256.033 168.147 257 167.142C257.967 166.098 259.687 164.822 262.162 163.314C257.677 162.038 255.434 159.099 255.434 154.498C255.434 151.598 256.478 149.259 258.566 147.48C260.654 145.701 263.786 144.812 267.962 144.812C270.475 144.812 272.621 145.295 274.4 146.262C274.168 145.218 274.052 144.271 274.052 143.42C274.052 141.255 274.632 139.689 275.792 138.722C276.952 137.755 278.247 137.272 279.678 137.272C281.109 137.272 282.249 137.659 283.1 138.432C283.989 139.167 284.434 140.191 284.434 141.506C284.434 142.821 284.086 143.807 283.39 144.464C282.694 145.083 281.843 145.392 280.838 145.392C279.871 145.392 279.059 145.141 278.402 144.638C277.783 144.097 277.455 143.343 277.416 142.376ZM265.12 153.222V156.354C265.12 158.945 265.333 160.704 265.758 161.632C266.222 162.56 266.899 163.024 267.788 163.024C268.716 163.024 269.373 162.579 269.76 161.69C270.185 160.762 270.398 158.887 270.398 156.064V153.222C270.398 150.206 270.205 148.234 269.818 147.306C269.431 146.339 268.774 145.856 267.846 145.856C266.957 145.856 266.28 146.359 265.816 147.364C265.352 148.331 265.12 150.283 265.12 153.222ZM291.479 173.58C289.816 173.58 288.56 173.097 287.709 172.13C286.897 171.125 286.491 169.926 286.491 168.534C286.491 167.103 286.916 165.905 287.767 164.938C288.656 163.971 289.894 163.488 291.479 163.488C293.064 163.488 294.321 163.894 295.249 164.706C296.177 165.518 296.641 166.736 296.641 168.36C296.641 169.984 296.196 171.26 295.307 172.188C294.456 173.116 293.18 173.58 291.479 173.58Z"/>
</mask>
<path d="M85.592 97.284L90.406 80.58L86.926 69.502H83.62V68.4H101.6V69.502H98.178L106.82 96.936L113.78 69.502H107.922V68.4H119.522V69.502H115.694L105.022 109.58H99.86L91.276 83.364L83.736 109.58H78.69L64.074 69.502H61.348V68.4H80.198V69.502H76.138L85.592 97.284ZM131.039 109.58C126.051 109.58 122.3 108.304 119.787 105.752C117.312 103.161 116.075 99.5847 116.075 95.022C116.075 90.4207 117.467 86.902 120.251 84.466C123.074 82.03 126.65 80.812 130.981 80.812C139.758 80.812 143.973 85.22 143.625 94.036H127.269V96.298C127.269 100.087 127.752 102.949 128.719 104.882C129.686 106.815 131.368 107.782 133.765 107.782C138.25 107.782 141.189 105.385 142.581 100.59L143.625 100.764C142.89 103.548 141.556 105.713 139.623 107.26C137.728 108.807 134.867 109.58 131.039 109.58ZM127.327 92.876H133.301V90.034C133.301 86.902 133.108 84.7753 132.721 83.654C132.373 82.494 131.638 81.914 130.517 81.914C129.434 81.914 128.622 82.5327 128.081 83.77C127.578 84.9687 127.327 87.0567 127.327 90.034V92.876ZM147.32 82.784L146.798 81.972C150.394 79.6133 152.192 77.2547 152.192 74.896C152.192 73.6587 151.67 72.9627 150.626 72.808L148.19 75.07C147.417 74.7993 146.701 74.316 146.044 73.62C145.425 72.8853 145.116 71.9573 145.116 70.836C145.116 69.7147 145.561 68.7673 146.45 67.994C147.339 67.182 148.499 66.776 149.93 66.776C151.399 66.776 152.598 67.2787 153.526 68.284C154.493 69.2507 154.976 70.604 154.976 72.344C154.976 76.1333 152.424 79.6133 147.32 82.784ZM176.391 83.016C174.961 83.016 173.704 83.944 172.621 85.8C171.539 87.656 170.997 89.86 170.997 92.412V107.956H175.115V109H157.019V107.956H160.209V82.436H157.019V81.392H170.997V86.96C171.5 84.988 172.467 83.48 173.897 82.436C175.328 81.3533 176.952 80.812 178.769 80.812C180.587 80.812 182.056 81.334 183.177 82.378C184.337 83.3833 184.917 84.8333 184.917 86.728C184.917 88.584 184.492 90.0147 183.641 91.02C182.791 92.0253 181.476 92.528 179.697 92.528C177.957 92.528 176.662 91.948 175.811 90.788C174.999 89.628 174.903 88.0233 175.521 85.974H177.609C178.576 84.002 178.17 83.016 176.391 83.016ZM200.707 109.58C195.719 109.58 191.968 108.304 189.455 105.752C186.98 103.161 185.743 99.5847 185.743 95.022C185.743 90.4207 187.135 86.902 189.919 84.466C192.742 82.03 196.318 80.812 200.649 80.812C209.426 80.812 213.641 85.22 213.293 94.036H196.937V96.298C196.937 100.087 197.42 102.949 198.387 104.882C199.354 106.815 201.036 107.782 203.433 107.782C207.918 107.782 210.857 105.385 212.249 100.59L213.293 100.764C212.558 103.548 211.224 105.713 209.291 107.26C207.396 108.807 204.535 109.58 200.707 109.58ZM196.995 92.876H202.969V90.034C202.969 86.902 202.776 84.7753 202.389 83.654C202.041 82.494 201.306 81.914 200.185 81.914C199.102 81.914 198.29 82.5327 197.749 83.77C197.246 84.9687 196.995 87.0567 196.995 90.034V92.876ZM84.2 132.922C78.2067 132.922 75.21 138.703 75.21 150.264V154.846C75.21 160.337 76.0027 164.648 77.588 167.78C79.1733 170.873 81.5127 172.42 84.606 172.42C88.8593 172.42 92.7647 168.283 96.322 160.008H97.366L96.96 172.942H96.322C96.09 172.517 95.8773 172.227 95.684 172.072C95.4907 171.879 95.2007 171.782 94.814 171.782C94.466 171.782 93.074 172.091 90.638 172.71C88.202 173.29 85.7273 173.58 83.214 173.58C76.9113 173.58 72.02 171.879 68.54 168.476C65.0987 165.073 63.378 159.969 63.378 153.164C63.378 146.32 65.176 141.042 68.772 137.33C72.4067 133.618 77.2787 131.762 83.388 131.762C85.7467 131.762 88.0473 132.071 90.29 132.69C92.5713 133.27 93.9053 133.56 94.292 133.56C94.6787 133.56 94.9687 133.483 95.162 133.328C95.3553 133.135 95.568 132.825 95.8 132.4H96.438L96.902 144.986H95.858C94.118 141.081 92.32 138.103 90.464 136.054C88.6467 133.966 86.5587 132.922 84.2 132.922ZM119.793 161.574V156.644C119.793 152.893 119.58 150.167 119.155 148.466C118.768 146.726 117.84 145.856 116.371 145.856C115.52 145.856 114.824 146.107 114.283 146.61C113.78 147.074 113.413 147.867 113.181 148.988C112.833 150.728 112.659 153.377 112.659 156.934V161.458C112.659 165.673 112.775 168.205 113.007 169.056C113.277 169.907 113.548 170.603 113.819 171.144C114.244 172.072 115.075 172.536 116.313 172.536C117.821 172.536 118.807 171.666 119.271 169.926C119.619 168.689 119.793 165.905 119.793 161.574ZM116.197 173.58C111.363 173.58 107.709 172.343 105.235 169.868C102.76 167.393 101.523 163.855 101.523 159.254C101.523 154.614 102.837 151.057 105.467 148.582C108.135 146.069 111.866 144.812 116.661 144.812C121.455 144.812 125.032 145.972 127.391 148.292C129.749 150.573 130.929 154.073 130.929 158.79C130.929 168.65 126.018 173.58 116.197 173.58ZM151.285 161.574V156.644C151.285 152.893 151.072 150.167 150.647 148.466C150.26 146.726 149.332 145.856 147.863 145.856C147.012 145.856 146.316 146.107 145.775 146.61C145.272 147.074 144.905 147.867 144.673 148.988C144.325 150.728 144.151 153.377 144.151 156.934V161.458C144.151 165.673 144.267 168.205 144.499 169.056C144.769 169.907 145.04 170.603 145.311 171.144C145.736 172.072 146.567 172.536 147.805 172.536C149.313 172.536 150.299 171.666 150.763 169.926C151.111 168.689 151.285 165.905 151.285 161.574ZM147.689 173.58C142.855 173.58 139.201 172.343 136.727 169.868C134.252 167.393 133.015 163.855 133.015 159.254C133.015 154.614 134.329 151.057 136.959 148.582C139.627 146.069 143.358 144.812 148.153 144.812C152.947 144.812 156.524 145.972 158.883 148.292C161.241 150.573 162.421 154.073 162.421 158.79C162.421 168.65 157.51 173.58 147.689 173.58ZM183.009 173V171.956H185.677L179.123 158.5L178.021 158.79V171.956H180.689V173H164.043V171.956H167.233V130.544H163.811V129.5H178.021V157.63L178.949 157.282L191.999 146.436H186.547V145.392H197.973V146.436H193.913L187.011 152.294L197.045 171.956H199.133V173H183.009ZM208.536 141.39C206.486 141.39 205.017 140.868 204.128 139.824C203.277 138.78 202.852 137.485 202.852 135.938C202.852 134.391 203.316 133.115 204.244 132.11C205.21 131.105 206.66 130.602 208.594 130.602C210.527 130.602 211.996 131.066 213.002 131.994C214.007 132.883 214.51 134.179 214.51 135.88C214.51 137.543 214.026 138.877 213.06 139.882C212.093 140.887 210.585 141.39 208.536 141.39ZM199.778 145.392H213.988V171.956H217.236V173H200.01V171.956H203.2V146.436H199.778V145.392ZM218.534 145.392H232.512V150.728C233.131 148.949 234.078 147.519 235.354 146.436C236.63 145.353 238.563 144.812 241.154 144.812C247.147 144.812 250.144 148.041 250.144 154.498V171.956H253.392V173H236.978V171.956H239.356V153.106C239.356 150.786 239.201 149.297 238.892 148.64C238.583 147.944 238.022 147.596 237.21 147.596C235.973 147.596 234.871 148.408 233.904 150.032C232.976 151.656 232.512 153.628 232.512 155.948V171.956H235.006V173H218.534V171.956H221.724V146.436H218.534V145.392ZM277.416 142.376L279.04 141.39C279.272 140.191 278.808 139.592 277.648 139.592C275.985 139.592 275.154 140.868 275.154 143.42C275.154 144.425 275.289 145.585 275.56 146.9C278.499 148.872 279.968 151.405 279.968 154.498C279.968 157.553 278.905 159.931 276.778 161.632C274.651 163.333 271.771 164.184 268.136 164.184C266.628 164.184 265.062 164.029 263.438 163.72C261.737 164.803 260.886 165.615 260.886 166.156C260.886 166.697 262.123 166.968 264.598 166.968H270.514C279.291 166.968 283.68 170.119 283.68 176.422C283.68 179.825 282.346 182.512 279.678 184.484C277.049 186.495 272.931 187.5 267.324 187.5C257.773 187.5 252.998 185.431 252.998 181.294C252.998 179.051 254.487 177.505 257.464 176.654L260.944 178.22C260.635 179.341 260.48 180.405 260.48 181.41C260.48 184.735 262.955 186.398 267.904 186.398C270.92 186.398 273.24 185.837 274.864 184.716C276.488 183.595 277.3 182.203 277.3 180.54C277.3 178.877 276.797 177.756 275.792 177.176C274.825 176.635 272.873 176.364 269.934 176.364H264.308C261.176 176.364 258.933 175.842 257.58 174.798C256.227 173.754 255.55 172.478 255.55 170.97C255.55 169.423 256.033 168.147 257 167.142C257.967 166.098 259.687 164.822 262.162 163.314C257.677 162.038 255.434 159.099 255.434 154.498C255.434 151.598 256.478 149.259 258.566 147.48C260.654 145.701 263.786 144.812 267.962 144.812C270.475 144.812 272.621 145.295 274.4 146.262C274.168 145.218 274.052 144.271 274.052 143.42C274.052 141.255 274.632 139.689 275.792 138.722C276.952 137.755 278.247 137.272 279.678 137.272C281.109 137.272 282.249 137.659 283.1 138.432C283.989 139.167 284.434 140.191 284.434 141.506C284.434 142.821 284.086 143.807 283.39 144.464C282.694 145.083 281.843 145.392 280.838 145.392C279.871 145.392 279.059 145.141 278.402 144.638C277.783 144.097 277.455 143.343 277.416 142.376ZM265.12 153.222V156.354C265.12 158.945 265.333 160.704 265.758 161.632C266.222 162.56 266.899 163.024 267.788 163.024C268.716 163.024 269.373 162.579 269.76 161.69C270.185 160.762 270.398 158.887 270.398 156.064V153.222C270.398 150.206 270.205 148.234 269.818 147.306C269.431 146.339 268.774 145.856 267.846 145.856C266.957 145.856 266.28 146.359 265.816 147.364C265.352 148.331 265.12 150.283 265.12 153.222ZM291.479 173.58C289.816 173.58 288.56 173.097 287.709 172.13C286.897 171.125 286.491 169.926 286.491 168.534C286.491 167.103 286.916 165.905 287.767 164.938C288.656 163.971 289.894 163.488 291.479 163.488C293.064 163.488 294.321 163.894 295.249 164.706C296.177 165.518 296.641 166.736 296.641 168.36C296.641 169.984 296.196 171.26 295.307 172.188C294.456 173.116 293.18 173.58 291.479 173.58Z" fill="#FFFFF0"/>
<path d="M85.592 97.284L84.6453 97.6062L85.6711 100.621L86.5529 97.5609L85.592 97.284ZM90.406 80.58L91.3669 80.8569L91.4503 80.5676L91.36 80.2803L90.406 80.58ZM86.926 69.502L87.88 69.2023L87.66 68.502H86.926V69.502ZM83.62 69.502H82.62V70.502H83.62V69.502ZM83.62 68.4V67.4H82.62V68.4H83.62ZM101.6 68.4H102.6V67.4H101.6V68.4ZM101.6 69.502V70.502H102.6V69.502H101.6ZM98.178 69.502V68.502H96.8145L97.2242 69.8025L98.178 69.502ZM106.82 96.936L105.866 97.2365L106.924 100.594L107.789 97.1819L106.82 96.936ZM113.78 69.502L114.749 69.7479L115.065 68.502H113.78V69.502ZM107.922 69.502H106.922V70.502H107.922V69.502ZM107.922 68.4V67.4H106.922V68.4H107.922ZM119.522 68.4H120.522V67.4H119.522V68.4ZM119.522 69.502V70.502H120.522V69.502H119.522ZM115.694 69.502V68.502H114.925L114.728 69.2447L115.694 69.502ZM105.022 109.58V110.58H105.791L105.988 109.837L105.022 109.58ZM99.86 109.58L98.9096 109.891L99.1352 110.58H99.86V109.58ZM91.276 83.364L92.2264 83.0528L91.2141 79.9613L90.315 83.0876L91.276 83.364ZM83.736 109.58V110.58H84.4889L84.697 109.856L83.736 109.58ZM78.69 109.58L77.7505 109.923L77.9903 110.58H78.69V109.58ZM64.074 69.502L65.0135 69.1594L64.7737 68.502H64.074V69.502ZM61.348 69.502H60.348V70.502H61.348V69.502ZM61.348 68.4V67.4H60.348V68.4H61.348ZM80.198 68.4H81.198V67.4H80.198V68.4ZM80.198 69.502V70.502H81.198V69.502H80.198ZM76.138 69.502V68.502H74.7414L75.1913 69.8241L76.138 69.502ZM86.5529 97.5609L91.3669 80.8569L89.4451 80.3031L84.6311 97.0071L86.5529 97.5609ZM91.36 80.2803L87.88 69.2023L85.972 69.8017L89.452 80.8797L91.36 80.2803ZM86.926 68.502H83.62V70.502H86.926V68.502ZM84.62 69.502V68.4H82.62V69.502H84.62ZM83.62 69.4H101.6V67.4H83.62V69.4ZM100.6 68.4V69.502H102.6V68.4H100.6ZM101.6 68.502H98.178V70.502H101.6V68.502ZM97.2242 69.8025L105.866 97.2365L107.774 96.6355L99.1318 69.2015L97.2242 69.8025ZM107.789 97.1819L114.749 69.7479L112.811 69.2561L105.851 96.6901L107.789 97.1819ZM113.78 68.502H107.922V70.502H113.78V68.502ZM108.922 69.502V68.4H106.922V69.502H108.922ZM107.922 69.4H119.522V67.4H107.922V69.4ZM118.522 68.4V69.502H120.522V68.4H118.522ZM119.522 68.502H115.694V70.502H119.522V68.502ZM114.728 69.2447L104.056 109.323L105.988 109.837L116.66 69.7593L114.728 69.2447ZM105.022 108.58H99.86V110.58H105.022V108.58ZM100.81 109.269L92.2264 83.0528L90.3256 83.6752L98.9096 109.891L100.81 109.269ZM90.315 83.0876L82.775 109.304L84.697 109.856L92.237 83.6404L90.315 83.0876ZM83.736 108.58H78.69V110.58H83.736V108.58ZM79.6295 109.237L65.0135 69.1594L63.1345 69.8446L77.7505 109.923L79.6295 109.237ZM64.074 68.502H61.348V70.502H64.074V68.502ZM62.348 69.502V68.4H60.348V69.502H62.348ZM61.348 69.4H80.198V67.4H61.348V69.4ZM79.198 68.4V69.502H81.198V68.4H79.198ZM80.198 68.502H76.138V70.502H80.198V68.502ZM75.1913 69.8241L84.6453 97.6062L86.5387 96.9618L77.0847 69.1798L75.1913 69.8241ZM119.787 105.752L119.064 106.443L119.069 106.448L119.075 106.454L119.787 105.752ZM120.251 84.466L119.598 83.7089L119.593 83.7134L120.251 84.466ZM143.625 94.036V95.036H144.586L144.624 94.0754L143.625 94.036ZM127.269 94.036V93.036H126.269V94.036H127.269ZM128.719 104.882L127.825 105.329L127.825 105.329L128.719 104.882ZM142.581 100.59L142.745 99.6036L141.869 99.4575L141.621 100.311L142.581 100.59ZM143.625 100.764L144.592 101.019L144.872 99.958L143.789 99.7776L143.625 100.764ZM139.623 107.26L138.998 106.479L138.991 106.485L139.623 107.26ZM127.327 92.876H126.327V93.876H127.327V92.876ZM133.301 92.876V93.876H134.301V92.876H133.301ZM132.721 83.654L131.763 83.9413L131.769 83.9608L131.776 83.98L132.721 83.654ZM128.081 83.77L127.165 83.3692L127.162 83.3762L127.159 83.3833L128.081 83.77ZM131.039 108.58C126.212 108.58 122.761 107.347 120.5 105.05L119.075 106.454C121.84 109.261 125.89 110.58 131.039 110.58V108.58ZM120.51 105.061C118.258 102.704 117.075 99.4007 117.075 95.022H115.075C115.075 99.7686 116.367 103.619 119.064 106.443L120.51 105.061ZM117.075 95.022C117.075 90.633 118.394 87.4198 120.91 85.2186L119.593 83.7134C116.54 86.3842 115.075 90.2083 115.075 95.022H117.075ZM120.904 85.2231C123.517 82.9686 126.849 81.812 130.981 81.812V79.812C126.452 79.812 122.631 81.0914 119.598 83.7089L120.904 85.2231ZM130.981 81.812C135.218 81.812 138.154 82.8756 140.002 84.8091C141.852 86.7436 142.794 89.7375 142.626 93.9966L144.624 94.0754C144.804 89.5185 143.813 85.9004 141.448 83.4269C139.082 80.9524 135.521 79.812 130.981 79.812V81.812ZM143.625 93.036H127.269V95.036H143.625V93.036ZM126.269 94.036V96.298H128.269V94.036H126.269ZM126.269 96.298C126.269 100.142 126.754 103.189 127.825 105.329L129.614 104.435C128.75 102.708 128.269 100.032 128.269 96.298H126.269ZM127.825 105.329C128.385 106.451 129.177 107.332 130.207 107.924C131.232 108.513 132.432 108.782 133.765 108.782V106.782C132.7 106.782 131.861 106.568 131.204 106.19C130.552 105.816 130.019 105.246 129.614 104.435L127.825 105.329ZM133.765 108.782C136.194 108.782 138.286 108.129 139.965 106.759C141.635 105.397 142.807 103.4 143.541 100.869L141.621 100.311C140.964 102.575 139.97 104.174 138.701 105.209C137.441 106.237 135.821 106.782 133.765 106.782V108.782ZM142.417 101.576L143.461 101.75L143.789 99.7776L142.745 99.6036L142.417 101.576ZM142.658 100.509C141.969 103.12 140.738 105.087 138.998 106.479L140.248 108.041C142.375 106.339 143.812 103.976 144.592 101.019L142.658 100.509ZM138.991 106.485C137.351 107.824 134.76 108.58 131.039 108.58V110.58C134.975 110.58 138.106 109.789 140.255 108.035L138.991 106.485ZM127.327 93.876H133.301V91.876H127.327V93.876ZM134.301 92.876V90.034H132.301V92.876H134.301ZM134.301 90.034C134.301 86.9158 134.115 84.6288 133.666 83.328L131.776 83.98C132.1 84.9219 132.301 86.8882 132.301 90.034H134.301ZM133.679 83.3667C133.463 82.6476 133.099 82.0141 132.529 81.5641C131.952 81.1087 131.257 80.914 130.517 80.914V82.914C130.899 82.914 131.132 83.0093 131.289 83.1339C131.454 83.2639 131.631 83.5004 131.763 83.9413L133.679 83.3667ZM130.517 80.914C129.771 80.914 129.081 81.1322 128.49 81.5826C127.912 82.0229 127.482 82.6434 127.165 83.3692L128.997 84.1708C129.221 83.6593 129.468 83.3517 129.702 83.1734C129.923 83.0051 130.181 82.914 130.517 82.914V80.914ZM127.159 83.3833C126.572 84.7837 126.327 87.0518 126.327 90.034H128.327C128.327 87.0615 128.585 85.1536 129.003 84.1567L127.159 83.3833ZM126.327 90.034V92.876H128.327V90.034H126.327ZM147.32 82.784L146.479 83.3248L147.011 84.153L147.848 83.6334L147.32 82.784ZM146.798 81.972L146.249 81.1358L145.421 81.6793L145.957 82.5128L146.798 81.972ZM150.626 72.808L150.772 71.8188L150.297 71.7484L149.945 72.0752L150.626 72.808ZM148.19 75.07L147.86 76.0139L148.429 76.213L148.87 75.8028L148.19 75.07ZM146.044 73.62L145.279 74.2641L145.297 74.2859L145.317 74.3066L146.044 73.62ZM146.45 67.994L147.106 68.7486L147.115 68.7407L147.124 68.7325L146.45 67.994ZM153.526 68.284L152.791 68.9623L152.805 68.977L152.819 68.9911L153.526 68.284ZM148.161 82.2432L147.639 81.4312L145.957 82.5128L146.479 83.3248L148.161 82.2432ZM147.346 82.8082C150.998 80.4127 153.192 77.7932 153.192 74.896H151.192C151.192 76.7161 149.789 78.814 146.249 81.1358L147.346 82.8082ZM153.192 74.896C153.192 74.1496 153.036 73.4266 152.6 72.846C152.149 72.2438 151.496 71.926 150.772 71.8188L150.479 73.7972C150.8 73.8447 150.93 73.9522 151 74.046C151.087 74.1614 151.192 74.4051 151.192 74.896H153.192ZM149.945 72.0752L147.509 74.3372L148.87 75.8028L151.306 73.5408L149.945 72.0752ZM148.52 74.1261C147.921 73.9165 147.337 73.5327 146.771 72.9334L145.317 74.3066C146.065 75.0993 146.912 75.6822 147.86 76.0139L148.52 74.1261ZM146.809 72.9759C146.367 72.4509 146.116 71.7632 146.116 70.836H144.116C144.116 72.1515 144.484 73.3197 145.279 74.2641L146.809 72.9759ZM146.116 70.836C146.116 70.0205 146.422 69.343 147.106 68.7486L145.794 67.2394C144.699 68.1916 144.116 69.4088 144.116 70.836H146.116ZM147.124 68.7325C147.796 68.1195 148.699 67.776 149.93 67.776V65.776C148.299 65.776 146.883 66.2445 145.776 67.2555L147.124 68.7325ZM149.93 67.776C151.143 67.776 152.067 68.1784 152.791 68.9623L154.261 67.6057C153.128 66.3789 151.655 65.776 149.93 65.776V67.776ZM152.819 68.9911C153.55 69.7226 153.976 70.7933 153.976 72.344H155.976C155.976 70.4147 155.435 68.7787 154.233 67.5769L152.819 68.9911ZM153.976 72.344C153.976 75.6184 151.783 78.8344 146.792 81.9346L147.848 83.6334C153.065 80.3923 155.976 76.6482 155.976 72.344H153.976ZM172.621 85.8L173.485 86.3039L173.485 86.3039L172.621 85.8ZM170.997 107.956H169.997V108.956H170.997V107.956ZM175.115 107.956H176.115V106.956H175.115V107.956ZM175.115 109V110H176.115V109H175.115ZM157.019 109H156.019V110H157.019V109ZM157.019 107.956V106.956H156.019V107.956H157.019ZM160.209 107.956V108.956H161.209V107.956H160.209ZM160.209 82.436H161.209V81.436H160.209V82.436ZM157.019 82.436H156.019V83.436H157.019V82.436ZM157.019 81.392V80.392H156.019V81.392H157.019ZM170.997 81.392H171.997V80.392H170.997V81.392ZM170.997 86.96H169.997L171.966 87.207L170.997 86.96ZM173.897 82.436L174.487 83.2438L174.494 83.2387L174.501 83.2334L173.897 82.436ZM183.177 82.378L182.496 83.1099L182.509 83.122L182.523 83.1337L183.177 82.378ZM183.641 91.02L182.878 90.3741L182.878 90.3741L183.641 91.02ZM175.811 90.788L174.992 91.3615L174.999 91.3705L175.005 91.3794L175.811 90.788ZM175.521 85.974V84.974H174.779L174.564 85.685L175.521 85.974ZM177.609 85.974V86.974H178.233L178.507 86.4142L177.609 85.974ZM176.391 82.016C174.447 82.016 172.922 83.3001 171.758 85.2961L173.485 86.3039C174.486 84.5879 175.475 84.016 176.391 84.016V82.016ZM171.758 85.2961C170.57 87.3315 169.997 89.7163 169.997 92.412H171.997C171.997 90.0037 172.507 87.9805 173.485 86.3039L171.758 85.2961ZM169.997 92.412V107.956H171.997V92.412H169.997ZM170.997 108.956H175.115V106.956H170.997V108.956ZM174.115 107.956V109H176.115V107.956H174.115ZM175.115 108H157.019V110H175.115V108ZM158.019 109V107.956H156.019V109H158.019ZM157.019 108.956H160.209V106.956H157.019V108.956ZM161.209 107.956V82.436H159.209V107.956H161.209ZM160.209 81.436H157.019V83.436H160.209V81.436ZM158.019 82.436V81.392H156.019V82.436H158.019ZM157.019 82.392H170.997V80.392H157.019V82.392ZM169.997 81.392V86.96H171.997V81.392H169.997ZM171.966 87.207C172.421 85.4249 173.272 84.1306 174.487 83.2438L173.308 81.6282C171.662 82.8294 170.58 84.5511 170.028 86.713L171.966 87.207ZM174.501 83.2334C175.755 82.284 177.167 81.812 178.769 81.812V79.812C176.737 79.812 174.901 80.4226 173.294 81.6386L174.501 83.2334ZM178.769 81.812C180.384 81.812 181.593 82.2695 182.496 83.1099L183.859 81.6461C182.519 80.3985 180.79 79.812 178.769 79.812V81.812ZM182.523 83.1337C183.413 83.9056 183.917 85.0496 183.917 86.728H185.917C185.917 84.6171 185.262 82.8611 183.832 81.6223L182.523 83.1337ZM183.917 86.728C183.917 88.4432 183.524 89.6109 182.878 90.3741L184.405 91.6659C185.46 90.4184 185.917 88.7248 185.917 86.728H183.917ZM182.878 90.3741C182.278 91.0832 181.291 91.528 179.697 91.528V93.528C181.661 93.528 183.304 92.9675 184.405 91.6659L182.878 90.3741ZM179.697 91.528C178.201 91.528 177.24 91.0446 176.618 90.1966L175.005 91.3794C176.085 92.8514 177.714 93.528 179.697 93.528V91.528ZM176.631 90.2145C176.07 89.413 175.902 88.1728 176.479 86.263L174.564 85.685C173.903 87.8739 173.929 89.843 174.992 91.3615L176.631 90.2145ZM175.521 86.974H177.609V84.974H175.521V86.974ZM178.507 86.4142C178.772 85.874 178.967 85.3541 179.06 84.8661C179.152 84.3809 179.155 83.8603 178.955 83.3747C178.509 82.2922 177.388 82.016 176.391 82.016V84.016C176.757 84.016 176.96 84.0687 177.057 84.1123C177.1 84.1318 177.112 84.1452 177.111 84.1437C177.108 84.1406 177.105 84.1354 177.105 84.1362C177.108 84.1437 177.143 84.2393 177.095 84.4936C177.047 84.7451 176.93 85.088 176.712 85.5338L178.507 86.4142ZM189.455 105.752L188.732 106.443L188.737 106.448L188.743 106.454L189.455 105.752ZM189.919 84.466L189.266 83.7089L189.261 83.7134L189.919 84.466ZM213.293 94.036V95.036H214.254L214.292 94.0754L213.293 94.036ZM196.937 94.036V93.036H195.937V94.036H196.937ZM198.387 104.882L197.493 105.329L197.493 105.329L198.387 104.882ZM212.249 100.59L212.413 99.6036L211.537 99.4575L211.289 100.311L212.249 100.59ZM213.293 100.764L214.26 101.019L214.54 99.958L213.457 99.7776L213.293 100.764ZM209.291 107.26L208.666 106.479L208.659 106.485L209.291 107.26ZM196.995 92.876H195.995V93.876H196.995V92.876ZM202.969 92.876V93.876H203.969V92.876H202.969ZM202.389 83.654L201.431 83.9413L201.437 83.9608L201.444 83.98L202.389 83.654ZM197.749 83.77L196.833 83.3692L196.83 83.3762L196.827 83.3833L197.749 83.77ZM200.707 108.58C195.88 108.58 192.429 107.347 190.168 105.05L188.743 106.454C191.508 109.261 195.558 110.58 200.707 110.58V108.58ZM190.178 105.061C187.926 102.704 186.743 99.4007 186.743 95.022H184.743C184.743 99.7686 186.035 103.619 188.732 106.443L190.178 105.061ZM186.743 95.022C186.743 90.633 188.062 87.4198 190.578 85.2186L189.261 83.7134C186.208 86.3842 184.743 90.2083 184.743 95.022H186.743ZM190.572 85.2231C193.185 82.9686 196.517 81.812 200.649 81.812V79.812C196.119 79.812 192.299 81.0914 189.266 83.7089L190.572 85.2231ZM200.649 81.812C204.886 81.812 207.822 82.8756 209.67 84.8091C211.52 86.7436 212.462 89.7375 212.294 93.9966L214.292 94.0754C214.472 89.5185 213.481 85.9004 211.116 83.4269C208.75 80.9524 205.189 79.812 200.649 79.812V81.812ZM213.293 93.036H196.937V95.036H213.293V93.036ZM195.937 94.036V96.298H197.937V94.036H195.937ZM195.937 96.298C195.937 100.142 196.422 103.189 197.493 105.329L199.281 104.435C198.418 102.708 197.937 100.032 197.937 96.298H195.937ZM197.493 105.329C198.053 106.451 198.845 107.332 199.875 107.924C200.9 108.513 202.1 108.782 203.433 108.782V106.782C202.368 106.782 201.529 106.568 200.872 106.19C200.22 105.816 199.687 105.246 199.281 104.435L197.493 105.329ZM203.433 108.782C205.862 108.782 207.954 108.129 209.633 106.759C211.303 105.397 212.475 103.4 213.209 100.869L211.289 100.311C210.632 102.575 209.638 104.174 208.369 105.209C207.109 106.237 205.489 106.782 203.433 106.782V108.782ZM212.085 101.576L213.129 101.75L213.457 99.7776L212.413 99.6036L212.085 101.576ZM212.326 100.509C211.637 103.12 210.406 105.087 208.666 106.479L209.916 108.041C212.043 106.339 213.48 103.976 214.26 101.019L212.326 100.509ZM208.659 106.485C207.019 107.824 204.428 108.58 200.707 108.58V110.58C204.643 110.58 207.774 109.789 209.923 108.035L208.659 106.485ZM196.995 93.876H202.969V91.876H196.995V93.876ZM203.969 92.876V90.034H201.969V92.876H203.969ZM203.969 90.034C203.969 86.9158 203.783 84.6288 203.334 83.328L201.444 83.98C201.768 84.9219 201.969 86.8882 201.969 90.034H203.969ZM203.347 83.3667C203.131 82.6476 202.767 82.0141 202.197 81.5641C201.62 81.1087 200.924 80.914 200.185 80.914V82.914C200.567 82.914 200.8 83.0093 200.957 83.1339C201.122 83.2639 201.299 83.5004 201.431 83.9413L203.347 83.3667ZM200.185 80.914C199.439 80.914 198.749 81.1322 198.158 81.5826C197.58 82.0229 197.15 82.6434 196.833 83.3692L198.665 84.1708C198.889 83.6593 199.136 83.3517 199.37 83.1734C199.591 83.0051 199.849 82.914 200.185 82.914V80.914ZM196.827 83.3833C196.24 84.7837 195.995 87.0518 195.995 90.034H197.995C197.995 87.0615 198.253 85.1536 198.671 84.1567L196.827 83.3833ZM195.995 90.034V92.876H197.995V90.034H195.995ZM77.588 167.78L76.6958 168.232L76.6981 168.236L77.588 167.78ZM96.322 160.008V159.008H95.6634L95.4033 159.613L96.322 160.008ZM97.366 160.008L98.3655 160.039L98.3979 159.008H97.366V160.008ZM96.96 172.942V173.942H97.9291L97.9595 172.973L96.96 172.942ZM96.322 172.942L95.4441 173.421L95.7284 173.942H96.322V172.942ZM95.684 172.072L94.9769 172.779L95.0161 172.818L95.0593 172.853L95.684 172.072ZM90.638 172.71L90.8696 173.683L90.8769 173.681L90.8842 173.679L90.638 172.71ZM68.54 168.476L67.8369 169.187L67.8409 169.191L68.54 168.476ZM68.772 137.33L68.0575 136.63L68.0538 136.634L68.772 137.33ZM90.29 132.69L90.0241 133.654L90.0338 133.657L90.0436 133.659L90.29 132.69ZM95.162 133.328L95.7867 134.109L95.8299 134.074L95.8691 134.035L95.162 133.328ZM95.8 132.4V131.4H95.2064L94.9221 131.921L95.8 132.4ZM96.438 132.4L97.4373 132.363L97.4018 131.4H96.438V132.4ZM96.902 144.986V145.986H97.9395L97.9013 144.949L96.902 144.986ZM95.858 144.986L94.9446 145.393L95.2088 145.986H95.858V144.986ZM90.464 136.054L89.7097 136.711L89.7162 136.718L89.7228 136.725L90.464 136.054ZM84.2 131.922C82.5339 131.922 81.0302 132.326 79.726 133.165C78.4264 134 77.3818 135.231 76.5697 136.797C74.9607 139.901 74.21 144.429 74.21 150.264H76.21C76.21 144.537 76.9576 140.395 78.3453 137.718C79.0316 136.394 79.8599 135.456 80.8077 134.847C81.7511 134.24 82.8694 133.922 84.2 133.922V131.922ZM74.21 150.264V154.846H76.21V150.264H74.21ZM74.21 154.846C74.21 160.414 75.0107 164.903 76.6958 168.232L78.4802 167.328C76.9946 164.393 76.21 160.26 76.21 154.846H74.21ZM76.6981 168.236C77.5506 169.9 78.6364 171.206 79.98 172.094C81.3299 172.987 82.8842 173.42 84.606 173.42V171.42C83.2344 171.42 82.0724 171.08 81.083 170.426C80.0873 169.768 79.2107 168.754 78.4779 167.324L76.6981 168.236ZM84.606 173.42C87.0916 173.42 89.377 172.202 91.4522 170.003C93.5182 167.815 95.4395 164.593 97.2407 160.403L95.4033 159.613C93.6471 163.698 91.8371 166.682 89.9978 168.631C88.1676 170.569 86.3737 171.42 84.606 171.42V173.42ZM96.322 161.008H97.366V159.008H96.322V161.008ZM96.3665 159.977L95.9605 172.911L97.9595 172.973L98.3655 160.039L96.3665 159.977ZM96.96 171.942H96.322V173.942H96.96V171.942ZM97.1999 172.463C96.9535 172.011 96.6634 171.575 96.3087 171.291L95.0593 172.853C95.059 172.853 95.062 172.855 95.0682 172.861C95.0744 172.867 95.083 172.875 95.0941 172.888C95.1167 172.912 95.1462 172.948 95.1821 172.997C95.2549 173.096 95.3426 173.235 95.4441 173.421L97.1999 172.463ZM96.3911 171.365C95.9441 170.918 95.3548 170.782 94.814 170.782V172.782C94.927 172.782 94.9851 172.796 95.0053 172.803C95.0206 172.808 95.0024 172.805 94.9769 172.779L96.3911 171.365ZM94.814 170.782C94.6282 170.782 94.396 170.817 94.1822 170.855C93.9449 170.898 93.6467 170.959 93.2921 171.038C92.5816 171.196 91.6135 171.431 90.3918 171.741L90.8842 173.679C92.0985 173.371 93.0444 173.142 93.7259 172.99C94.0673 172.914 94.3346 172.86 94.5323 172.825C94.7535 172.785 94.8258 172.782 94.814 172.782V170.782ZM90.4064 171.737C88.0465 172.299 85.6496 172.58 83.214 172.58V174.58C85.805 174.58 88.3575 174.281 90.8696 173.683L90.4064 171.737ZM83.214 172.58C77.0925 172.58 72.4819 170.932 69.2391 167.761L67.8409 169.191C71.5581 172.826 76.7302 174.58 83.214 174.58V172.58ZM69.2431 167.765C66.0579 164.615 64.378 159.812 64.378 153.164H62.378C62.378 160.126 64.1394 165.531 67.8369 169.187L69.2431 167.765ZM64.378 153.164C64.378 146.493 66.1275 141.497 69.4902 138.026L68.0538 136.634C64.2245 140.587 62.378 146.147 62.378 153.164H64.378ZM69.4865 138.03C72.9001 134.543 77.4964 132.762 83.388 132.762V130.762C77.0609 130.762 71.9133 132.693 68.0575 136.63L69.4865 138.03ZM83.388 132.762C85.6581 132.762 87.8692 133.06 90.0241 133.654L90.5559 131.726C88.2254 131.083 85.8353 130.762 83.388 130.762V132.762ZM90.0436 133.659C91.1887 133.95 92.1055 134.171 92.7891 134.32C93.4255 134.458 93.9693 134.56 94.292 134.56V132.56C94.2985 132.56 94.2781 132.56 94.2181 132.553C94.1622 132.547 94.0872 132.536 93.9906 132.52C93.797 132.487 93.5396 132.436 93.2139 132.365C92.5635 132.224 91.6726 132.01 90.5364 131.721L90.0436 133.659ZM94.292 134.56C94.7855 134.56 95.3407 134.466 95.7867 134.109L94.5373 132.547C94.5692 132.522 94.5808 132.525 94.5418 132.536C94.501 132.547 94.4219 132.56 94.292 132.56V134.56ZM95.8691 134.035C96.1628 133.741 96.4296 133.334 96.6779 132.879L94.9221 131.921C94.7064 132.317 94.5478 132.528 94.4549 132.621L95.8691 134.035ZM95.8 133.4H96.438V131.4H95.8V133.4ZM95.4387 132.437L95.9027 145.023L97.9013 144.949L97.4373 132.363L95.4387 132.437ZM96.902 143.986H95.858V145.986H96.902V143.986ZM96.7714 144.579C95.0092 140.624 93.16 137.541 91.2052 135.383L89.7228 136.725C91.48 138.666 93.2268 141.538 94.9446 145.393L96.7714 144.579ZM91.2183 135.397C89.2474 133.133 86.8991 131.922 84.2 131.922V133.922C86.2183 133.922 88.0459 134.799 89.7097 136.711L91.2183 135.397ZM119.155 148.466L118.178 148.683L118.181 148.696L118.184 148.709L119.155 148.466ZM114.283 146.61L114.961 147.345L114.963 147.343L114.283 146.61ZM113.181 148.988L112.201 148.785L112.2 148.792L113.181 148.988ZM113.007 169.056L112.042 169.319L112.047 169.339L112.054 169.359L113.007 169.056ZM113.819 171.144L114.728 170.727L114.721 170.712L114.713 170.697L113.819 171.144ZM119.271 169.926L118.308 169.655L118.304 169.668L119.271 169.926ZM105.235 169.868L104.527 170.575L104.527 170.575L105.235 169.868ZM105.467 148.582L106.152 149.31L106.152 149.31L105.467 148.582ZM127.391 148.292L126.689 149.005L126.695 149.011L127.391 148.292ZM120.793 161.574V156.644H118.793V161.574H120.793ZM120.793 156.644C120.793 152.882 120.582 150.052 120.125 148.223L118.184 148.709C118.578 150.283 118.793 152.904 118.793 156.644H120.793ZM120.131 148.249C119.911 147.259 119.511 146.397 118.852 145.779C118.174 145.143 117.317 144.856 116.371 144.856V146.856C116.893 146.856 117.235 147.004 117.485 147.238C117.754 147.49 118.012 147.933 118.178 148.683L120.131 148.249ZM116.371 144.856C115.308 144.856 114.356 145.177 113.602 145.877L114.963 147.343C115.291 147.038 115.731 146.856 116.371 146.856V144.856ZM113.604 145.875C112.876 146.548 112.45 147.584 112.201 148.785L114.16 149.191C114.375 148.149 114.684 147.6 114.961 147.345L113.604 145.875ZM112.2 148.792C111.832 150.633 111.659 153.363 111.659 156.934H113.659C113.659 153.391 113.833 150.823 114.161 149.184L112.2 148.792ZM111.659 156.934V161.458H113.659V156.934H111.659ZM111.659 161.458C111.659 163.572 111.688 165.276 111.747 166.564C111.804 167.815 111.892 168.77 112.042 169.319L113.971 168.793C113.889 168.491 113.803 167.755 113.744 166.473C113.687 165.228 113.659 163.559 113.659 161.458H111.659ZM112.054 169.359C112.333 170.238 112.622 170.987 112.924 171.591L114.713 170.697C114.474 170.218 114.221 169.575 113.959 168.753L112.054 169.359ZM112.909 171.561C113.204 172.203 113.659 172.718 114.274 173.061C114.876 173.398 115.573 173.536 116.313 173.536V171.536C115.815 171.536 115.477 171.442 115.248 171.315C115.032 171.194 114.859 171.013 114.728 170.727L112.909 171.561ZM116.313 173.536C117.272 173.536 118.142 173.253 118.845 172.633C119.531 172.028 119.972 171.176 120.237 170.184L118.304 169.668C118.105 170.416 117.821 170.869 117.521 171.134C117.238 171.384 116.861 171.536 116.313 171.536V173.536ZM120.233 170.197C120.438 169.469 120.573 168.373 120.66 166.972C120.749 165.552 120.793 163.75 120.793 161.574H118.793C118.793 163.729 118.749 165.484 118.664 166.848C118.577 168.231 118.451 169.146 118.308 169.655L120.233 170.197ZM116.197 172.58C111.525 172.58 108.167 171.386 105.942 169.161L104.527 170.575C107.252 173.299 111.201 174.58 116.197 174.58V172.58ZM105.942 169.161C103.708 166.927 102.523 163.677 102.523 159.254H100.523C100.523 164.034 101.812 167.859 104.527 170.575L105.942 169.161ZM102.523 159.254C102.523 154.807 103.777 151.546 106.152 149.31L104.781 147.854C101.898 150.568 100.523 154.421 100.523 159.254H102.523ZM106.152 149.31C108.583 147.02 112.04 145.812 116.661 145.812V143.812C111.692 143.812 107.686 145.117 104.781 147.854L106.152 149.31ZM116.661 145.812C121.311 145.812 124.588 146.938 126.689 149.005L128.092 147.579C125.476 145.006 121.6 143.812 116.661 143.812V145.812ZM126.695 149.011C128.787 151.034 129.929 154.224 129.929 158.79H131.929C131.929 153.921 130.711 150.113 128.086 147.573L126.695 149.011ZM129.929 158.79C129.929 163.567 128.74 166.966 126.537 169.177C124.335 171.387 120.952 172.58 116.197 172.58V174.58C121.262 174.58 125.245 173.308 127.954 170.588C130.662 167.869 131.929 163.873 131.929 158.79H129.929ZM150.647 148.466L149.671 148.683L149.673 148.696L149.677 148.709L150.647 148.466ZM145.775 146.61L146.453 147.345L146.455 147.343L145.775 146.61ZM144.673 148.988L143.693 148.785L143.692 148.792L144.673 148.988ZM144.499 169.056L143.534 169.319L143.539 169.339L143.546 169.359L144.499 169.056ZM145.311 171.144L146.22 170.727L146.213 170.712L146.205 170.697L145.311 171.144ZM150.763 169.926L149.8 169.655L149.796 169.668L150.763 169.926ZM136.727 169.868L136.02 170.575L136.02 170.575L136.727 169.868ZM136.959 148.582L137.644 149.31L137.644 149.31L136.959 148.582ZM158.883 148.292L158.181 149.005L158.187 149.011L158.883 148.292ZM152.285 161.574V156.644H150.285V161.574H152.285ZM152.285 156.644C152.285 152.882 152.074 150.052 151.617 148.223L149.677 148.709C150.07 150.283 150.285 152.904 150.285 156.644H152.285ZM151.623 148.249C151.403 147.259 151.003 146.397 150.345 145.779C149.667 145.143 148.809 144.856 147.863 144.856V146.856C148.386 146.856 148.727 147.004 148.977 147.238C149.246 147.49 149.504 147.933 149.671 148.683L151.623 148.249ZM147.863 144.856C146.801 144.856 145.849 145.177 145.094 145.877L146.455 147.343C146.784 147.038 147.223 146.856 147.863 146.856V144.856ZM145.096 145.875C144.368 146.548 143.942 147.584 143.693 148.785L145.652 149.191C145.867 148.149 146.176 147.6 146.453 147.345L145.096 145.875ZM143.692 148.792C143.324 150.633 143.151 153.363 143.151 156.934H145.151C145.151 153.391 145.325 150.823 145.653 149.184L143.692 148.792ZM143.151 156.934V161.458H145.151V156.934H143.151ZM143.151 161.458C143.151 163.572 143.18 165.276 143.239 166.564C143.296 167.815 143.384 168.77 143.534 169.319L145.463 168.793C145.381 168.491 145.295 167.755 145.237 166.473C145.18 165.228 145.151 163.559 145.151 161.458H143.151ZM143.546 169.359C143.826 170.238 144.114 170.987 144.416 171.591L146.205 170.697C145.966 170.218 145.713 169.575 145.452 168.753L143.546 169.359ZM144.402 171.561C144.696 172.203 145.151 172.718 145.766 173.061C146.369 173.398 147.065 173.536 147.805 173.536V171.536C147.307 171.536 146.969 171.442 146.741 171.315C146.524 171.194 146.351 171.013 146.22 170.727L144.402 171.561ZM147.805 173.536C148.764 173.536 149.634 173.253 150.337 172.633C151.023 172.028 151.464 171.176 151.729 170.184L149.796 169.668C149.597 170.416 149.313 170.869 149.014 171.134C148.73 171.384 148.353 171.536 147.805 171.536V173.536ZM151.725 170.197C151.93 169.469 152.065 168.373 152.152 166.972C152.241 165.552 152.285 163.75 152.285 161.574H150.285C150.285 163.729 150.241 165.484 150.156 166.848C150.07 168.231 149.943 169.146 149.8 169.655L151.725 170.197ZM147.689 172.58C143.017 172.58 139.659 171.386 137.434 169.161L136.02 170.575C138.744 173.299 142.693 174.58 147.689 174.58V172.58ZM137.434 169.161C135.2 166.927 134.015 163.677 134.015 159.254H132.015C132.015 164.034 133.304 167.859 136.02 170.575L137.434 169.161ZM134.015 159.254C134.015 154.807 135.269 151.546 137.644 149.31L136.273 147.854C133.39 150.568 132.015 154.421 132.015 159.254H134.015ZM137.644 149.31C140.075 147.02 143.532 145.812 148.153 145.812V143.812C143.184 143.812 139.178 145.117 136.273 147.854L137.644 149.31ZM148.153 145.812C152.803 145.812 156.08 146.938 158.181 149.005L159.584 147.579C156.968 145.006 153.092 143.812 148.153 143.812V145.812ZM158.187 149.011C160.279 151.034 161.421 154.224 161.421 158.79H163.421C163.421 153.921 162.203 150.113 159.578 147.573L158.187 149.011ZM161.421 158.79C161.421 163.567 160.232 166.966 158.029 169.177C155.827 171.387 152.444 172.58 147.689 172.58V174.58C152.755 174.58 156.737 173.308 159.446 170.588C162.154 167.869 163.421 163.873 163.421 158.79H161.421ZM183.009 173H182.009V174H183.009V173ZM183.009 171.956V170.956H182.009V171.956H183.009ZM185.677 171.956V172.956H187.276L186.576 171.518L185.677 171.956ZM179.123 158.5L180.022 158.062L179.662 157.324L178.868 157.533L179.123 158.5ZM178.021 158.79L177.766 157.823L177.021 158.019V158.79H178.021ZM178.021 171.956H177.021V172.956H178.021V171.956ZM180.689 171.956H181.689V170.956H180.689V171.956ZM180.689 173V174H181.689V173H180.689ZM164.043 173H163.043V174H164.043V173ZM164.043 171.956V170.956H163.043V171.956H164.043ZM167.233 171.956V172.956H168.233V171.956H167.233ZM167.233 130.544H168.233V129.544H167.233V130.544ZM163.811 130.544H162.811V131.544H163.811V130.544ZM163.811 129.5V128.5H162.811V129.5H163.811ZM178.021 129.5H179.021V128.5H178.021V129.5ZM178.021 157.63H177.021V159.073L178.372 158.566L178.021 157.63ZM178.949 157.282L179.3 158.218L179.458 158.159L179.588 158.051L178.949 157.282ZM191.999 146.436L192.638 147.205L194.767 145.436H191.999V146.436ZM186.547 146.436H185.547V147.436H186.547V146.436ZM186.547 145.392V144.392H185.547V145.392H186.547ZM197.973 145.392H198.973V144.392H197.973V145.392ZM197.973 146.436V147.436H198.973V146.436H197.973ZM193.913 146.436V145.436H193.546L193.266 145.674L193.913 146.436ZM187.011 152.294L186.364 151.532L185.76 152.044L186.12 152.749L187.011 152.294ZM197.045 171.956L196.154 172.411L196.433 172.956H197.045V171.956ZM199.133 171.956H200.133V170.956H199.133V171.956ZM199.133 173V174H200.133V173H199.133ZM184.009 173V171.956H182.009V173H184.009ZM183.009 172.956H185.677V170.956H183.009V172.956ZM186.576 171.518L180.022 158.062L178.224 158.938L184.778 172.394L186.576 171.518ZM178.868 157.533L177.766 157.823L178.275 159.757L179.377 159.467L178.868 157.533ZM177.021 158.79V171.956H179.021V158.79H177.021ZM178.021 172.956H180.689V170.956H178.021V172.956ZM179.689 171.956V173H181.689V171.956H179.689ZM180.689 172H164.043V174H180.689V172ZM165.043 173V171.956H163.043V173H165.043ZM164.043 172.956H167.233V170.956H164.043V172.956ZM168.233 171.956V130.544H166.233V171.956H168.233ZM167.233 129.544H163.811V131.544H167.233V129.544ZM164.811 130.544V129.5H162.811V130.544H164.811ZM163.811 130.5H178.021V128.5H163.811V130.5ZM177.021 129.5V157.63H179.021V129.5H177.021ZM178.372 158.566L179.3 158.218L178.598 156.346L177.67 156.694L178.372 158.566ZM179.588 158.051L192.638 147.205L191.36 145.667L178.31 156.513L179.588 158.051ZM191.999 145.436H186.547V147.436H191.999V145.436ZM187.547 146.436V145.392H185.547V146.436H187.547ZM186.547 146.392H197.973V144.392H186.547V146.392ZM196.973 145.392V146.436H198.973V145.392H196.973ZM197.973 145.436H193.913V147.436H197.973V145.436ZM193.266 145.674L186.364 151.532L187.658 153.056L194.56 147.198L193.266 145.674ZM186.12 152.749L196.154 172.411L197.936 171.501L187.902 151.839L186.12 152.749ZM197.045 172.956H199.133V170.956H197.045V172.956ZM198.133 171.956V173H200.133V171.956H198.133ZM199.133 172H183.009V174H199.133V172ZM204.128 139.824L203.352 140.456L203.359 140.464L203.366 140.472L204.128 139.824ZM204.244 132.11L203.523 131.417L203.516 131.424L203.509 131.432L204.244 132.11ZM213.002 131.994L212.323 132.729L212.331 132.736L212.339 132.743L213.002 131.994ZM213.06 139.882L212.339 139.189L212.339 139.189L213.06 139.882ZM199.778 145.392V144.392H198.778V145.392H199.778ZM213.988 145.392H214.988V144.392H213.988V145.392ZM213.988 171.956H212.988V172.956H213.988V171.956ZM217.236 171.956H218.236V170.956H217.236V171.956ZM217.236 173V174H218.236V173H217.236ZM200.01 173H199.01V174H200.01V173ZM200.01 171.956V170.956H199.01V171.956H200.01ZM203.2 171.956V172.956H204.2V171.956H203.2ZM203.2 146.436H204.2V145.436H203.2V146.436ZM199.778 146.436H198.778V147.436H199.778V146.436ZM208.536 140.39C206.632 140.39 205.51 139.905 204.889 139.176L203.366 140.472C204.524 141.831 206.34 142.39 208.536 142.39V140.39ZM204.903 139.192C204.219 138.353 203.852 137.291 203.852 135.938H201.852C201.852 137.679 202.335 139.207 203.352 140.456L204.903 139.192ZM203.852 135.938C203.852 134.607 204.244 133.584 204.978 132.788L203.509 131.432C202.388 132.646 201.852 134.175 201.852 135.938H203.852ZM204.965 132.803C205.679 132.06 206.825 131.602 208.594 131.602V129.602C206.496 129.602 204.742 130.149 203.523 131.417L204.965 132.803ZM208.594 131.602C210.379 131.602 211.567 132.031 212.323 132.729L213.68 131.259C212.426 130.101 210.675 129.602 208.594 129.602V131.602ZM212.339 132.743C213.075 133.394 213.51 134.383 213.51 135.88H215.51C215.51 133.974 214.939 132.373 213.664 131.245L212.339 132.743ZM213.51 135.88C213.51 137.337 213.093 138.405 212.339 139.189L213.781 140.575C214.96 139.349 215.51 137.748 215.51 135.88H213.51ZM212.339 139.189C211.634 139.922 210.441 140.39 208.536 140.39V142.39C210.729 142.39 212.552 141.853 213.781 140.575L212.339 139.189ZM199.778 146.392H213.988V144.392H199.778V146.392ZM212.988 145.392V171.956H214.988V145.392H212.988ZM213.988 172.956H217.236V170.956H213.988V172.956ZM216.236 171.956V173H218.236V171.956H216.236ZM217.236 172H200.01V174H217.236V172ZM201.01 173V171.956H199.01V173H201.01ZM200.01 172.956H203.2V170.956H200.01V172.956ZM204.2 171.956V146.436H202.2V171.956H204.2ZM203.2 145.436H199.778V147.436H203.2V145.436ZM200.778 146.436V145.392H198.778V146.436H200.778ZM218.534 145.392V144.392H217.534V145.392H218.534ZM232.512 145.392H233.512V144.392H232.512V145.392ZM232.512 150.728H231.512L233.456 151.057L232.512 150.728ZM235.354 146.436L234.707 145.673L234.707 145.673L235.354 146.436ZM250.144 171.956H249.144V172.956H250.144V171.956ZM253.392 171.956H254.392V170.956H253.392V171.956ZM253.392 173V174H254.392V173H253.392ZM236.978 173H235.978V174H236.978V173ZM236.978 171.956V170.956H235.978V171.956H236.978ZM239.356 171.956V172.956H240.356V171.956H239.356ZM238.892 148.64L237.978 149.046L237.982 149.056L237.987 149.066L238.892 148.64ZM233.904 150.032L233.045 149.521L233.04 149.528L233.036 149.536L233.904 150.032ZM232.512 171.956H231.512V172.956H232.512V171.956ZM235.006 171.956H236.006V170.956H235.006V171.956ZM235.006 173V174H236.006V173H235.006ZM218.534 173H217.534V174H218.534V173ZM218.534 171.956V170.956H217.534V171.956H218.534ZM221.724 171.956V172.956H222.724V171.956H221.724ZM221.724 146.436H222.724V145.436H221.724V146.436ZM218.534 146.436H217.534V147.436H218.534V146.436ZM218.534 146.392H232.512V144.392H218.534V146.392ZM231.512 145.392V150.728H233.512V145.392H231.512ZM233.456 151.057C234.024 149.425 234.877 148.152 236.001 147.199L234.707 145.673C233.278 146.886 232.237 148.474 231.567 150.399L233.456 151.057ZM236.001 147.199C237.02 146.334 238.676 145.812 241.154 145.812V143.812C238.45 143.812 236.24 144.373 234.707 145.673L236.001 147.199ZM241.154 145.812C243.976 145.812 245.915 146.569 247.163 147.914C248.425 149.273 249.144 151.406 249.144 154.498H251.144C251.144 151.133 250.365 148.423 248.629 146.553C246.881 144.67 244.325 143.812 241.154 143.812V145.812ZM249.144 154.498V171.956H251.144V154.498H249.144ZM250.144 172.956H253.392V170.956H250.144V172.956ZM252.392 171.956V173H254.392V171.956H252.392ZM253.392 172H236.978V174H253.392V172ZM237.978 173V171.956H235.978V173H237.978ZM236.978 172.956H239.356V170.956H236.978V172.956ZM240.356 171.956V153.106H238.356V171.956H240.356ZM240.356 153.106C240.356 151.928 240.317 150.938 240.235 150.146C240.155 149.383 240.027 148.704 239.797 148.214L237.987 149.066C238.066 149.233 238.17 149.628 238.245 150.353C238.318 151.05 238.356 151.964 238.356 153.106H240.356ZM239.806 148.234C239.583 147.732 239.243 147.303 238.767 147.007C238.295 146.715 237.759 146.596 237.21 146.596V148.596C237.472 148.596 237.623 148.651 237.712 148.707C237.797 148.759 237.892 148.852 237.978 149.046L239.806 148.234ZM237.21 146.596C235.458 146.596 234.09 147.765 233.045 149.521L234.763 150.543C235.652 149.051 236.487 148.596 237.21 148.596V146.596ZM233.036 149.536C232.003 151.343 231.512 153.495 231.512 155.948H233.512C233.512 153.761 233.949 151.969 234.772 150.528L233.036 149.536ZM231.512 155.948V171.956H233.512V155.948H231.512ZM232.512 172.956H235.006V170.956H232.512V172.956ZM234.006 171.956V173H236.006V171.956H234.006ZM235.006 172H218.534V174H235.006V172ZM219.534 173V171.956H217.534V173H219.534ZM218.534 172.956H221.724V170.956H218.534V172.956ZM222.724 171.956V146.436H220.724V171.956H222.724ZM221.724 145.436H218.534V147.436H221.724V145.436ZM219.534 146.436V145.392H217.534V146.436H219.534ZM277.416 142.376L276.897 141.521L276.393 141.827L276.417 142.416L277.416 142.376ZM279.04 141.39L279.559 142.245L279.938 142.015L280.022 141.58L279.04 141.39ZM275.56 146.9L274.581 147.102L274.663 147.502L275.003 147.73L275.56 146.9ZM276.778 161.632L276.153 160.851L276.153 160.851L276.778 161.632ZM263.438 163.72L263.625 162.738L263.236 162.663L262.901 162.876L263.438 163.72ZM279.678 184.484L279.084 183.68L279.077 183.685L279.071 183.69L279.678 184.484ZM257.464 176.654L257.874 175.742L257.541 175.592L257.189 175.692L257.464 176.654ZM260.944 178.22L261.908 178.486L262.136 177.66L261.354 177.308L260.944 178.22ZM275.792 177.176L276.292 176.31L276.281 176.303L275.792 177.176ZM257.58 174.798L258.191 174.006L258.191 174.006L257.58 174.798ZM257 167.142L257.721 167.835L257.727 167.828L257.734 167.821L257 167.142ZM262.162 163.314L262.682 164.168L264.635 162.978L262.436 162.352L262.162 163.314ZM258.566 147.48L259.215 148.241L259.215 148.241L258.566 147.48ZM274.4 146.262L273.923 147.141L275.853 148.19L275.376 146.045L274.4 146.262ZM275.792 138.722L276.432 139.49L276.432 139.49L275.792 138.722ZM283.1 138.432L282.427 139.172L282.445 139.188L282.463 139.203L283.1 138.432ZM283.39 144.464L284.054 145.211L284.066 145.201L284.077 145.191L283.39 144.464ZM278.402 144.638L277.744 145.391L277.768 145.412L277.795 145.432L278.402 144.638ZM265.758 161.632L264.849 162.049L264.856 162.064L264.864 162.079L265.758 161.632ZM269.76 161.69L268.851 161.273L268.847 161.282L268.843 161.291L269.76 161.69ZM269.818 147.306L268.89 147.677L268.892 147.684L268.895 147.691L269.818 147.306ZM265.816 147.364L266.718 147.797L266.721 147.79L266.724 147.783L265.816 147.364ZM277.935 143.231L279.559 142.245L278.521 140.535L276.897 141.521L277.935 143.231ZM280.022 141.58C280.16 140.867 280.148 140.064 279.657 139.429C279.152 138.777 278.37 138.592 277.648 138.592V140.592C278.087 140.592 278.116 140.706 278.075 140.654C278.048 140.618 278.152 140.714 278.058 141.2L280.022 141.58ZM277.648 138.592C276.516 138.592 275.559 139.052 274.94 140.003C274.369 140.88 274.154 142.067 274.154 143.42H276.154C276.154 142.221 276.355 141.494 276.615 141.095C276.827 140.77 277.118 140.592 277.648 140.592V138.592ZM274.154 143.42C274.154 144.511 274.301 145.741 274.581 147.102L276.54 146.698C276.278 145.429 276.154 144.339 276.154 143.42H274.154ZM275.003 147.73C277.711 149.548 278.968 151.79 278.968 154.498H280.968C280.968 151.019 279.286 148.196 276.117 146.07L275.003 147.73ZM278.968 154.498C278.968 157.291 278.012 159.364 276.153 160.851L277.403 162.413C279.798 160.497 280.968 157.815 280.968 154.498H278.968ZM276.153 160.851C274.256 162.369 271.62 163.184 268.136 163.184V165.184C271.922 165.184 275.047 164.297 277.403 162.413L276.153 160.851ZM268.136 163.184C266.697 163.184 265.193 163.036 263.625 162.738L263.251 164.702C264.931 165.022 266.56 165.184 268.136 165.184V163.184ZM262.901 162.876C262.029 163.432 261.328 163.946 260.834 164.418C260.586 164.654 260.365 164.904 260.199 165.167C260.037 165.424 259.886 165.763 259.886 166.156H261.886C261.886 166.278 261.841 166.312 261.892 166.231C261.939 166.157 262.036 166.034 262.215 165.864C262.571 165.524 263.146 165.091 263.975 164.564L262.901 162.876ZM259.886 166.156C259.886 166.745 260.247 167.136 260.569 167.347C260.874 167.547 261.244 167.664 261.6 167.742C262.328 167.901 263.343 167.968 264.598 167.968V165.968C263.378 165.968 262.538 165.9 262.028 165.788C261.905 165.761 261.815 165.735 261.751 165.711C261.685 165.687 261.662 165.672 261.667 165.675C261.68 165.684 261.886 165.838 261.886 166.156H259.886ZM264.598 167.968H270.514V165.968H264.598V167.968ZM270.514 167.968C274.813 167.968 277.858 168.745 279.805 170.144C281.692 171.498 282.68 173.531 282.68 176.422H284.68C284.68 173.01 283.474 170.316 280.972 168.519C278.531 166.767 274.992 165.968 270.514 165.968V167.968ZM282.68 176.422C282.68 179.517 281.489 181.902 279.084 183.68L280.273 185.288C283.203 183.122 284.68 180.132 284.68 176.422H282.68ZM279.071 183.69C276.7 185.502 272.849 186.5 267.324 186.5V188.5C273.012 188.5 277.397 187.487 280.286 185.278L279.071 183.69ZM267.324 186.5C262.59 186.5 259.174 185.983 256.977 185.031C255.89 184.56 255.151 184.004 254.686 183.399C254.232 182.809 253.998 182.121 253.998 181.294H251.998C251.998 182.536 252.362 183.658 253.101 184.619C253.83 185.566 254.882 186.303 256.182 186.866C258.76 187.983 262.507 188.5 267.324 188.5V186.5ZM253.998 181.294C253.998 180.418 254.279 179.723 254.835 179.145C255.415 178.543 256.349 178.013 257.739 177.616L257.189 175.692C255.602 176.146 254.303 176.814 253.394 177.759C252.462 178.727 251.998 179.927 251.998 181.294H253.998ZM257.054 177.566L260.534 179.132L261.354 177.308L257.874 175.742L257.054 177.566ZM259.98 177.954C259.651 179.149 259.48 180.302 259.48 181.41H261.48C261.48 180.507 261.619 179.534 261.908 178.486L259.98 177.954ZM259.48 181.41C259.48 183.361 260.229 184.94 261.778 185.981C263.257 186.975 265.349 187.398 267.904 187.398V185.398C265.51 185.398 263.89 184.99 262.894 184.321C261.968 183.699 261.48 182.785 261.48 181.41H259.48ZM267.904 187.398C271.023 187.398 273.574 186.822 275.432 185.539L274.296 183.893C272.906 184.853 270.817 185.398 267.904 185.398V187.398ZM275.432 185.539C277.269 184.271 278.3 182.596 278.3 180.54H276.3C276.3 181.809 275.707 182.918 274.296 183.893L275.432 185.539ZM278.3 180.54C278.3 178.691 277.731 177.14 276.292 176.31L275.292 178.042C275.864 178.372 276.3 179.063 276.3 180.54H278.3ZM276.281 176.303C275.635 175.942 274.759 175.718 273.74 175.576C272.702 175.433 271.429 175.364 269.934 175.364V177.364C271.377 177.364 272.551 177.431 273.465 177.558C274.399 177.687 274.983 177.869 275.304 178.049L276.281 176.303ZM269.934 175.364H264.308V177.364H269.934V175.364ZM264.308 175.364C261.236 175.364 259.274 174.842 258.191 174.006L256.969 175.59C258.593 176.842 261.116 177.364 264.308 177.364V175.364ZM258.191 174.006C257.046 173.123 256.55 172.124 256.55 170.97H254.55C254.55 172.832 255.408 174.385 256.969 175.59L258.191 174.006ZM256.55 170.97C256.55 169.651 256.954 168.633 257.721 167.835L256.279 166.449C255.113 167.662 254.55 169.196 254.55 170.97H256.55ZM257.734 167.821C258.602 166.884 260.223 165.667 262.682 164.168L261.642 162.46C259.152 163.977 257.332 165.312 256.266 166.463L257.734 167.821ZM262.436 162.352C260.346 161.758 258.871 160.804 257.911 159.546C256.952 158.29 256.434 156.634 256.434 154.498H254.434C254.434 156.963 255.037 159.077 256.321 160.76C257.604 162.441 259.493 163.594 261.888 164.276L262.436 162.352ZM256.434 154.498C256.434 151.872 257.364 149.818 259.215 148.241L257.918 146.719C255.592 148.699 254.434 151.324 254.434 154.498H256.434ZM259.215 148.241C261.048 146.68 263.905 145.812 267.962 145.812V143.812C263.668 143.812 260.26 144.723 257.918 146.719L259.215 148.241ZM267.962 145.812C270.348 145.812 272.322 146.271 273.923 147.141L274.878 145.383C272.921 144.32 270.603 143.812 267.962 143.812V145.812ZM275.376 146.045C275.156 145.055 275.052 144.182 275.052 143.42H273.052C273.052 144.359 273.18 145.381 273.424 146.479L275.376 146.045ZM275.052 143.42C275.052 141.418 275.586 140.195 276.432 139.49L275.152 137.954C273.678 139.182 273.052 141.091 273.052 143.42H275.052ZM276.432 139.49C277.423 138.664 278.495 138.272 279.678 138.272V136.272C278 136.272 276.481 136.846 275.152 137.954L276.432 139.49ZM279.678 138.272C280.923 138.272 281.803 138.604 282.427 139.172L283.773 137.692C282.696 136.713 281.294 136.272 279.678 136.272V138.272ZM282.463 139.203C283.089 139.72 283.434 140.443 283.434 141.506H285.434C285.434 139.94 284.89 138.614 283.737 137.661L282.463 139.203ZM283.434 141.506C283.434 142.651 283.134 143.331 282.704 143.737L284.077 145.191C285.039 144.283 285.434 142.99 285.434 141.506H283.434ZM282.726 143.717C282.228 144.159 281.62 144.392 280.838 144.392V146.392C282.067 146.392 283.16 146.006 284.054 145.211L282.726 143.717ZM280.838 144.392C280.053 144.392 279.464 144.191 279.01 143.844L277.795 145.432C278.655 146.09 279.69 146.392 280.838 146.392V144.392ZM279.061 143.885C278.685 143.557 278.445 143.081 278.415 142.336L276.417 142.416C276.464 143.604 276.882 144.637 277.744 145.391L279.061 143.885ZM264.12 153.222V156.354H266.12V153.222H264.12ZM264.12 156.354C264.12 157.673 264.174 158.803 264.287 159.737C264.398 160.655 264.573 161.446 264.849 162.049L266.667 161.215C266.518 160.89 266.374 160.337 266.272 159.496C266.173 158.67 266.12 157.626 266.12 156.354H264.12ZM264.864 162.079C265.152 162.656 265.538 163.151 266.048 163.501C266.567 163.857 267.159 164.024 267.788 164.024V162.024C267.528 162.024 267.337 161.959 267.179 161.851C267.013 161.737 266.828 161.536 266.653 161.185L264.864 162.079ZM267.788 164.024C268.417 164.024 269.017 163.871 269.537 163.519C270.055 163.169 270.425 162.669 270.677 162.089L268.843 161.291C268.709 161.601 268.556 161.768 268.417 161.862C268.28 161.955 268.087 162.024 267.788 162.024V164.024ZM270.669 162.107C270.949 161.497 271.122 160.67 271.232 159.7C271.344 158.712 271.398 157.497 271.398 156.064H269.398C269.398 157.454 269.346 158.588 269.245 159.475C269.142 160.381 268.997 160.955 268.851 161.273L270.669 162.107ZM271.398 156.064V153.222H269.398V156.064H271.398ZM271.398 153.222C271.398 151.696 271.349 150.414 271.248 149.383C271.149 148.375 270.994 147.528 270.741 146.921L268.895 147.691C269.029 148.012 269.163 148.615 269.258 149.579C269.35 150.52 269.398 151.732 269.398 153.222H271.398ZM270.747 146.935C270.503 146.325 270.143 145.792 269.628 145.413C269.104 145.028 268.493 144.856 267.846 144.856V146.856C268.128 146.856 268.309 146.926 268.443 147.024C268.585 147.129 268.747 147.32 268.89 147.677L270.747 146.935ZM267.846 144.856C267.199 144.856 266.596 145.044 266.075 145.43C265.567 145.808 265.189 146.336 264.908 146.945L266.724 147.783C266.907 147.386 267.1 147.161 267.268 147.036C267.424 146.92 267.604 146.856 267.846 146.856V144.856ZM264.915 146.931C264.611 147.565 264.421 148.425 264.301 149.436C264.179 150.465 264.12 151.73 264.12 153.222H266.12C266.12 151.775 266.177 150.595 266.287 149.671C266.399 148.729 266.558 148.13 266.718 147.797L264.915 146.931ZM287.709 172.13L286.931 172.758L286.944 172.775L286.958 172.791L287.709 172.13ZM287.767 164.938L287.031 164.261L287.023 164.269L287.016 164.277L287.767 164.938ZM295.307 172.188L294.585 171.496L294.577 171.504L294.57 171.512L295.307 172.188ZM291.479 172.58C290.014 172.58 289.068 172.161 288.46 171.469L286.958 172.791C288.051 174.032 289.618 174.58 291.479 174.58V172.58ZM288.487 171.502C287.83 170.688 287.491 169.716 287.491 168.534H285.491C285.491 170.136 285.964 171.561 286.931 172.758L288.487 171.502ZM287.491 168.534C287.491 167.318 287.846 166.362 288.518 165.599L287.016 164.277C285.987 165.447 285.491 166.889 285.491 168.534H287.491ZM288.503 165.615C289.164 164.896 290.111 164.488 291.479 164.488V162.488C289.677 162.488 288.148 163.046 287.031 164.261L288.503 165.615ZM291.479 164.488C292.893 164.488 293.892 164.847 294.59 165.459L295.907 163.953C294.75 162.941 293.235 162.488 291.479 162.488V164.488ZM294.59 165.459C295.238 166.025 295.641 166.927 295.641 168.36H297.641C297.641 166.545 297.116 165.011 295.907 163.953L294.59 165.459ZM295.641 168.36C295.641 169.797 295.252 170.8 294.585 171.496L296.029 172.88C297.14 171.72 297.641 170.171 297.641 168.36H295.641ZM294.57 171.512C293.968 172.168 293.003 172.58 291.479 172.58V174.58C293.358 174.58 294.944 174.064 296.044 172.864L294.57 171.512Z" fill="#FFA9A3" mask="url(#path-22-outside-1_153_721)"/>
</g>
<defs>
<filter id="filter0_f_153_721" x="-234.88" y="-223.722" width="758.13" height="800.694" filterUnits="userSpaceOnUse" color-interpolation-filters="sRGB">
<feFlood flood-opacity="0" result="BackgroundImageFix"/>
<feBlend mode="normal" in="SourceGraphic" in2="BackgroundImageFix" result="shape"/>
<feGaussianBlur stdDeviation="100" result="effect1_foregroundBlur_153_721"/>
</filter>
<clipPath id="clip0_153_721">
<rect width="608" height="243" fill="white" transform="translate(-84)"/>
</clipPath>
</defs>
</svg>
