<svg width="375" height="302" viewBox="0 0 375 302" fill="none" xmlns="http://www.w3.org/2000/svg">
<path d="M-0.571442 75.5V7.22902e-05H-76V75.5H-0.571442Z" fill="#FFDDD1"/>
<path d="M-76 75.5V7.22902e-05L-0.571442 75.5H-76Z" fill="#FFA9A3"/>
<path d="M-0.571442 7.22902e-05V75.5L74.8571 75.5001V0.000252008L-0.571442 7.22902e-05Z" fill="#FFDDD1"/>
<path d="M-0.571442 7.22902e-05C-0.571442 9.91486 1.3796 19.7326 5.17023 28.8927C8.96088 38.0528 14.5169 46.3758 21.5211 53.3866C28.5253 60.3974 36.8405 65.9587 45.9919 69.7529C55.1433 73.5472 64.9517 75.5001 74.8571 75.5001V0.000252008L-0.571442 7.22902e-05Z" fill="#FFDDD1"/>
<path d="M150.286 0.000252008V75.5001H74.8571V0.000252008H150.286Z" fill="#FFDDD1"/>
<path d="M150.286 0.000252008C150.286 9.91504 148.335 19.7326 144.544 28.8927C140.753 38.0528 135.197 46.3758 128.193 53.3866C121.189 60.3974 112.874 65.9587 103.722 69.7529C94.571 73.5472 84.7625 75.5001 74.8571 75.5001V0.000252008H150.286Z" fill="#FFFFF0"/>
<path d="M150.286 0.000252008L225.714 0.000187206V75.5001L150.286 75.5001V0.000252008Z" fill="#FFDDD1"/>
<path d="M188 0C188 20.8487 204.885 37.7499 225.714 37.7499L225.714 0.000187206L188 0Z" fill="#FFDDD1"/>
<path d="M188 75.4999C188 54.6512 204.885 37.7499 225.714 37.7499L225.714 75.5001L188 75.4999Z" fill="#FFA9A3"/>
<path d="M188 0C188 20.8487 171.115 37.7499 150.286 37.7499L150.286 0.000252008L188 0Z" fill="#FFDDD1"/>
<path d="M188 75.4999C188 54.6512 171.115 37.7499 150.286 37.7499L150.286 75.5001L188 75.4999Z" fill="#FFFFF0"/>
<path d="M225.714 75.5001L301.143 75.5V0.000136804L225.714 0.000187206V75.5001Z" fill="#FFDDD1"/>
<path d="M225.714 37.7499C225.714 16.9012 242.6 0.000252008 263.429 0.000252008V75.5001C242.6 75.5001 225.714 58.5987 225.714 37.7499Z" fill="#FFFFF0"/>
<path d="M301.143 37.7502C301.143 16.9015 284.258 0.000252008 263.429 0.000252008V75.5001C284.258 75.5001 301.143 58.5989 301.143 37.7502Z" fill="#FFFFF0"/>
<path d="M301.143 0.000136804L376.571 0.000187206V75.5001L301.143 75.5V0.000136804Z" fill="#FFDDD1"/>
<path d="M301.143 0.000136804L338.857 0.000187206V75.5001L301.143 75.5V0.000136804Z" fill="#FFDDD1"/>
<path d="M338.857 0.000187206C338.857 20.8489 355.742 37.7499 376.571 37.7499L376.571 0.000187206H338.857Z" fill="#FFFFF0"/>
<path d="M338.857 75.5001C338.857 54.6514 355.742 37.7499 376.571 37.7499L376.571 75.5001H338.857Z" fill="#FFDDD1"/>
<path d="M452 0.000187206H376.571V75.5001H452V0.000187206Z" fill="#FFDDD1"/>
<path d="M452 75.5001H376.571L452 0.000187206V75.5001Z" fill="#FFA9A3"/>
<path d="M-0.571442 75.5H-76L-75.9999 151H-0.571381L-0.571442 75.5Z" fill="#FFDDD1"/>
<path d="M-0.571404 113.25C-0.571404 134.099 -17.4567 151 -38.2857 151V75.5C-17.4567 75.5 -0.571404 92.4012 -0.571404 113.25Z" fill="#FFFFF0"/>
<path d="M-75.9999 113.25C-75.9999 134.098 -59.1147 151 -38.2857 151V75.5C-59.1147 75.5 -75.9999 92.401 -75.9999 113.25Z" fill="#FFDDD1"/>
<path d="M74.8572 151L74.8571 75.5001L-0.571442 75.5L-0.571381 151L74.8572 151Z" fill="#FFDDD1"/>
<path d="M-0.571381 151L-0.571365 141.562L8.85721 151L-0.571381 151Z" fill="#FFA9A3"/>
<path d="M8.85721 151L8.85722 141.562L18.2858 151H8.85721Z" fill="#FFA9A3"/>
<path d="M18.2858 151L18.2858 141.562L27.7144 151H18.2858Z" fill="#FFA9A3"/>
<path d="M27.7144 151L27.7144 141.562L37.143 151H27.7144Z" fill="#FFA9A3"/>
<path d="M37.143 151L37.1429 141.562L46.5714 151H37.143Z" fill="#FFA9A3"/>
<path d="M46.5714 151L46.5714 141.562L56 151H46.5714Z" fill="#FFA9A3"/>
<path d="M56 151L56 141.562L65.4286 151H56Z" fill="#FFA9A3"/>
<path d="M65.4286 151L65.4286 141.562L74.8572 151H65.4286Z" fill="#FFA9A3"/>
<path d="M-0.571365 141.562V132.125L8.85722 141.562H-0.571365Z" fill="#FFA9A3"/>
<path d="M8.85722 141.562V132.125L18.2858 141.562H8.85722Z" fill="#FFA9A3"/>
<path d="M18.2858 141.562V132.125L27.7144 141.562H18.2858Z" fill="#FFA9A3"/>
<path d="M27.7144 141.562V132.125L37.1429 141.562H27.7144Z" fill="#FFA9A3"/>
<path d="M37.1429 141.562V132.125L46.5714 141.562H37.1429Z" fill="#FFA9A3"/>
<path d="M46.5714 141.562V132.125L56 141.562H46.5714Z" fill="#FFA9A3"/>
<path d="M56 141.562V132.125L65.4286 141.562H56Z" fill="#FFA9A3"/>
<path d="M-0.571365 132.125V122.687L8.85722 132.125H-0.571365Z" fill="#FFA9A3"/>
<path d="M8.85722 132.125V122.687L18.2858 132.125H8.85722Z" fill="#FFA9A3"/>
<path d="M18.2858 132.125V122.687L27.7144 132.125H18.2858Z" fill="#FFA9A3"/>
<path d="M27.7144 132.125V122.687L37.1429 132.125H27.7144Z" fill="#FFA9A3"/>
<path d="M37.1429 132.125V122.687L46.5714 132.125H37.1429Z" fill="#FFA9A3"/>
<path d="M46.5714 132.125V122.687L56 132.125H46.5714Z" fill="#FFA9A3"/>
<path d="M-0.571365 122.687L-0.571404 113.25L8.85722 122.687H-0.571365Z" fill="#FFA9A3"/>
<path d="M8.85722 122.687V113.25L18.2858 122.687H8.85722Z" fill="#FFA9A3"/>
<path d="M18.2858 122.687V113.25L27.7144 122.687H18.2858Z" fill="#FFA9A3"/>
<path d="M27.7144 122.687V113.25L37.1429 122.687H27.7144Z" fill="#FFA9A3"/>
<path d="M37.1429 122.687V113.25L46.5714 122.687H37.1429Z" fill="#FFA9A3"/>
<path d="M-0.571404 113.25L-0.571365 103.812L8.85722 113.25L-0.571404 113.25Z" fill="#FFA9A3"/>
<path d="M8.85722 113.25V103.812L18.2858 113.25H8.85722Z" fill="#FFA9A3"/>
<path d="M18.2858 113.25V103.812L27.7144 113.25H18.2858Z" fill="#FFA9A3"/>
<path d="M27.7144 113.25V103.812L37.1429 113.25H27.7144Z" fill="#FFA9A3"/>
<path d="M-0.571365 103.812V94.3748L8.85722 103.812H-0.571365Z" fill="#FFA9A3"/>
<path d="M8.85722 103.812V94.3748L18.2858 103.812H8.85722Z" fill="#FFA9A3"/>
<path d="M18.2858 103.812V94.3748L27.7144 103.812H18.2858Z" fill="#FFA9A3"/>
<path d="M-0.571365 94.3748V84.9374L8.85722 94.3748H-0.571365Z" fill="#FFA9A3"/>
<path d="M8.85722 94.3748V84.9374L18.2858 94.3748H8.85722Z" fill="#FFA9A3"/>
<path d="M-0.571365 84.9374L-0.571442 75.5L8.85722 84.9374H-0.571365Z" fill="#FFA9A3"/>
<path d="M74.8572 151L74.8571 75.5001H150.286L150.286 151H74.8572Z" fill="#FFDDD1"/>
<path d="M150.286 151L150.286 75.5001L225.714 75.5001L225.714 151H150.286Z" fill="#FFDDD1"/>
<path d="M225.714 151V141.562L216.286 151H225.714Z" fill="#FFA9A3"/>
<path d="M216.286 151L216.286 141.562L206.857 151H216.286Z" fill="#FFA9A3"/>
<path d="M206.857 151L206.857 141.562L197.429 151H206.857Z" fill="#FFA9A3"/>
<path d="M197.429 151L197.429 141.562L188 151H197.429Z" fill="#FFA9A3"/>
<path d="M188 151L188 141.562L178.572 151H188Z" fill="#FFA9A3"/>
<path d="M178.572 151L178.571 141.562L169.143 151H178.572Z" fill="#FFA9A3"/>
<path d="M169.143 151L169.143 141.562L159.714 151H169.143Z" fill="#FFA9A3"/>
<path d="M159.714 151L159.714 141.562L150.286 151H159.714Z" fill="#FFA9A3"/>
<path d="M225.714 141.562V132.125L216.286 141.562H225.714Z" fill="#FFA9A3"/>
<path d="M216.286 141.562V132.125L206.857 141.562H216.286Z" fill="#FFA9A3"/>
<path d="M206.857 141.562V132.125L197.429 141.562H206.857Z" fill="#FFA9A3"/>
<path d="M197.429 141.562V132.125L188 141.562H197.429Z" fill="#FFA9A3"/>
<path d="M188 141.562V132.125L178.571 141.562H188Z" fill="#FFA9A3"/>
<path d="M178.571 141.562V132.125L169.143 141.562H178.571Z" fill="#FFA9A3"/>
<path d="M169.143 141.562V132.125L159.714 141.562H169.143Z" fill="#FFA9A3"/>
<path d="M225.714 132.125V122.687L216.286 132.125H225.714Z" fill="#FFA9A3"/>
<path d="M216.286 132.125V122.687L206.857 132.125H216.286Z" fill="#FFA9A3"/>
<path d="M206.857 132.125V122.687L197.429 132.125H206.857Z" fill="#FFA9A3"/>
<path d="M197.429 132.125V122.687L188 132.125H197.429Z" fill="#FFA9A3"/>
<path d="M188 132.125V122.687L178.571 132.125H188Z" fill="#FFA9A3"/>
<path d="M178.571 132.125V122.687L169.143 132.125H178.571Z" fill="#FFA9A3"/>
<path d="M225.714 122.687V113.25L216.286 122.687H225.714Z" fill="#FFA9A3"/>
<path d="M216.286 122.687V113.25L206.857 122.687H216.286Z" fill="#FFA9A3"/>
<path d="M206.857 122.687V113.25L197.429 122.687H206.857Z" fill="#FFA9A3"/>
<path d="M197.429 122.687V113.25L188 122.687H197.429Z" fill="#FFA9A3"/>
<path d="M188 122.687V113.25L178.571 122.687H188Z" fill="#FFA9A3"/>
<path d="M225.714 113.25V103.812L216.286 113.25H225.714Z" fill="#FFA9A3"/>
<path d="M216.286 113.25V103.812L206.857 113.25H216.286Z" fill="#FFA9A3"/>
<path d="M206.857 113.25V103.812L197.429 113.25H206.857Z" fill="#FFA9A3"/>
<path d="M197.429 113.25V103.812L188 113.25H197.429Z" fill="#FFA9A3"/>
<path d="M225.714 103.812V94.3748L216.286 103.812H225.714Z" fill="#FFA9A3"/>
<path d="M216.286 103.812V94.3748L206.857 103.812H216.286Z" fill="#FFA9A3"/>
<path d="M206.857 103.812V94.3748L197.429 103.812H206.857Z" fill="#FFA9A3"/>
<path d="M225.714 94.3748V84.9374L216.286 94.3748H225.714Z" fill="#FFA9A3"/>
<path d="M216.286 94.3748V84.9374L206.857 94.3748H216.286Z" fill="#FFA9A3"/>
<path d="M225.714 84.9374L225.714 75.5001L216.286 84.9374H225.714Z" fill="#FFA9A3"/>
<path d="M225.714 151L225.714 75.5001L301.143 75.5L301.143 151H225.714Z" fill="#FFDDD1"/>
<path d="M301.143 151L301.143 75.5L376.571 75.5001L376.571 151H301.143Z" fill="#FFDDD1"/>
<path d="M301.143 151L301.143 113.25H376.571V151H301.143Z" fill="#FFA9A3"/>
<path d="M376.571 113.25C355.742 113.25 338.857 96.3488 338.857 75.5001H376.571L376.571 113.25Z" fill="#FFFFF0"/>
<path d="M452 75.5001L452 151L376.571 151L376.571 75.5001H452Z" fill="#FFDDD1"/>
<path d="M452 151C452 141.085 450.049 131.267 446.258 122.107C442.468 112.947 436.912 104.624 429.908 97.6135C422.903 90.6027 414.588 85.0414 405.437 81.2472C396.285 77.4529 386.477 75.5001 376.571 75.5001L376.571 151L452 151Z" fill="#FFDDD1"/>
<path d="M414.286 151C414.286 146.043 413.31 141.134 411.415 136.554C409.52 131.974 406.742 127.812 403.239 124.307C399.737 120.801 395.58 118.021 391.004 116.124C386.428 114.226 381.524 113.25 376.571 113.25V151L414.286 151Z" fill="#FFFFF0"/>
<path d="M-75.9999 226.5L-75.9999 151H-0.571381L-0.571396 226.5H-75.9999Z" fill="#FFDDD1"/>
<path d="M-75.9999 188.75C-55.1709 188.75 -38.2857 171.849 -38.2857 151L-75.9999 151L-75.9999 188.75Z" fill="#FFDDD1"/>
<path d="M-0.57132 188.75C-21.4003 188.75 -38.2857 171.849 -38.2857 151L-0.571381 151L-0.57132 188.75Z" fill="#FFFFF0"/>
<path d="M-75.9999 188.75C-55.1709 188.75 -38.2856 205.651 -38.2856 226.5L-75.9999 226.5L-75.9999 188.75Z" fill="#FFDDD1"/>
<path d="M-0.57132 188.75C-21.4003 188.75 -38.2856 205.651 -38.2856 226.5L-0.571396 226.5L-0.57132 188.75Z" fill="#FFFFF0"/>
<path d="M74.8572 226.5V151L-0.571381 151L-0.571396 226.5H74.8572Z" fill="#FFDDD1"/>
<path d="M74.8572 151C74.8572 160.914 72.9061 170.732 69.1155 179.893C65.3249 189.053 59.7688 197.376 52.7646 204.387C45.7605 211.397 37.4453 216.959 28.2939 220.753C19.1424 224.547 9.33402 226.5 -0.571396 226.5L-0.571381 151L74.8572 151Z" fill="#FFA9A3"/>
<path d="M37.143 151C37.143 155.957 36.1674 160.866 34.2721 165.446C32.3768 170.026 29.5987 174.188 26.0966 177.693C22.5946 181.199 18.437 183.979 13.8613 185.876C9.28555 187.773 4.38139 188.75 -0.57132 188.75L-0.571381 151L37.143 151Z" fill="#FFFFF0"/>
<path d="M74.8572 226.5V151H150.286V226.5H74.8572Z" fill="#FFDDD1"/>
<path d="M74.8572 151C74.8572 160.914 76.8081 170.732 80.5987 179.893C84.3893 189.053 89.9454 197.376 96.9496 204.387C103.954 211.397 112.269 216.959 121.42 220.753C130.572 224.547 140.38 226.5 150.286 226.5V151H74.8572Z" fill="#FFDDD1"/>
<path d="M225.714 226.5L225.714 151H150.286V226.5H225.714Z" fill="#FFA9A3"/>
<path d="M150.286 226.5V151L225.714 226.5H150.286Z" fill="#FFA9A3"/>
<path d="M225.714 151L225.714 226.5L301.143 226.5V151H225.714Z" fill="#FFDDD1"/>
<path d="M263.428 188.75C284.258 188.75 301.143 205.651 301.143 226.5L225.714 226.5C225.714 205.651 242.599 188.75 263.428 188.75Z" fill="#FFFFF0"/>
<path d="M263.428 188.75C284.258 188.75 301.143 171.848 301.143 151H225.714C225.714 171.848 242.599 188.75 263.428 188.75Z" fill="#FFDDD1"/>
<path d="M301.143 226.5V151H376.571V226.5L301.143 226.5Z" fill="#FFDDD1"/>
<path d="M338.857 188.75C359.686 188.75 376.571 171.848 376.571 151H301.143C301.143 171.848 318.028 188.75 338.857 188.75Z" fill="#FFFFF0"/>
<path d="M452 226.5V151L376.571 151V226.5H452Z" fill="#FFDDD1"/>
<path d="M376.571 226.5L376.571 217.062L386 226.5H376.571Z" fill="#FFA9A3"/>
<path d="M386 226.5L386 217.062L395.429 226.5H386Z" fill="#FFA9A3"/>
<path d="M395.429 226.5L395.428 217.062L404.857 226.5H395.429Z" fill="#FFA9A3"/>
<path d="M404.857 226.5L404.857 217.062L414.286 226.5H404.857Z" fill="#FFA9A3"/>
<path d="M414.286 226.5L414.286 217.062L423.714 226.5H414.286Z" fill="#FFA9A3"/>
<path d="M423.714 226.5L423.714 217.062L433.143 226.5H423.714Z" fill="#FFA9A3"/>
<path d="M433.143 226.5L433.143 217.062L442.571 226.5H433.143Z" fill="#FFA9A3"/>
<path d="M442.571 226.5L442.571 217.062L452 226.5H442.571Z" fill="#FFA9A3"/>
<path d="M376.571 217.062V207.625L386 217.062H376.571Z" fill="#FFA9A3"/>
<path d="M386 217.062V207.625L395.428 217.062H386Z" fill="#FFA9A3"/>
<path d="M395.428 217.062V207.625L404.857 217.062H395.428Z" fill="#FFA9A3"/>
<path d="M404.857 217.062V207.625L414.286 217.062H404.857Z" fill="#FFA9A3"/>
<path d="M414.286 217.062V207.625L423.714 217.062H414.286Z" fill="#FFA9A3"/>
<path d="M423.714 217.062V207.625L433.143 217.062H423.714Z" fill="#FFA9A3"/>
<path d="M433.143 217.062V207.625L442.571 217.062H433.143Z" fill="#FFA9A3"/>
<path d="M442.571 217.062V207.625L452 217.062L442.571 217.062Z" fill="#FFA9A3"/>
<path d="M376.571 207.625V198.187L386 207.625H376.571Z" fill="#FFA9A3"/>
<path d="M386 207.625V198.187L395.428 207.625H386Z" fill="#FFA9A3"/>
<path d="M395.428 207.625V198.187L404.857 207.625H395.428Z" fill="#FFA9A3"/>
<path d="M404.857 207.625V198.187L414.286 207.625H404.857Z" fill="#FFA9A3"/>
<path d="M414.286 207.625V198.187L423.714 207.625H414.286Z" fill="#FFA9A3"/>
<path d="M423.714 207.625V198.187L433.143 207.625H423.714Z" fill="#FFA9A3"/>
<path d="M433.143 207.625V198.187L442.571 207.625H433.143Z" fill="#FFA9A3"/>
<path d="M442.571 207.625V198.187L452 207.625L442.571 207.625Z" fill="#FFA9A3"/>
<path d="M376.571 198.187V188.75L386 198.187H376.571Z" fill="#FFA9A3"/>
<path d="M386 198.187V188.75L395.428 198.187H386Z" fill="#FFA9A3"/>
<path d="M395.428 198.187V188.75L404.857 198.187H395.428Z" fill="#FFA9A3"/>
<path d="M404.857 198.187V188.75L414.286 198.187H404.857Z" fill="#FFA9A3"/>
<path d="M414.286 198.187V188.75L423.714 198.187H414.286Z" fill="#FFA9A3"/>
<path d="M423.714 198.187V188.75L433.143 198.187H423.714Z" fill="#FFA9A3"/>
<path d="M433.143 198.187V188.75L442.571 198.187H433.143Z" fill="#FFA9A3"/>
<path d="M442.571 198.187V188.75L452 198.188L442.571 198.187Z" fill="#FFA9A3"/>
<path d="M376.571 188.75V179.312L386 188.75H376.571Z" fill="#FFA9A3"/>
<path d="M386 188.75V179.312L395.428 188.75H386Z" fill="#FFA9A3"/>
<path d="M395.428 188.75V179.312L404.857 188.75H395.428Z" fill="#FFA9A3"/>
<path d="M404.857 188.75V179.312L414.286 188.75H404.857Z" fill="#FFA9A3"/>
<path d="M414.286 188.75V179.312L423.714 188.75H414.286Z" fill="#FFA9A3"/>
<path d="M423.714 188.75V179.312L433.143 188.75H423.714Z" fill="#FFA9A3"/>
<path d="M433.143 188.75V179.312L442.571 188.75H433.143Z" fill="#FFA9A3"/>
<path d="M442.571 188.75V179.312L452 188.75L442.571 188.75Z" fill="#FFA9A3"/>
<path d="M376.571 179.312V169.875L386 179.312H376.571Z" fill="#FFA9A3"/>
<path d="M386 179.312V169.875L395.428 179.312H386Z" fill="#FFA9A3"/>
<path d="M395.428 179.312V169.875L404.857 179.312H395.428Z" fill="#FFA9A3"/>
<path d="M404.857 179.312V169.875L414.286 179.312H404.857Z" fill="#FFA9A3"/>
<path d="M414.286 179.312V169.875L423.714 179.312H414.286Z" fill="#FFA9A3"/>
<path d="M423.714 179.312V169.875L433.143 179.312H423.714Z" fill="#FFA9A3"/>
<path d="M433.143 179.312V169.875L442.571 179.312H433.143Z" fill="#FFA9A3"/>
<path d="M442.571 179.312V169.875L452 179.313L442.571 179.312Z" fill="#FFA9A3"/>
<path d="M376.571 169.875V160.437L386 169.875H376.571Z" fill="#FFA9A3"/>
<path d="M386 169.875V160.437L395.428 169.875H386Z" fill="#FFA9A3"/>
<path d="M395.428 169.875V160.437L404.857 169.875H395.428Z" fill="#FFA9A3"/>
<path d="M404.857 169.875V160.437L414.286 169.875H404.857Z" fill="#FFA9A3"/>
<path d="M414.286 169.875V160.437L423.714 169.875H414.286Z" fill="#FFA9A3"/>
<path d="M423.714 169.875V160.437L433.143 169.875H423.714Z" fill="#FFA9A3"/>
<path d="M433.143 169.875V160.437L442.571 169.875H433.143Z" fill="#FFA9A3"/>
<path d="M442.571 169.875V160.437L452 169.875L442.571 169.875Z" fill="#FFA9A3"/>
<path d="M376.571 160.437L376.571 151L386 160.437H376.571Z" fill="#FFA9A3"/>
<path d="M386 160.437V151L395.428 160.437H386Z" fill="#FFA9A3"/>
<path d="M395.428 160.437V151L404.857 160.437H395.428Z" fill="#FFA9A3"/>
<path d="M404.857 160.437V151L414.286 160.437H404.857Z" fill="#FFA9A3"/>
<path d="M414.286 160.437L414.286 151L423.714 160.437H414.286Z" fill="#FFA9A3"/>
<path d="M423.714 160.437V151L433.143 160.437H423.714Z" fill="#FFA9A3"/>
<path d="M433.143 160.437V151L442.571 160.437H433.143Z" fill="#FFA9A3"/>
<path d="M442.571 160.437V151L452 160.438L442.571 160.437Z" fill="#FFA9A3"/>
<path d="M-0.571396 226.5H-75.9999L-75.9999 302H-0.571381L-0.571396 226.5Z" fill="#FFDDD1"/>
<path d="M-0.571404 264.25C-0.571404 285.099 -17.4567 302 -38.2857 302L-38.2856 226.5C-17.4566 226.5 -0.571404 243.401 -0.571404 264.25Z" fill="#FFFFF0"/>
<path d="M-75.9999 264.25C-75.9999 285.099 -59.1147 302 -38.2857 302L-38.2856 226.5C-59.1146 226.5 -75.9999 243.401 -75.9999 264.25Z" fill="#FFDDD1"/>
<path d="M74.8572 302V226.5H-0.571396L-0.571381 302L74.8572 302Z" fill="#FFDDD1"/>
<path d="M-0.571381 302L-0.571365 292.562L8.85721 302L-0.571381 302Z" fill="#FFA9A3"/>
<path d="M8.85721 302L8.85722 292.562L18.2858 302H8.85721Z" fill="#FFA9A3"/>
<path d="M18.2858 302L18.2858 292.562L27.7144 302H18.2858Z" fill="#FFA9A3"/>
<path d="M27.7144 302L27.7144 292.562L37.143 302H27.7144Z" fill="#FFA9A3"/>
<path d="M37.143 302L37.1429 292.562L46.5714 302H37.143Z" fill="#FFA9A3"/>
<path d="M46.5714 302L46.5714 292.562L56 302H46.5714Z" fill="#FFA9A3"/>
<path d="M56 302L56 292.562L65.4286 302H56Z" fill="#FFA9A3"/>
<path d="M65.4286 302L65.4286 292.562L74.8572 302H65.4286Z" fill="#FFA9A3"/>
<path d="M-0.571365 292.562V283.125L8.85722 292.562H-0.571365Z" fill="#FFA9A3"/>
<path d="M8.85722 292.562V283.125L18.2858 292.562H8.85722Z" fill="#FFA9A3"/>
<path d="M18.2858 292.562V283.125L27.7144 292.562H18.2858Z" fill="#FFA9A3"/>
<path d="M27.7144 292.562V283.125L37.1429 292.562H27.7144Z" fill="#FFA9A3"/>
<path d="M37.1429 292.562V283.125L46.5714 292.562H37.1429Z" fill="#FFA9A3"/>
<path d="M46.5714 292.562V283.125L56 292.562H46.5714Z" fill="#FFA9A3"/>
<path d="M56 292.562V283.125L65.4286 292.562H56Z" fill="#FFA9A3"/>
<path d="M65.4286 292.562V283.125L74.8572 292.562L65.4286 292.562Z" fill="#FFA9A3"/>
<path d="M-0.571365 283.125V273.687L8.85722 283.125H-0.571365Z" fill="#FFA9A3"/>
<path d="M8.85722 283.125V273.687L18.2858 283.125H8.85722Z" fill="#FFA9A3"/>
<path d="M18.2858 283.125V273.687L27.7144 283.125H18.2858Z" fill="#FFA9A3"/>
<path d="M27.7144 283.125V273.687L37.1429 283.125H27.7144Z" fill="#FFA9A3"/>
<path d="M37.1429 283.125V273.687L46.5714 283.125H37.1429Z" fill="#FFA9A3"/>
<path d="M46.5714 283.125V273.687L56 283.125H46.5714Z" fill="#FFA9A3"/>
<path d="M56 283.125V273.687L65.4286 283.125H56Z" fill="#FFA9A3"/>
<path d="M65.4286 283.125V273.687L74.8572 283.125L65.4286 283.125Z" fill="#FFA9A3"/>
<path d="M-0.571365 273.687L-0.571404 264.25L8.85722 273.687H-0.571365Z" fill="#FFA9A3"/>
<path d="M8.85722 273.687V264.25L18.2858 273.687H8.85722Z" fill="#FFA9A3"/>
<path d="M18.2858 273.687V264.25L27.7144 273.687H18.2858Z" fill="#FFA9A3"/>
<path d="M27.7144 273.687V264.25L37.1429 273.687H27.7144Z" fill="#FFA9A3"/>
<path d="M37.1429 273.687V264.25L46.5714 273.687H37.1429Z" fill="#FFA9A3"/>
<path d="M46.5714 273.687V264.25L56 273.687H46.5714Z" fill="#FFA9A3"/>
<path d="M56 273.687V264.25L65.4286 273.687H56Z" fill="#FFA9A3"/>
<path d="M65.4286 273.687V264.25L74.8572 273.687L65.4286 273.687Z" fill="#FFA9A3"/>
<path d="M-0.571404 264.25L-0.571365 254.812L8.85722 264.25L-0.571404 264.25Z" fill="#FFA9A3"/>
<path d="M8.85722 264.25V254.812L18.2858 264.25H8.85722Z" fill="#FFA9A3"/>
<path d="M18.2858 264.25V254.812L27.7144 264.25H18.2858Z" fill="#FFA9A3"/>
<path d="M27.7144 264.25V254.812L37.1429 264.25H27.7144Z" fill="#FFA9A3"/>
<path d="M37.1429 264.25V254.812L46.5714 264.25H37.1429Z" fill="#FFA9A3"/>
<path d="M46.5714 264.25V254.812L56 264.25H46.5714Z" fill="#FFA9A3"/>
<path d="M56 264.25V254.812L65.4286 264.25H56Z" fill="#FFA9A3"/>
<path d="M65.4286 264.25V254.812L74.8572 264.25L65.4286 264.25Z" fill="#FFA9A3"/>
<path d="M-0.571365 254.812V245.375L8.85722 254.812H-0.571365Z" fill="#FFA9A3"/>
<path d="M8.85722 254.812V245.375L18.2858 254.812H8.85722Z" fill="#FFA9A3"/>
<path d="M18.2858 254.812V245.375L27.7144 254.812H18.2858Z" fill="#FFA9A3"/>
<path d="M27.7144 254.812V245.375L37.1429 254.812H27.7144Z" fill="#FFA9A3"/>
<path d="M37.1429 254.812V245.375L46.5714 254.812H37.1429Z" fill="#FFA9A3"/>
<path d="M46.5714 254.812V245.375L56 254.812H46.5714Z" fill="#FFA9A3"/>
<path d="M56 254.812V245.375L65.4286 254.812H56Z" fill="#FFA9A3"/>
<path d="M65.4286 254.812V245.375L74.8572 254.812L65.4286 254.812Z" fill="#FFA9A3"/>
<path d="M-0.571365 245.375V235.938L8.85722 245.375H-0.571365Z" fill="#FFA9A3"/>
<path d="M8.85722 245.375V235.938L18.2858 245.375H8.85722Z" fill="#FFA9A3"/>
<path d="M18.2858 245.375V235.938L27.7144 245.375H18.2858Z" fill="#FFA9A3"/>
<path d="M27.7144 245.375V235.938L37.1429 245.375H27.7144Z" fill="#FFA9A3"/>
<path d="M37.1429 245.375V235.938L46.5714 245.375H37.1429Z" fill="#FFA9A3"/>
<path d="M46.5714 245.375V235.938L56 245.375H46.5714Z" fill="#FFA9A3"/>
<path d="M56 245.375V235.938L65.4286 245.375H56Z" fill="#FFA9A3"/>
<path d="M65.4286 245.375V235.938L74.8572 245.375L65.4286 245.375Z" fill="#FFA9A3"/>
<path d="M-0.571365 235.938L-0.571396 226.5L8.85722 235.938H-0.571365Z" fill="#FFA9A3"/>
<path d="M8.85722 235.938V226.5L18.2858 235.938H8.85722Z" fill="#FFA9A3"/>
<path d="M18.2858 235.938V226.5L27.7144 235.938H18.2858Z" fill="#FFA9A3"/>
<path d="M27.7144 235.938V226.5L37.1429 235.938H27.7144Z" fill="#FFA9A3"/>
<path d="M37.1429 235.938V226.5L46.5714 235.938H37.1429Z" fill="#FFA9A3"/>
<path d="M46.5714 235.938V226.5L56 235.938H46.5714Z" fill="#FFA9A3"/>
<path d="M56 235.938V226.5L65.4286 235.938H56Z" fill="#FFA9A3"/>
<path d="M65.4286 235.938V226.5L74.8572 235.937L65.4286 235.938Z" fill="#FFA9A3"/>
<path d="M74.8572 302V226.5H150.286V302H74.8572Z" fill="#FFDDD1"/>
<path d="M150.286 302V226.5L74.8572 302H150.286Z" fill="#FFA9A3"/>
<path d="M150.286 302V226.5H225.714L225.714 302H150.286Z" fill="#FFA9A3"/>
<path d="M150.286 302C150.286 292.085 152.237 282.267 156.027 273.107C159.818 263.947 165.374 255.624 172.378 248.613C179.383 241.603 187.698 236.041 196.849 232.247C206.001 228.453 215.809 226.5 225.714 226.5L225.714 302H150.286Z" fill="#FFFFF0"/>
<path d="M225.714 302L225.714 226.5L301.143 226.5V302H225.714Z" fill="#FFDDD1"/>
<path d="M225.714 302L225.714 264.25H301.143V302H225.714Z" fill="#FFA9A3"/>
<path d="M225.714 302L225.714 264.25H301.143V302H225.714Z" fill="#FFA9A3"/>
<path d="M301.143 226.5V302L376.571 302V226.5L301.143 226.5Z" fill="#FFDDD1"/>
<path d="M338.857 302C338.857 281.151 355.742 264.25 376.571 264.25L376.571 302L338.857 302Z" fill="#FFA9A3"/>
<path d="M376.571 226.5H452L452 302L376.571 302V226.5Z" fill="#FFDDD1"/>
<path d="M414.286 302C414.286 281.151 397.4 264.25 376.571 264.25L376.571 302H414.286Z" fill="#FFA9A3"/>
</svg>
