<svg width="57" height="57" viewBox="0 0 57 57" fill="none" xmlns="http://www.w3.org/2000/svg">
<g filter="url(#filter0_dd_176_1149)">
<circle cx="28.5" cy="27.5" r="23.5" stroke="#FFA9A3" stroke-width="1.5"/>
</g>
<path d="M27.4486 22.3242L28.2296 18.647C28.3444 18.1075 28.6688 17.6358 29.1314 17.3354C29.594 17.0351 30.1569 16.9308 30.6964 17.0455L34.0201 17.7526C34.3263 17.4122 34.7363 17.1823 35.1865 17.0987C35.6366 17.015 36.1018 17.0823 36.5099 17.2899C36.918 17.4976 37.2461 17.8342 37.4434 18.2474C37.6407 18.6606 37.6961 19.1273 37.6011 19.5752C37.506 20.0232 37.2658 20.4272 36.9178 20.7247C36.5697 21.0222 36.1332 21.1965 35.6759 21.2206C35.2187 21.2447 34.7663 21.1172 34.3889 20.858C34.0114 20.5987 33.7301 20.2222 33.5885 19.7868L30.2638 19.0796L29.5712 22.3398C31.4275 22.4823 33.2713 23.099 34.9415 24.1077C35.4378 23.8316 35.9967 23.6873 36.5647 23.6889C37.1327 23.6905 37.6908 23.8377 38.1856 24.1167C38.6804 24.3956 39.0954 24.7968 39.3908 25.2819C39.6862 25.7671 39.8522 26.3199 39.8729 26.8875V26.9094C39.8803 27.4179 39.7709 27.9214 39.5533 28.3811C39.3357 28.8408 39.0157 29.2445 38.6177 29.5612L38.6094 29.6892C38.6094 33.8469 33.9816 37 28.4189 37C22.8729 37 18.3231 33.8552 18.3262 29.7692L18.3158 29.581C17.6481 29.0753 17.1961 28.3359 17.0505 27.511C16.905 26.6861 17.0765 25.8366 17.5309 25.1329C17.9852 24.4291 18.6887 23.9231 19.5004 23.7162C20.3121 23.5093 21.172 23.6169 21.9078 24.0173C23.5875 23.0052 25.4901 22.4236 27.4486 22.3242ZM37.1056 28.071C37.3137 27.968 37.4886 27.8085 37.6103 27.6108C37.7321 27.4132 37.7957 27.1852 37.7941 26.9531C37.7832 26.7151 37.7041 26.4853 37.5661 26.2912C37.4281 26.097 37.2371 25.9468 37.0159 25.8583C36.7947 25.7699 36.5528 25.7471 36.319 25.7926C36.0852 25.8381 35.8694 25.9499 35.6975 26.1149L35.0892 26.6972L34.3924 26.224C32.7129 25.0822 30.8025 24.4301 28.9535 24.3896H27.9073C25.9574 24.4187 24.1094 25.0135 22.461 26.1315L21.7705 26.5995L21.1642 26.0275C21.0332 25.9048 20.8772 25.812 20.7068 25.7556C20.5364 25.6991 20.3558 25.6803 20.1775 25.7005C19.9992 25.7207 19.8273 25.7793 19.6739 25.8724C19.5204 25.9655 19.389 26.0908 19.2888 26.2397C19.1885 26.3885 19.1217 26.5574 19.0931 26.7346C19.0645 26.9117 19.0747 27.093 19.123 27.2659C19.1713 27.4387 19.2565 27.599 19.3729 27.7357C19.4892 27.8724 19.6338 27.9822 19.7967 28.0575L20.455 28.3591L20.3999 29.0818C20.3861 29.2841 20.3872 29.4871 20.403 29.6892C20.403 32.5074 23.8931 34.9201 28.4189 34.9201C32.9645 34.9201 36.5295 32.4908 36.5326 29.6091C36.5475 29.4336 36.5475 29.2573 36.5326 29.0818L36.4785 28.383L37.1056 28.071ZM23.1828 28.2363C23.1828 27.8226 23.3471 27.4259 23.6397 27.1333C23.9322 26.8408 24.329 26.6764 24.7427 26.6764C25.1564 26.6764 25.5532 26.8408 25.8457 27.1333C26.1383 27.4259 26.3026 27.8226 26.3026 28.2363C26.3026 28.6501 26.1383 29.0468 25.8457 29.3394C25.5532 29.6319 25.1564 29.7963 24.7427 29.7963C24.329 29.7963 23.9322 29.6319 23.6397 29.3394C23.3471 29.0468 23.1828 28.6501 23.1828 28.2363ZM30.4624 28.2363C30.4624 27.8226 30.6268 27.4259 30.9193 27.1333C31.2119 26.8408 31.6086 26.6764 32.0223 26.6764C32.4361 26.6764 32.8328 26.8408 33.1254 27.1333C33.4179 27.4259 33.5823 27.8226 33.5823 28.2363C33.5823 28.6501 33.4179 29.0468 33.1254 29.3394C32.8328 29.6319 32.4361 29.7963 32.0223 29.7963C31.6086 29.7963 31.2119 29.6319 30.9193 29.3394C30.6268 29.0468 30.4624 28.6501 30.4624 28.2363ZM28.3981 33.5432C26.9453 33.5432 25.5216 33.1584 24.3621 32.2849C24.292 32.2003 24.2561 32.0926 24.2612 31.983C24.2663 31.8733 24.3122 31.7695 24.3899 31.6918C24.4675 31.6142 24.5713 31.5683 24.681 31.5631C24.7907 31.558 24.8984 31.594 24.9829 31.664C25.9657 32.3847 27.1907 32.6936 28.3825 32.6936C29.5743 32.6936 30.8056 32.4076 31.7977 31.6963C31.8552 31.6406 31.9263 31.601 32.0039 31.5814C32.0815 31.5618 32.1629 31.5629 32.2399 31.5846C32.3169 31.6063 32.3869 31.6478 32.4429 31.705C32.4989 31.7621 32.5389 31.833 32.559 31.9105C32.5756 31.9884 32.5729 32.0693 32.5512 32.1459C32.5294 32.2226 32.4893 32.2928 32.4342 32.3504C31.7239 33.1792 29.852 33.5432 28.3992 33.5432" fill="#FFA9A3"/>
<defs>
<filter id="filter0_dd_176_1149" x="0.25" y="0.25" width="56.5" height="56.5" filterUnits="userSpaceOnUse" color-interpolation-filters="sRGB">
<feFlood flood-opacity="0" result="BackgroundImageFix"/>
<feColorMatrix in="SourceAlpha" type="matrix" values="0 0 0 0 0 0 0 0 0 0 0 0 0 0 0 0 0 0 127 0" result="hardAlpha"/>
<feMorphology radius="1" operator="dilate" in="SourceAlpha" result="effect1_dropShadow_176_1149"/>
<feOffset dy="1"/>
<feGaussianBlur stdDeviation="1.5"/>
<feColorMatrix type="matrix" values="0 0 0 0 1 0 0 0 0 0.866667 0 0 0 0 0.819608 0 0 0 1 0"/>
<feBlend mode="normal" in2="BackgroundImageFix" result="effect1_dropShadow_176_1149"/>
<feColorMatrix in="SourceAlpha" type="matrix" values="0 0 0 0 0 0 0 0 0 0 0 0 0 0 0 0 0 0 127 0" result="hardAlpha"/>
<feOffset dy="1"/>
<feGaussianBlur stdDeviation="1"/>
<feColorMatrix type="matrix" values="0 0 0 0 1 0 0 0 0 0.866667 0 0 0 0 0.819608 0 0 0 1 0"/>
<feBlend mode="normal" in2="effect1_dropShadow_176_1149" result="effect2_dropShadow_176_1149"/>
<feBlend mode="normal" in="SourceGraphic" in2="effect2_dropShadow_176_1149" result="shape"/>
</filter>
</defs>
</svg>
