<svg width="51" height="51" viewBox="0 0 51 51" fill="none" xmlns="http://www.w3.org/2000/svg">
<g filter="url(#filter0_if_176_1172)">
<circle cx="25.5" cy="25.5" r="23.5" fill="#FFA9A3"/>
</g>
<path d="M24.4486 20.3242L25.2296 16.647C25.3444 16.1075 25.6688 15.6358 26.1314 15.3354C26.594 15.0351 27.1569 14.9308 27.6964 15.0455L31.0201 15.7526C31.3263 15.4122 31.7363 15.1823 32.1865 15.0987C32.6366 15.015 33.1018 15.0823 33.5099 15.2899C33.918 15.4976 34.2461 15.8342 34.4434 16.2474C34.6407 16.6606 34.6961 17.1273 34.6011 17.5752C34.506 18.0232 34.2659 18.4272 33.9178 18.7247C33.5697 19.0222 33.1332 19.1965 32.6759 19.2206C32.2187 19.2447 31.7663 19.1172 31.3889 18.858C31.0114 18.5987 30.7301 18.2222 30.5885 17.7868L27.2638 17.0796L26.5712 20.3398C28.4275 20.4823 30.2713 21.099 31.9415 22.1077C32.4378 21.8316 32.9967 21.6873 33.5647 21.6889C34.1327 21.6905 34.6908 21.8377 35.1856 22.1167C35.6804 22.3956 36.0954 22.7968 36.3908 23.2819C36.6862 23.7671 36.8522 24.3199 36.8729 24.8875V24.9094C36.8803 25.4179 36.7709 25.9214 36.5533 26.3811C36.3357 26.8408 36.0157 27.2445 35.6177 27.5612L35.6094 27.6892C35.6094 31.8469 30.9816 35 25.4189 35C19.8729 35 15.3231 31.8552 15.3262 27.7692L15.3158 27.581C14.6481 27.0753 14.1961 26.3359 14.0505 25.511C13.905 24.6861 14.0765 23.8366 14.5309 23.1329C14.9852 22.4291 15.6887 21.9231 16.5004 21.7162C17.3121 21.5093 18.172 21.6169 18.9078 22.0173C20.5875 21.0052 22.4901 20.4236 24.4486 20.3242ZM34.1056 26.071C34.3137 25.968 34.4886 25.8085 34.6103 25.6108C34.7321 25.4132 34.7957 25.1852 34.7941 24.9531C34.7832 24.7151 34.7041 24.4853 34.5661 24.2912C34.4281 24.097 34.2371 23.9468 34.0159 23.8583C33.7947 23.7699 33.5528 23.7471 33.319 23.7926C33.0852 23.8381 32.8694 23.9499 32.6975 24.1149L32.0892 24.6972L31.3924 24.224C29.7129 23.0822 27.8025 22.4301 25.9535 22.3896H24.9073C22.9574 22.4187 21.1094 23.0135 19.461 24.1315L18.7705 24.5995L18.1642 24.0275C18.0332 23.9048 17.8772 23.812 17.7068 23.7556C17.5364 23.6991 17.3558 23.6803 17.1775 23.7005C16.9992 23.7207 16.8273 23.7793 16.6739 23.8724C16.5204 23.9655 16.389 24.0908 16.2888 24.2397C16.1885 24.3885 16.1217 24.5574 16.0931 24.7346C16.0645 24.9117 16.0747 25.093 16.123 25.2659C16.1713 25.4387 16.2565 25.599 16.3729 25.7357C16.4892 25.8724 16.6338 25.9822 16.7967 26.0575L17.455 26.3591L17.3999 27.0818C17.3861 27.2841 17.3872 27.4871 17.403 27.6892C17.403 30.5074 20.8931 32.9201 25.4189 32.9201C29.9645 32.9201 33.5295 30.4908 33.5326 27.6091C33.5475 27.4336 33.5475 27.2573 33.5326 27.0818L33.4785 26.383L34.1056 26.071ZM20.1828 26.2363C20.1828 25.8226 20.3471 25.4259 20.6397 25.1333C20.9322 24.8408 21.329 24.6764 21.7427 24.6764C22.1564 24.6764 22.5532 24.8408 22.8457 25.1333C23.1383 25.4259 23.3026 25.8226 23.3026 26.2363C23.3026 26.6501 23.1383 27.0468 22.8457 27.3394C22.5532 27.6319 22.1564 27.7963 21.7427 27.7963C21.329 27.7963 20.9322 27.6319 20.6397 27.3394C20.3471 27.0468 20.1828 26.6501 20.1828 26.2363ZM27.4624 26.2363C27.4624 25.8226 27.6268 25.4259 27.9193 25.1333C28.2119 24.8408 28.6086 24.6764 29.0223 24.6764C29.4361 24.6764 29.8328 24.8408 30.1254 25.1333C30.4179 25.4259 30.5823 25.8226 30.5823 26.2363C30.5823 26.6501 30.4179 27.0468 30.1254 27.3394C29.8328 27.6319 29.4361 27.7963 29.0223 27.7963C28.6086 27.7963 28.2119 27.6319 27.9193 27.3394C27.6268 27.0468 27.4624 26.6501 27.4624 26.2363ZM25.3981 31.5432C23.9453 31.5432 22.5216 31.1584 21.3621 30.2849C21.292 30.2003 21.2561 30.0926 21.2612 29.983C21.2663 29.8733 21.3122 29.7695 21.3899 29.6918C21.4675 29.6142 21.5713 29.5683 21.681 29.5631C21.7907 29.558 21.8984 29.594 21.9829 29.664C22.9657 30.3847 24.1907 30.6936 25.3825 30.6936C26.5743 30.6936 27.8056 30.4076 28.7977 29.6963C28.8552 29.6406 28.9263 29.601 29.0039 29.5814C29.0815 29.5618 29.1629 29.5629 29.2399 29.5846C29.3169 29.6063 29.3869 29.6478 29.4429 29.705C29.4989 29.7621 29.5389 29.833 29.559 29.9105C29.5756 29.9884 29.5729 30.0693 29.5512 30.1459C29.5294 30.2226 29.4893 30.2928 29.4342 30.3504C28.7239 31.1792 26.852 31.5432 25.3992 31.5432" fill="#FFFFF0"/>
<defs>
<filter id="filter0_if_176_1172" x="0" y="0" width="51" height="51" filterUnits="userSpaceOnUse" color-interpolation-filters="sRGB">
<feFlood flood-opacity="0" result="BackgroundImageFix"/>
<feBlend mode="normal" in="SourceGraphic" in2="BackgroundImageFix" result="shape"/>
<feColorMatrix in="SourceAlpha" type="matrix" values="0 0 0 0 0 0 0 0 0 0 0 0 0 0 0 0 0 0 127 0" result="hardAlpha"/>
<feMorphology radius="1" operator="erode" in="SourceAlpha" result="effect1_innerShadow_176_1172"/>
<feOffset dy="1"/>
<feGaussianBlur stdDeviation="1.5"/>
<feComposite in2="hardAlpha" operator="arithmetic" k2="-1" k3="1"/>
<feColorMatrix type="matrix" values="0 0 0 0 1 0 0 0 0 0.866667 0 0 0 0 0.819608 0 0 0 1 0"/>
<feBlend mode="normal" in2="shape" result="effect1_innerShadow_176_1172"/>
<feGaussianBlur stdDeviation="1" result="effect2_foregroundBlur_176_1172"/>
</filter>
</defs>
</svg>
