<svg width="272" height="28" viewBox="0 0 272 28" fill="none" xmlns="http://www.w3.org/2000/svg">
<path d="M4.54 19.5V18.252H7.036V27H5.656V19.5H4.54Z" fill="#0F0F0F"/>
<path d="M67.54 19.5V18.252H70.036V27H68.656V19.5H67.54ZM77.7953 19.428H73.7753V21.816C73.9433 21.592 74.1913 21.404 74.5193 21.252C74.8553 21.1 75.2113 21.024 75.5873 21.024C76.2593 21.024 76.8033 21.168 77.2193 21.456C77.6433 21.744 77.9433 22.108 78.1193 22.548C78.3033 22.988 78.3953 23.452 78.3953 23.94C78.3953 24.532 78.2793 25.06 78.0473 25.524C77.8233 25.98 77.4833 26.34 77.0273 26.604C76.5793 26.868 76.0273 27 75.3713 27C74.4993 27 73.7993 26.784 73.2713 26.352C72.7433 25.92 72.4273 25.348 72.3233 24.636H73.6553C73.7433 25.012 73.9393 25.312 74.2433 25.536C74.5473 25.752 74.9273 25.86 75.3833 25.86C75.9513 25.86 76.3753 25.688 76.6553 25.344C76.9433 25 77.0873 24.544 77.0873 23.976C77.0873 23.4 76.9433 22.96 76.6553 22.656C76.3673 22.344 75.9433 22.188 75.3833 22.188C74.9913 22.188 74.6593 22.288 74.3873 22.488C74.1233 22.68 73.9313 22.944 73.8113 23.28H72.5153V18.228H77.7953V19.428Z" fill="#0F0F0F"/>
<path d="M130.696 20.412C130.744 19.668 131.028 19.088 131.548 18.672C132.076 18.256 132.748 18.048 133.564 18.048C134.124 18.048 134.608 18.148 135.016 18.348C135.424 18.548 135.732 18.82 135.94 19.164C136.148 19.508 136.252 19.896 136.252 20.328C136.252 20.824 136.12 21.248 135.856 21.6C135.592 21.952 135.276 22.188 134.908 22.308V22.356C135.38 22.5 135.748 22.764 136.012 23.148C136.276 23.524 136.408 24.008 136.408 24.6C136.408 25.072 136.3 25.492 136.084 25.86C135.868 26.228 135.548 26.52 135.124 26.736C134.7 26.944 134.192 27.048 133.6 27.048C132.736 27.048 132.024 26.828 131.464 26.388C130.912 25.94 130.616 25.3 130.576 24.468H131.896C131.928 24.892 132.092 25.24 132.388 25.512C132.684 25.776 133.084 25.908 133.588 25.908C134.076 25.908 134.452 25.776 134.716 25.512C134.98 25.24 135.112 24.892 135.112 24.468C135.112 23.908 134.932 23.512 134.572 23.28C134.22 23.04 133.676 22.92 132.94 22.92H132.628V21.792H132.952C133.6 21.784 134.092 21.676 134.428 21.468C134.772 21.26 134.944 20.932 134.944 20.484C134.944 20.1 134.82 19.796 134.572 19.572C134.324 19.34 133.972 19.224 133.516 19.224C133.068 19.224 132.72 19.34 132.472 19.572C132.224 19.796 132.076 20.076 132.028 20.412H130.696ZM138.085 22.512C138.085 21.128 138.317 20.048 138.781 19.272C139.253 18.488 140.061 18.096 141.205 18.096C142.349 18.096 143.153 18.488 143.617 19.272C144.089 20.048 144.325 21.128 144.325 22.512C144.325 23.912 144.089 25.008 143.617 25.8C143.153 26.584 142.349 26.976 141.205 26.976C140.061 26.976 139.253 26.584 138.781 25.8C138.317 25.008 138.085 23.912 138.085 22.512ZM142.981 22.512C142.981 21.864 142.937 21.316 142.849 20.868C142.769 20.42 142.601 20.056 142.345 19.776C142.089 19.488 141.709 19.344 141.205 19.344C140.701 19.344 140.321 19.488 140.065 19.776C139.809 20.056 139.637 20.42 139.549 20.868C139.469 21.316 139.429 21.864 139.429 22.512C139.429 23.184 139.469 23.748 139.549 24.204C139.629 24.66 139.797 25.028 140.053 25.308C140.317 25.588 140.701 25.728 141.205 25.728C141.709 25.728 142.089 25.588 142.345 25.308C142.609 25.028 142.781 24.66 142.861 24.204C142.941 23.748 142.981 23.184 142.981 22.512Z" fill="#0F0F0F"/>
<path d="M195.552 25.176V24.144L199.584 18.36H201.24V23.988H202.356V25.176H201.24V27H199.896V25.176H195.552ZM199.956 19.752L197.124 23.988H199.956V19.752ZM209.37 19.428H205.35V21.816C205.518 21.592 205.766 21.404 206.094 21.252C206.43 21.1 206.786 21.024 207.162 21.024C207.834 21.024 208.378 21.168 208.794 21.456C209.218 21.744 209.518 22.108 209.694 22.548C209.878 22.988 209.97 23.452 209.97 23.94C209.97 24.532 209.854 25.06 209.622 25.524C209.398 25.98 209.058 26.34 208.602 26.604C208.154 26.868 207.602 27 206.946 27C206.074 27 205.374 26.784 204.846 26.352C204.318 25.92 204.002 25.348 203.898 24.636H205.23C205.318 25.012 205.514 25.312 205.818 25.536C206.122 25.752 206.502 25.86 206.958 25.86C207.526 25.86 207.95 25.688 208.23 25.344C208.518 25 208.662 24.544 208.662 23.976C208.662 23.4 208.518 22.96 208.23 22.656C207.942 22.344 207.518 22.188 206.958 22.188C206.566 22.188 206.234 22.288 205.962 22.488C205.698 22.68 205.506 22.944 205.386 23.28H204.09V18.228H209.37V19.428Z" fill="#0F0F0F"/>
<path d="M259.424 20.28C259.336 19.912 259.176 19.636 258.944 19.452C258.712 19.268 258.388 19.176 257.972 19.176C257.34 19.176 256.868 19.42 256.556 19.908C256.244 20.388 256.08 21.188 256.064 22.308C256.272 21.956 256.576 21.684 256.976 21.492C257.376 21.3 257.808 21.204 258.272 21.204C258.8 21.204 259.264 21.32 259.664 21.552C260.072 21.776 260.388 22.104 260.612 22.536C260.844 22.968 260.96 23.484 260.96 24.084C260.96 24.644 260.848 25.144 260.624 25.584C260.408 26.024 260.084 26.372 259.652 26.628C259.22 26.876 258.7 27 258.092 27C257.268 27 256.62 26.82 256.148 26.46C255.684 26.092 255.356 25.576 255.164 24.912C254.98 24.248 254.888 23.42 254.888 22.428C254.888 19.5 255.92 18.036 257.984 18.036C258.784 18.036 259.412 18.252 259.868 18.684C260.332 19.116 260.604 19.648 260.684 20.28H259.424ZM257.972 22.356C257.484 22.356 257.068 22.504 256.724 22.8C256.388 23.088 256.22 23.508 256.22 24.06C256.22 24.612 256.376 25.052 256.688 25.38C257.008 25.7 257.452 25.86 258.02 25.86C258.524 25.86 258.92 25.704 259.208 25.392C259.504 25.08 259.652 24.664 259.652 24.144C259.652 23.6 259.508 23.168 259.22 22.848C258.94 22.52 258.524 22.356 257.972 22.356ZM262.659 22.512C262.659 21.128 262.891 20.048 263.355 19.272C263.827 18.488 264.635 18.096 265.779 18.096C266.923 18.096 267.727 18.488 268.191 19.272C268.663 20.048 268.899 21.128 268.899 22.512C268.899 23.912 268.663 25.008 268.191 25.8C267.727 26.584 266.923 26.976 265.779 26.976C264.635 26.976 263.827 26.584 263.355 25.8C262.891 25.008 262.659 23.912 262.659 22.512ZM267.555 22.512C267.555 21.864 267.511 21.316 267.423 20.868C267.343 20.42 267.175 20.056 266.919 19.776C266.663 19.488 266.283 19.344 265.779 19.344C265.275 19.344 264.895 19.488 264.639 19.776C264.383 20.056 264.211 20.42 264.123 20.868C264.043 21.316 264.003 21.864 264.003 22.512C264.003 23.184 264.043 23.748 264.123 24.204C264.203 24.66 264.371 25.028 264.627 25.308C264.891 25.588 265.275 25.728 265.779 25.728C266.283 25.728 266.663 25.588 266.919 25.308C267.183 25.028 267.355 24.66 267.435 24.204C267.515 23.748 267.555 23.184 267.555 22.512Z" fill="#0F0F0F"/>
<path d="M5 5H267" stroke="#FFA9A3" stroke-width="10" stroke-linecap="round"/>
<circle cx="6.5" cy="4.5" r="2.5" fill="#FFFFF0"/>
<circle cx="71.5" cy="4.5" r="2.5" fill="#FFFFF0"/>
<circle cx="136.5" cy="4.5" r="2.5" fill="#FFFFF0"/>
<circle cx="201.5" cy="4.5" r="2.5" fill="#FFFFF0"/>
<circle cx="266.5" cy="4.5" r="2.5" fill="#FFFFF0"/>
</svg>
