<svg width="121" height="175" viewBox="0 0 121 175" fill="none" xmlns="http://www.w3.org/2000/svg">
<path d="M20.5 154.234C20.5 151.762 20.38 150.106 20.14 149.266C19.9 148.402 19.432 147.97 18.736 147.97C18.04 147.97 17.416 148.426 16.864 149.338C16.312 150.226 16.036 151.426 16.036 152.938V159.526C16.036 160.558 16.24 161.434 16.648 162.154C17.056 162.874 17.656 163.234 18.448 163.234C19.24 163.234 19.78 162.706 20.068 161.65C20.356 160.594 20.5 158.746 20.5 156.106V154.234ZM15.964 146.782V149.626C16.9 147.49 18.556 146.422 20.932 146.422C22.996 146.422 24.592 147.166 25.72 148.654C26.872 150.142 27.448 152.398 27.448 155.422C27.448 158.446 26.824 160.678 25.576 162.118C24.352 163.558 22.504 164.278 20.032 164.278C18.88 164.278 18.016 164.134 17.44 163.846C16.864 163.558 16.396 163.114 16.036 162.514V171.838H20.68V172.486H7.36V171.838H9.34V147.43H7.432V146.782H15.964ZM40.8721 156.826V153.766C40.8721 151.438 40.7401 149.746 40.4761 148.69C40.2361 147.61 39.6601 147.07 38.7481 147.07C38.2201 147.07 37.7881 147.226 37.4521 147.538C37.1401 147.826 36.9121 148.318 36.7681 149.014C36.5521 150.094 36.4441 151.738 36.4441 153.946V156.754C36.4441 159.37 36.5161 160.942 36.6601 161.47C36.8281 161.998 36.9961 162.43 37.1641 162.766C37.4281 163.342 37.9441 163.63 38.7121 163.63C39.6481 163.63 40.2601 163.09 40.5481 162.01C40.7641 161.242 40.8721 159.514 40.8721 156.826ZM38.6401 164.278C35.6401 164.278 33.3721 163.51 31.8361 161.974C30.3001 160.438 29.5321 158.242 29.5321 155.386C29.5321 152.506 30.3481 150.298 31.9801 148.762C33.6361 147.202 35.9521 146.422 38.9281 146.422C41.9041 146.422 44.1241 147.142 45.5881 148.582C47.0521 149.998 47.7841 152.17 47.7841 155.098C47.7841 161.218 44.7361 164.278 38.6401 164.278ZM56.8189 156.466C56.8189 158.986 56.9509 160.666 57.2149 161.506C57.4789 162.322 57.9589 162.73 58.6549 162.73C59.3749 162.73 59.9869 162.418 60.4909 161.794C61.0189 161.17 61.2829 160.246 61.2829 159.022V151.174C61.2829 150.142 61.0789 149.266 60.6709 148.546C60.2629 147.826 59.6629 147.466 58.8709 147.466C58.0789 147.466 57.5389 147.994 57.2509 149.05C56.9629 150.106 56.8189 151.954 56.8189 154.594V156.466ZM61.7509 163.918L61.3549 161.398C60.5389 163.318 58.8829 164.278 56.3869 164.278C54.3229 164.278 52.7149 163.534 51.5629 162.046C50.4349 160.558 49.8709 158.338 49.8709 155.386C49.8709 149.41 52.2469 146.422 56.9989 146.422C59.1109 146.422 60.5029 147.01 61.1749 148.186V137.566H58.9789V136.918H67.9789V163.27H69.7429V163.918H61.7509ZM75.751 164.278C74.719 164.278 73.939 163.978 73.411 163.378C72.907 162.754 72.655 162.01 72.655 161.146C72.655 160.258 72.919 159.514 73.447 158.914C73.999 158.314 74.767 158.014 75.751 158.014C76.735 158.014 77.515 158.266 78.091 158.77C78.667 159.274 78.955 160.03 78.955 161.038C78.955 162.046 78.679 162.838 78.127 163.414C77.599 163.99 76.807 164.278 75.751 164.278ZM90.2823 155.458H91.3263V152.686C91.3263 150.406 91.1943 148.882 90.9303 148.114C90.6903 147.322 90.2103 146.926 89.4903 146.926C89.0583 146.926 88.6623 147.046 88.3023 147.286C87.9663 147.502 87.7983 147.814 87.7983 148.222C87.7983 148.606 87.8703 149.002 88.0143 149.41H88.9143C89.1063 149.914 89.2023 150.526 89.2023 151.246C89.2023 151.942 88.9023 152.554 88.3023 153.082C87.7023 153.586 86.9463 153.838 86.0343 153.838C83.9703 153.838 82.9383 152.842 82.9383 150.85C82.9383 147.898 85.4463 146.422 90.4623 146.422C93.3183 146.422 95.2863 146.914 96.3663 147.898C97.4703 148.858 98.0223 150.634 98.0223 153.226V160.534C98.0223 161.782 98.3703 162.406 99.0663 162.406C99.8823 162.406 100.362 161.17 100.506 158.698L101.046 158.734C100.95 160.846 100.554 162.298 99.8583 163.09C99.1623 163.882 98.0223 164.278 96.4383 164.278C93.5583 164.278 91.9023 163.39 91.4703 161.614C91.1583 162.526 90.6903 163.198 90.0663 163.63C89.4423 164.062 88.5303 164.278 87.3303 164.278C83.7783 164.278 82.0023 162.826 82.0023 159.922C82.0023 158.218 82.6743 157.054 84.0183 156.43C85.3863 155.782 87.4743 155.458 90.2823 155.458ZM88.8423 159.886C88.8423 161.134 88.9023 161.938 89.0223 162.298C89.1663 162.658 89.4183 162.838 89.7783 162.838C90.1623 162.838 90.5103 162.538 90.8223 161.938C91.1583 161.314 91.3263 160.462 91.3263 159.382V156.034H91.0743C89.5863 156.034 88.8423 157.126 88.8423 159.31V159.886ZM107.412 144.298C106.14 144.298 105.228 143.974 104.676 143.326C104.148 142.678 103.884 141.874 103.884 140.914C103.884 139.954 104.172 139.162 104.748 138.538C105.348 137.914 106.248 137.602 107.448 137.602C108.648 137.602 109.56 137.89 110.184 138.466C110.808 139.018 111.12 139.822 111.12 140.878C111.12 141.91 110.82 142.738 110.22 143.362C109.62 143.986 108.684 144.298 107.412 144.298ZM101.976 146.782H110.796V163.27H112.812V163.918H102.12V163.27H104.1V147.43H101.976V146.782Z" fill="#0F0F0F"/>
<path d="M95.3968 60.0002C95.3968 79.529 79.5595 95.3604 60.023 95.3604C40.4865 95.3604 24.6492 79.529 24.6492 60.0002C24.6492 40.4713 40.4865 24.64 60.023 24.64C79.5595 24.64 95.3968 40.4713 95.3968 60.0002Z" stroke="#888888" stroke-width="0.3"/>
<path d="M107.646 59.9997C107.646 86.2913 86.3248 107.605 60.023 107.605C33.7213 107.605 12.3996 86.2913 12.3996 59.9997C12.3996 33.7082 33.7213 12.3946 60.023 12.3946C86.3248 12.3946 107.646 33.7082 107.646 59.9997Z" stroke="#888888" stroke-width="0.3"/>
<path d="M119.896 60C119.896 93.0542 93.09 119.85 60.023 119.85C26.956 119.85 0.15 93.0542 0.15 60C0.15 26.9458 26.956 0.15 60.023 0.15C93.09 0.15 119.896 26.9458 119.896 60Z" stroke="#888888" stroke-width="0.3"/>
<path d="M58.484 67.6924C55.9189 67.6924 53.7386 66.7949 51.943 65.0001C50.1474 63.2052 49.2497 61.0257 49.2497 58.4616V40.0001C49.2497 37.436 50.1474 35.2565 51.943 33.4616C53.7386 31.6667 55.9189 30.7693 58.484 30.7693C61.049 30.7693 63.2294 31.6667 65.0249 33.4616C66.8205 35.2565 67.7183 37.436 67.7183 40.0001V58.4616C67.7183 61.0257 66.8205 63.2052 65.0249 65.0001C63.2294 66.7949 61.049 67.6924 58.484 67.6924ZM55.4059 89.2308V79.7693C50.0705 79.0513 45.6585 76.6667 42.17 72.6154C38.6815 68.5642 36.9372 63.8462 36.9372 58.4616H43.0934C43.0934 62.718 44.594 66.3462 47.5952 69.3462C50.5963 72.3462 54.2259 73.8462 58.484 73.8462C62.742 73.8462 66.3716 72.3462 69.3728 69.3462C72.3739 66.3462 73.8745 62.718 73.8745 58.4616H80.0307C80.0307 63.8462 78.2864 68.5642 74.7979 72.6154C71.3094 76.6667 66.8974 79.0513 61.5621 79.7693V89.2308H55.4059Z" fill="#0F0F0F"/>
<path d="M75.2239 19.027C75.2849 18.8451 75.5422 18.8451 75.6032 19.027L78.0862 26.4329C78.1062 26.4924 78.1528 26.539 78.2123 26.559L85.6208 29.041C85.8028 29.102 85.8028 29.3593 85.6208 29.4203L78.2123 31.9023C78.1528 31.9223 78.1062 31.9689 78.0862 32.0284L75.6032 39.4343C75.5422 39.6162 75.2849 39.6162 75.2239 39.4343L72.7408 32.0284C72.7209 31.9689 72.6742 31.9223 72.6147 31.9023L65.2062 29.4203C65.0243 29.3593 65.0243 29.102 65.2062 29.041L72.6147 26.559C72.6742 26.539 72.7209 26.4924 72.7408 26.4329L75.2239 19.027Z" stroke="#0F0F0F" stroke-width="0.5"/>
</svg>
