<svg width="148" height="160" viewBox="0 0 148 160" fill="none" xmlns="http://www.w3.org/2000/svg">
<path d="M146.887 85.9529C146.887 126.192 114.255 158.812 73.9996 158.812C33.7446 158.812 1.11182 126.192 1.11182 85.9529C1.11182 45.7138 33.7446 13.0933 73.9996 13.0933C114.255 13.0933 146.887 45.7138 146.887 85.9529Z" stroke="#888888"/>
<path d="M105.605 0.704484C105.666 0.522589 105.924 0.522589 105.985 0.704485L111.35 16.7076C111.37 16.7671 111.417 16.8138 111.476 16.8337L127.485 22.1972C127.667 22.2581 127.667 22.5155 127.485 22.5764L111.476 27.9399C111.417 27.9598 111.37 28.0065 111.35 28.0659L105.985 44.0691C105.924 44.251 105.666 44.251 105.605 44.0691L100.24 28.0659C100.22 28.0065 100.173 27.9598 100.114 27.9399L84.1046 22.5764C83.9227 22.5155 83.9227 22.2581 84.1046 22.1972L100.114 16.8337C100.173 16.8138 100.22 16.7671 100.24 16.7076L105.605 0.704484Z" fill="#0F0F0F"/>
</svg>
