<svg width="88" height="88" viewBox="0 0 88 88" fill="none" xmlns="http://www.w3.org/2000/svg">
<path d="M44.0002 51.3333C40.9446 51.3333 38.3474 50.2638 36.2085 48.1249C34.0696 45.986 33.0002 43.3888 33.0002 40.3333V18.3333C33.0002 15.2777 34.0696 12.6805 36.2085 10.5416C38.3474 8.4027 40.9446 7.33325 44.0002 7.33325C47.0557 7.33325 49.6529 8.4027 51.7918 10.5416C53.9307 12.6805 55.0002 15.2777 55.0002 18.3333V40.3333C55.0002 43.3888 53.9307 45.986 51.7918 48.1249C49.6529 50.2638 47.0557 51.3333 44.0002 51.3333ZM40.3335 76.9999V65.7249C33.9779 64.8694 28.7224 62.0277 24.5668 57.1999C20.4113 52.3721 18.3335 46.7499 18.3335 40.3333H25.6668C25.6668 45.4055 27.4543 49.7291 31.0293 53.3041C34.6043 56.8791 38.9279 58.6666 44.0002 58.6666C49.0724 58.6666 53.396 56.8791 56.971 53.3041C60.546 49.7291 62.3335 45.4055 62.3335 40.3333H69.6668C69.6668 46.7499 67.589 52.3721 63.4335 57.1999C59.2779 62.0277 54.0224 64.8694 47.6668 65.7249V76.9999H40.3335Z" fill="#0F0F0F"/>
</svg>
